<?xml version="1.0" encoding="UTF-8"?>
<svg id="Layer_3" data-name="Layer 3" xmlns="http://www.w3.org/2000/svg" viewBox="0 0 850.39 850.39">
  <defs>
    <style>
      .cls-1 {
        stroke-width: 0px;
      }
    </style>
  </defs>
  <polygon class="cls-1" points="432.72 92.04 412.42 126.84 392.12 161.64 432.41 161.82 472.7 162 452.71 127.02 432.72 92.04 432.72 92.04"/>
  <path class="cls-1" d="m432.41,281.39c13.72,0,24.88,11.16,24.88,24.88s-11.16,24.88-24.88,24.88-24.88-11.16-24.88-24.88,11.16-24.88,24.88-24.88m0-34.98c-33.06,0-59.86,26.8-59.86,59.86s26.8,59.86,59.86,59.86,59.86-26.8,59.86-59.86-26.8-59.86-59.86-59.86h0Z"/>
  <g>
    <path class="cls-1" d="m177.81,747.85c0-5.3,4.35-9.6,9.6-9.6h9.6v9.55c0,3,2.45,5.4,5.4,5.4l.75,2.15-.75,2.1c-3.05,0-5.7-1.5-7.4-3.7-1.75,2.25-4.5,3.7-7.6,3.7-5.25,0-9.6-4.3-9.6-9.6Zm9.6,5.35c3,0,5.35-2.4,5.35-5.35v-5.35h-5.35c-2.95,0-5.35,2.35-5.35,5.35s2.4,5.35,5.35,5.35Z"/>
    <path class="cls-1" d="m201.66,755.35l.75-2.15h18.4v-5.35c0-3-2.4-5.35-5.35-5.35h-8.8l1-4.25h7.8c5.3,0,9.65,4.25,9.65,9.6v9.6h-22.7l-.75-2.1Zm10.4,6.95h4.4v3.85h-4.4v-3.85Z"/>
    <path class="cls-1" d="m227.11,764.55l4.15-2.7v-21.75l4.3-1.1v25.1l-6.05,4.05-2.4-3.6Z"/>
    <path class="cls-1" d="m239.91,753.2h11.25v-5.35c0-3-2.4-5.35-5.4-5.35h-4.6v-4.25h4.6c5.35,0,9.6,4.25,9.6,9.6v9.6h-15.45v-4.25Z"/>
    <path class="cls-1" d="m304.71,753.8c-1.75,2.2-4.5,3.65-7.55,3.65h-22.35c-5.3,0-9.65-4.3-9.65-9.6v-7.8l4.3-1.05v8.85c0,2.95,2.4,5.35,5.35,5.35h22.35c2.95,0,5.35-2.4,5.35-5.35v-7.8l4.3-1.05v8.85c.05,2.95,2.3,5.35,5.25,5.35l.75,2.15-.75,2.1c-3,0-5.7-1.5-7.35-3.65Zm-23.85-14.05h10.35v3.65h-10.35v-3.65Z"/>
    <path class="cls-1" d="m311.31,755.3l.75-2.1h3.35v-13.95l4.25-1.1v9.8l9.05-9.7h8.8c5.3,0,9.6,4.25,9.6,9.6,0,2-.6,3.8-1.65,5.35h3.85l.75,2.1-.75,2.15h-37.25l-.75-2.15Zm26.2-2.1c2.95,0,5.35-2.4,5.35-5.35s-2.4-5.35-5.35-5.35l-7.25-.05-10,10.75h17.25Z"/>
    <path class="cls-1" d="m349.21,757.45l-.65-2.1.7-2.15h.05c2.95,0,5.35-2.4,5.35-5.35v-7.15h4.25v8.35c0,2.25,1.9,4.15,4.15,4.15s4.2-1.9,4.2-4.15v-8.35h4.25v8.35c0,2.25,1.9,4.15,4.15,4.15s4.2-1.9,4.2-4.15v-8.8l4.25-1.05v9.8c0,4.65-3.75,8.45-8.45,8.45-2.35,0-4.85-1.55-6.25-3-1.5,1.8-3.75,3-6.35,3s-5.3-1.8-6.55-3.35c-1.75,2.05-4.3,3.35-7.2,3.35h-.1Zm15.2-26.55h6.5v-4.7l3.95,1.15v7.15h-10.45v-3.6Z"/>
    <path class="cls-1" d="m396.71,764.6l10.8-7.15h-4.85c-4.65,0-9.25-4.4-9.25-9.6s4.3-9.65,9.6-9.65h9.65v20.9l-13.55,9.05-2.4-3.55Zm6.3-11.4h5.4v-10.75h-5.4c-2.95,0-5.35,2.4-5.35,5.35s2.4,5.4,5.35,5.4Z"/>
    <path class="cls-1" d="m421.16,753.2h11.25v-5.35c0-3-2.4-5.35-5.4-5.35h-4.6v-4.25h4.6c5.35,0,9.6,4.25,9.6,9.6v5.35h2.65l.75,2.1-.75,2.15h-18.1v-4.25Z"/>
    <path class="cls-1" d="m438.51,755.3l.75-2.1h3.35v-13.95l4.25-1.1v9.8l9.05-9.7h8.8c5.3,0,9.6,4.25,9.6,9.6,0,2-.6,3.8-1.65,5.35h3.85l.75,2.1-.75,2.15h-37.25l-.75-2.15Zm26.2-2.1c2.95,0,5.35-2.4,5.35-5.35s-2.4-5.35-5.35-5.35l-7.25-.05-10,10.75h17.25Z"/>
    <path class="cls-1" d="m471.91,762.4h10.35v3.7h-10.35v-3.7Zm4.55-4.95l-.7-2.1.7-2.15h.05c2.95,0,5.35-2.4,5.35-5.35v-7.8l4.25-1.05v8.85c0,2.95,2.4,5.35,5.35,5.35l.75,2.15-.75,2.1c-3.1,0-5.85-1.55-7.5-3.8-1.65,2.25-4.35,3.8-7.45,3.8h-.05Z"/>
    <path class="cls-1" d="m490.71,755.35l.75-2.15h4c2.95,0,5.4-2.4,5.4-5.35v-7.15h4.2v8.35c0,2.25,1.9,4.15,4.2,4.15s4.15-1.9,4.15-4.15v-8.35h4.3v8.35c0,2.25,1.85,4.15,4.15,4.15s4.2-1.9,4.2-4.15v-8.8l4.2-1.05v9.8c0,4.65-3.75,8.45-8.4,8.45-2.4,0-4.85-1.5-6.3-3-1.45,1.8-3.75,3-6.3,3s-5.3-1.8-6.55-3.35c-1.75,2-4.3,3.35-7.25,3.35h-4l-.75-2.1Z"/>
    <path class="cls-1" d="m540.06,760.25v-10.2l4.3-1.05v11.25c0,2.95,2.4,5.35,5.35,5.35h12.35c3,0,5.4-2.4,5.4-5.35v-2.8h-15v-9.6c0-5.35,4.35-9.65,9.6-9.65h9.65v4.3h-9.65c-2.9,0-5.3,2.35-5.3,5.35v5.35h14.95v7.05c0,5.35-4.3,9.6-9.65,9.6h-12.35c-5.3,0-9.65-4.25-9.65-9.6Z"/>
    <path class="cls-1" d="m576.86,747.85v-20.6l4.25-1.05v21.65c0,2.95,2.4,5.35,5.35,5.35l.75,2.15-.75,2.1c-5.3,0-9.6-4.35-9.6-9.6Z"/>
    <path class="cls-1" d="m585.71,755.35l.75-2.15h4.6c-1.3-1.4-2.05-3.25-2.05-5.35s.75-3.95,2.05-5.35h-2.15v-4.25h22.75c5.3,0,9.6,4.3,9.6,9.6s-4.3,9.6-9.6,9.6h-25.2l-.75-2.1Zm12.9-2.15c2.95,0,5.35-2.4,5.35-5.35s-2.4-5.35-5.35-5.35-5.35,2.35-5.35,5.35,2.4,5.35,5.35,5.35Zm13.05,0c2.9,0,5.35-2.4,5.35-5.35s-2.45-5.35-5.35-5.35h-5.5c1.25,1.4,2.05,3.3,2.05,5.35s-.8,3.95-2.05,5.35h5.5Z"/>
    <path class="cls-1" d="m629.91,764.55l4.15-2.7v-21.75l4.3-1.1v25.1l-6.05,4.05-2.4-3.6Z"/>
    <path class="cls-1" d="m644.11,727.25l4.3-1.05v31.25h-4.3v-30.2Z"/>
    <path class="cls-1" d="m651.61,764.55l4.15-2.7v-21.75l4.3-1.1v8.85c0,2.95,2.4,5.35,5.3,5.35l.75,2.15-.75,2.1c-1.95,0-3.85-1-5.3-2.5v9.15l-6.05,4.05-2.4-3.6Zm4.1-34.5h4.4v3.85h-4.4v-3.85Z"/>
    <path class="cls-1" d="m664.56,755.35l.75-2.15h4c2.95,0,5.4-2.4,5.4-5.35v-7.8l4.2-1.05v8.85c0,5.3-4.3,9.6-9.6,9.6h-4l-.75-2.1Zm4.3,7.1h4.4v3.85h-4.4v-3.85Z"/>
    <path class="cls-1" d="m684.01,727.25l4.3-1.05v31.25h-4.3v-30.2Z"/>
  </g>
  <polygon class="cls-1" points="517.63 450.55 347.19 450.55 347.19 621 517.63 621 517.63 450.55 517.63 450.55"/>
</svg>