<svg width="66" height="71" viewBox="0 0 66 71" fill="none" xmlns="http://www.w3.org/2000/svg">
<g filter="url(#filter0_dd_4616_7050)">
<path d="M11 7.88574C11 5.6766 12.7909 3.88574 15 3.88574H51C53.2091 3.88574 55 5.6766 55 7.88574V43.8857C55 46.0949 53.2091 47.8857 51 47.8857H15C12.7909 47.8857 11 46.0949 11 43.8857V7.88574Z" fill="#F5F5F7" shape-rendering="crispEdges"/>
<path d="M39.6667 26.8907H37.4444M39.6667 21.3352H30.7778M39.6667 30.2191H37.4444M31.002 34.6635H39.4425C40.6881 34.6635 41.3109 34.6635 41.7843 34.4194C42.2028 34.2051 42.5416 33.8663 42.7559 33.4478C43 32.9744 43 32.3516 43 31.106V20.4433C43 19.1977 43 18.5748 42.7559 18.1015C42.5416 17.683 42.2028 17.3441 41.7843 17.1299C41.3109 16.8857 40.6881 16.8857 39.4425 16.8857H31.002C29.7564 16.8857 29.1335 16.8857 28.6602 17.1299C28.2417 17.3441 27.9028 17.683 27.6886 18.1015C27.4444 18.5748 27.4444 19.1977 27.4444 20.4433V31.106C27.4444 32.3516 27.4444 32.9744 27.6886 33.4478C27.9028 33.8663 28.2417 34.2051 28.6602 34.4194C29.1335 34.6635 29.7564 34.6635 31.002 34.6635ZM34.1111 28.5549C34.1111 29.4767 33.3637 30.2191 32.4469 30.2191C31.5301 30.2191 30.7828 29.4717 30.7828 28.5549C30.7828 27.6381 31.5301 26.8907 32.4469 26.8907C33.3637 26.8907 34.1111 27.6381 34.1111 28.5549ZM25.2222 34.6635C23.9965 34.6635 23 33.667 23 32.4413V19.1129C23 17.8872 23.9965 16.8907 25.2222 16.8907C26.4479 16.8907 27.4444 17.8872 27.4444 19.1129V32.4413C27.4444 33.667 26.4479 34.6635 25.2222 34.6635Z" stroke="#333336" stroke-width="1.4" stroke-linecap="round" stroke-linejoin="round"/>
</g>
<path d="M15.5742 57.1377L16.3945 57.9521L15.5742 58.7783L14.7598 57.9521L15.5742 57.1377ZM13.6289 57.1377L14.4492 57.9521L13.6289 58.7783L12.8145 57.9521L13.6289 57.1377ZM18.1465 59.4229L19.125 59.3057L19.2246 60.6768C19.248 61.0479 19.3535 61.3311 19.541 61.5264C19.7324 61.7217 20.0176 61.8193 20.3965 61.8193H20.5371V62.8857H20.3965C19.9551 62.8857 19.5918 62.8037 19.3066 62.6396C19.0254 62.4717 18.793 62.2041 18.6094 61.8369C18.2852 62.2119 17.8691 62.4814 17.3613 62.6455C16.8574 62.8057 16.1562 62.8857 15.2578 62.8857H14.2793C13.541 62.8857 12.8945 62.8389 12.3398 62.7451C11.7891 62.6514 11.3281 62.501 10.957 62.2939C10.5898 62.083 10.3125 61.8076 10.125 61.4678C9.94141 61.1279 9.84961 60.7119 9.84961 60.2197C9.84961 59.9502 9.87891 59.6865 9.9375 59.4287C10 59.1709 10.0801 58.9229 10.1777 58.6846L11.0859 59.0244C11.0234 59.1963 10.9707 59.3799 10.9277 59.5752C10.8887 59.7705 10.8691 59.9561 10.8691 60.1318C10.8691 60.4756 10.9414 60.7568 11.0859 60.9756C11.2305 61.1943 11.4434 61.3662 11.7246 61.4912C12.0098 61.6123 12.3652 61.6982 12.791 61.749C13.2168 61.7959 13.7129 61.8193 14.2793 61.8193H15.2578C15.8789 61.8193 16.4082 61.7783 16.8457 61.6963C17.2871 61.6104 17.623 61.4697 17.8535 61.2744C18.084 61.0752 18.1992 60.8037 18.1992 60.46C18.1992 60.2998 18.1934 60.1279 18.1816 59.9443C18.1738 59.7607 18.1621 59.5869 18.1465 59.4229ZM20.3027 61.8193H20.584V62.8857H20.3027V61.8193ZM21.5098 63.7822L22.3594 64.6318L21.5098 65.4814L20.6602 64.6318L21.5098 63.7822ZM21.3809 62.8857H20.4258V61.8193H21.3691C21.7598 61.8193 22.0234 61.7061 22.1602 61.4795C22.3008 61.2529 22.3711 60.9658 22.3711 60.6182C22.3711 60.3643 22.3477 60.0928 22.3008 59.8037C22.2539 59.5146 22.2031 59.2236 22.1484 58.9307L23.168 58.6729C23.2344 58.9854 23.2871 59.292 23.3262 59.5928C23.3652 59.8936 23.3848 60.1807 23.3848 60.4541C23.3848 60.9229 23.3203 61.3408 23.1914 61.708C23.0625 62.0752 22.8516 62.3643 22.5586 62.5752C22.2656 62.7822 21.873 62.8857 21.3809 62.8857ZM24.8613 54.8174H25.8516V60.4189C25.8516 60.9697 25.9531 61.3408 26.1562 61.5322C26.3594 61.7236 26.666 61.8193 27.0762 61.8193H27.2227V62.8857H27.0762C26.3301 62.8857 25.7734 62.6885 25.4062 62.2939C25.043 61.8955 24.8613 61.2686 24.8613 60.4131V54.8174ZM26.9883 61.8193H27.6738V62.8857H26.9883V61.8193ZM28.8867 54.7002L29.6777 55.4912L28.8867 56.2822L28.0957 55.4912L28.8867 54.7002ZM29.8887 56.1826L30.6797 56.9736L29.8887 57.7646L29.0977 56.9736L29.8887 56.1826ZM27.8848 56.1826L28.6758 56.9736L27.8848 57.7646L27.0938 56.9736L27.8848 56.1826ZM28.4941 62.8857H27.5391V61.8193H28.4824C28.873 61.8193 29.1367 61.7061 29.2734 61.4795C29.4141 61.2529 29.4844 60.9658 29.4844 60.6182C29.4844 60.3643 29.4609 60.0928 29.4141 59.8037C29.3672 59.5146 29.3164 59.2236 29.2617 58.9307L30.2812 58.6729C30.3477 58.9854 30.4004 59.292 30.4395 59.5928C30.4785 59.8936 30.498 60.1807 30.498 60.4541C30.498 60.9229 30.4336 61.3408 30.3047 61.708C30.1758 62.0752 29.9648 62.3643 29.6719 62.5752C29.3789 62.7822 28.9863 62.8857 28.4941 62.8857ZM38.2734 58.3564L39.123 59.2061L38.2734 60.0557L37.4238 59.2061L38.2734 58.3564ZM38.3379 64.8486C38.9902 64.8486 39.4941 64.7412 39.8496 64.5264C40.209 64.3154 40.459 64.0361 40.5996 63.6885C40.7441 63.3447 40.8164 62.9756 40.8164 62.5811C40.8164 62.1162 40.7539 61.6572 40.6289 61.2041C40.5039 60.751 40.3867 60.3799 40.2773 60.0908L41.2793 59.6865L41.7129 61.0576C41.791 61.3076 41.918 61.4971 42.0938 61.626C42.2734 61.7549 42.5234 61.8193 42.8438 61.8193H43.0723V62.8857H42.8672C42.5938 62.8857 42.3848 62.8604 42.2402 62.8096C42.0996 62.7588 41.9668 62.6729 41.8418 62.5518C41.8379 63.2041 41.7129 63.7822 41.4668 64.2861C41.2207 64.7939 40.8398 65.1904 40.3242 65.4756C39.8125 65.7607 39.1504 65.9033 38.3379 65.9033C37.4941 65.9033 36.8184 65.749 36.3105 65.4404C35.8066 65.1318 35.4414 64.7197 35.2148 64.2041C34.9922 63.6924 34.8809 63.1299 34.8809 62.5166C34.8809 62.1025 34.9238 61.6787 35.0098 61.2451C35.0957 60.8076 35.2129 60.3818 35.3613 59.9678L36.293 60.3428C36.1797 60.7021 36.084 61.0713 36.0059 61.4502C35.9277 61.8291 35.8887 62.1963 35.8887 62.5518C35.8887 62.9736 35.9629 63.3584 36.1113 63.7061C36.2637 64.0537 36.5176 64.3311 36.873 64.5381C37.2285 64.7451 37.7168 64.8486 38.3379 64.8486ZM46.0781 55.3857L46.9277 56.2354L46.0781 57.085L45.2285 56.2354L46.0781 55.3857ZM46.1191 59.0361C45.9707 59.0361 45.8145 59.0928 45.6504 59.2061C45.4902 59.3154 45.3535 59.4541 45.2402 59.6221C45.1309 59.79 45.0762 59.9619 45.0762 60.1377C45.0762 60.3174 45.1289 60.501 45.2344 60.6885C45.3398 60.876 45.4727 61.0479 45.6328 61.2041C45.7969 61.3604 45.9629 61.4814 46.1309 61.5674C46.3301 61.4814 46.5098 61.3623 46.6699 61.21C46.834 61.0537 46.9629 60.8799 47.0566 60.6885C47.1543 60.4971 47.2031 60.3096 47.2031 60.126C47.2031 59.9619 47.1445 59.7959 47.0273 59.6279C46.9141 59.46 46.7734 59.3193 46.6055 59.2061C46.4375 59.0928 46.2754 59.0361 46.1191 59.0361ZM48.1992 60.126C48.1992 60.333 48.168 60.5283 48.1055 60.7119C48.043 60.8955 47.9551 61.0771 47.8418 61.2568C47.7285 61.4326 47.5918 61.6123 47.4316 61.7959C47.5801 61.8037 47.7168 61.8096 47.8418 61.8135C47.9668 61.8174 48.082 61.8193 48.1875 61.8193C48.293 61.8193 48.3906 61.8193 48.4805 61.8193H49.0488V62.8857H48.498C48.3496 62.8857 48.1445 62.874 47.8828 62.8506C47.625 62.8232 47.3398 62.7783 47.0273 62.7158C46.7188 62.6533 46.4141 62.5693 46.1133 62.4639C45.8125 62.5732 45.5039 62.6592 45.1875 62.7217C44.8711 62.7803 44.5781 62.8232 44.3086 62.8506C44.0391 62.874 43.8242 62.8857 43.6641 62.8857H42.8438V61.8193H43.6641C43.7734 61.8193 43.8848 61.8193 43.998 61.8193C44.1113 61.8193 44.2344 61.8174 44.3672 61.8135C44.5039 61.8057 44.6562 61.7979 44.8242 61.79C44.668 61.6064 44.5332 61.4268 44.4199 61.251C44.3105 61.0713 44.2246 60.8877 44.1621 60.7002C44.1035 60.5127 44.0742 60.3174 44.0742 60.1143C44.0742 59.8721 44.1309 59.6279 44.2441 59.3818C44.3574 59.1357 44.5098 58.9072 44.7012 58.6963C44.8926 58.4854 45.1113 58.3174 45.3574 58.1924C45.6035 58.0635 45.8574 57.999 46.1191 57.999C46.3926 57.999 46.6543 58.0635 46.9043 58.1924C47.1543 58.3174 47.375 58.4854 47.5664 58.6963C47.7617 58.9033 47.916 59.1318 48.0293 59.3818C48.1426 59.6318 48.1992 59.8799 48.1992 60.126ZM50.5078 60.3193V54.8174H51.498V60.3369C51.498 60.6221 51.5332 60.8779 51.6035 61.1045C51.6777 61.3271 51.8008 61.5029 51.9727 61.6318C52.1445 61.7568 52.3809 61.8193 52.6816 61.8193H52.8691V62.8857H52.6934C52.4004 62.8857 52.1484 62.8525 51.9375 62.7861C51.7305 62.7158 51.5527 62.6143 51.4043 62.4814C51.2598 62.3486 51.1367 62.1865 51.0352 61.9951C50.9062 62.1865 50.7754 62.3486 50.6426 62.4814C50.5137 62.6143 50.3477 62.7158 50.1445 62.7861C49.9453 62.8525 49.6719 62.8857 49.3242 62.8857H48.8203V61.8193H49.3125C49.6406 61.8193 49.8887 61.7549 50.0566 61.626C50.2285 61.4932 50.3457 61.3135 50.4082 61.0869C50.4746 60.8604 50.5078 60.6045 50.5078 60.3193ZM52.6406 61.8193H53.3262V62.8857H52.6406V61.8193ZM55.5117 56.0068L56.332 56.8213L55.5117 57.6475L54.6973 56.8213L55.5117 56.0068ZM53.5664 56.0068L54.3867 56.8213L53.5664 57.6475L52.752 56.8213L53.5664 56.0068ZM54.1465 62.8857H53.1914V61.8193H54.1348C54.5254 61.8193 54.7891 61.7061 54.9258 61.4795C55.0664 61.2529 55.1367 60.9658 55.1367 60.6182C55.1367 60.3643 55.1133 60.0928 55.0664 59.8037C55.0195 59.5146 54.9688 59.2236 54.9141 58.9307L55.9336 58.6729C56 58.9854 56.0527 59.292 56.0918 59.5928C56.1309 59.8936 56.1504 60.1807 56.1504 60.4541C56.1504 60.9229 56.0859 61.3408 55.957 61.708C55.8281 62.0752 55.6172 62.3643 55.3242 62.5752C55.0312 62.7822 54.6387 62.8857 54.1465 62.8857Z" fill="#333336"/>
<defs>
<filter id="filter0_dd_4616_7050" x="7" y="0.885742" width="52" height="52" filterUnits="userSpaceOnUse" color-interpolation-filters="sRGB">
<feFlood flood-opacity="0" result="BackgroundImageFix"/>
<feColorMatrix in="SourceAlpha" type="matrix" values="0 0 0 0 0 0 0 0 0 0 0 0 0 0 0 0 0 0 127 0" result="hardAlpha"/>
<feOffset dy="1"/>
<feGaussianBlur stdDeviation="2"/>
<feComposite in2="hardAlpha" operator="out"/>
<feColorMatrix type="matrix" values="0 0 0 0 0.0470588 0 0 0 0 0.0470588 0 0 0 0 0.0509804 0 0 0 0.05 0"/>
<feBlend mode="normal" in2="BackgroundImageFix" result="effect1_dropShadow_4616_7050"/>
<feColorMatrix in="SourceAlpha" type="matrix" values="0 0 0 0 0 0 0 0 0 0 0 0 0 0 0 0 0 0 127 0" result="hardAlpha"/>
<feOffset dy="1"/>
<feGaussianBlur stdDeviation="2"/>
<feComposite in2="hardAlpha" operator="out"/>
<feColorMatrix type="matrix" values="0 0 0 0 0.0470588 0 0 0 0 0.0470588 0 0 0 0 0.0509804 0 0 0 0.1 0"/>
<feBlend mode="normal" in2="effect1_dropShadow_4616_7050" result="effect2_dropShadow_4616_7050"/>
<feBlend mode="normal" in="SourceGraphic" in2="effect2_dropShadow_4616_7050" result="shape"/>
</filter>
</defs>
</svg>
