<svg width="24" height="25" viewBox="0 0 24 25" fill="none" xmlns="http://www.w3.org/2000/svg">
<g id="Instagram">
<path id="Icon" d="M17.5 7.38574H17.51M7 2.88574H17C19.7614 2.88574 22 5.12432 22 7.88574V17.8857C22 20.6472 19.7614 22.8857 17 22.8857H7C4.23858 22.8857 2 20.6472 2 17.8857V7.88574C2 5.12432 4.23858 2.88574 7 2.88574ZM16 12.2557C16.1234 13.088 15.9813 13.938 15.5938 14.6848C15.2063 15.4316 14.5931 16.0372 13.8416 16.4154C13.0901 16.7937 12.2384 16.9253 11.4078 16.7917C10.5771 16.658 9.80976 16.2658 9.21484 15.6709C8.61992 15.076 8.22773 14.3086 8.09407 13.478C7.9604 12.6473 8.09207 11.7956 8.47033 11.0441C8.84859 10.2926 9.45419 9.67948 10.201 9.29198C10.9478 8.90448 11.7978 8.76233 12.63 8.88574C13.4789 9.01163 14.2649 9.40721 14.8717 10.014C15.4785 10.6209 15.8741 11.4068 16 12.2557Z" stroke="#333336" stroke-width="2" stroke-linecap="round" stroke-linejoin="round"/>
</g>
</svg>
