<svg width="49" height="48" viewBox="0 0 49 48" fill="none" xmlns="http://www.w3.org/2000/svg">
<path d="M39.1667 26.011H34.2778M39.1667 13.7887H19.6111M39.1667 33.3333H34.2778M20.1044 43.1111H38.6734C41.4138 43.1111 42.784 43.1111 43.8254 42.574C44.7461 42.1026 45.4915 41.3573 45.9629 40.4365C46.5 39.3951 46.5 38.0249 46.5 35.2845V11.8266C46.5 9.0862 46.5 7.71599 45.9629 6.67464C45.4915 5.75386 44.7461 5.00847 43.8254 4.53712C42.784 4 41.4138 4 38.6734 4H20.1044C17.364 4 15.9938 4 14.9524 4.53712C14.0316 5.00847 13.2862 5.75386 12.8149 6.67464C12.2778 7.71599 12.2778 9.0862 12.2778 11.8266V35.2845C12.2778 38.0249 12.2778 39.3951 12.8149 40.4365C13.2862 41.3573 14.0316 42.1026 14.9524 42.574C15.9938 43.1111 17.364 43.1111 20.1044 43.1111ZM26.9444 29.6721C26.9444 31.7001 25.3002 33.3333 23.2833 33.3333C21.2663 33.3333 19.6221 31.6891 19.6221 29.6721C19.6221 27.6552 21.2663 26.011 23.2833 26.011C25.3002 26.011 26.9444 27.6552 26.9444 29.6721ZM7.38889 43.1111C4.69233 43.1111 2.5 40.9188 2.5 38.2222V8.89985C2.5 6.20329 4.69233 4.01096 7.38889 4.01096C10.0855 4.01096 12.2778 6.20329 12.2778 8.89985V38.2222C12.2778 40.9188 10.0855 43.1111 7.38889 43.1111Z" stroke="#484849" stroke-width="3" stroke-linecap="round" stroke-linejoin="round"/>
</svg>
