<svg width="430" height="430" viewBox="0 0 430 430" fill="none" xmlns="http://www.w3.org/2000/svg">
<path d="M215.159 44.3455L204.895 61.9421L194.63 79.5387L215.003 79.6297L235.37 79.7208L225.267 62.0331L215.159 44.3455Z" fill="#333336"/>
<path d="M233.14 280.99H196.86V317.27H233.14V280.99Z" fill="#333336"/>
<path d="M215.002 155.189C228.878 155.189 240.169 166.48 240.169 180.355C240.169 194.231 228.878 205.522 215.002 205.522C201.127 205.522 189.836 194.231 189.836 180.355C189.836 166.48 201.127 155.189 215.002 155.189ZM215.002 119.814C181.569 119.814 154.461 146.917 154.461 180.355C154.461 213.794 181.564 240.897 215.002 240.897C248.441 240.897 275.544 213.794 275.544 180.355C275.544 146.917 248.441 119.814 215.002 119.814Z" fill="#333336"/>
<path d="M99.2085 381.539C99.2085 378.859 101.408 376.684 104.063 376.684H108.917V381.513C108.917 383.03 110.156 384.244 111.647 384.244L112.027 385.331L111.647 386.393C110.105 386.393 108.765 385.634 107.906 384.522C107.021 385.66 105.63 386.393 104.063 386.393C101.408 386.393 99.2085 384.219 99.2085 381.539ZM104.063 384.244C105.58 384.244 106.768 383.03 106.768 381.539V378.833H104.063C102.571 378.833 101.358 380.022 101.358 381.539C101.358 383.056 102.571 384.244 104.063 384.244Z" fill="#333336"/>
<path d="M111.268 385.331L111.648 384.244H120.952V381.539C120.952 380.022 119.738 378.833 118.246 378.833H113.797L114.302 376.684H118.246C120.926 376.684 123.126 378.833 123.126 381.539V386.393H111.648L111.268 385.331ZM116.527 388.845H118.752V390.792H116.527V388.845Z" fill="#333336"/>
<path d="M124.137 389.983L126.235 388.618V377.62L128.41 377.063V389.755L125.351 391.803L124.137 389.983Z" fill="#333336"/>
<path d="M130.609 384.244H136.298V381.539C136.298 380.022 135.084 378.833 133.567 378.833H131.241V376.684H133.567C136.273 376.684 138.422 378.833 138.422 381.539V386.393H130.609V384.244Z" fill="#333336"/>
<path d="M163.375 384.547C162.491 385.66 161.1 386.393 159.558 386.393H148.256C145.577 386.393 143.377 384.218 143.377 381.538V377.594L145.551 377.063V381.538C145.551 383.03 146.765 384.244 148.256 384.244H159.558C161.049 384.244 162.263 383.03 162.263 381.538V377.594L164.437 377.063V381.538C164.463 383.03 165.6 384.244 167.092 384.244L167.471 385.331L167.092 386.393C165.575 386.393 164.21 385.634 163.375 384.547ZM151.316 377.443H156.549V379.288H151.316V377.443Z" fill="#333336"/>
<path d="M166.713 385.306L167.092 384.244H168.786V377.19L170.935 376.634V381.589L175.511 376.684H179.961C182.641 376.684 184.815 378.833 184.815 381.539C184.815 382.55 184.512 383.46 183.981 384.244H185.928L186.307 385.306L185.928 386.393H167.092L166.713 385.306ZM179.961 384.244C181.453 384.244 182.666 383.03 182.666 381.539C182.666 380.047 181.453 378.833 179.961 378.833L176.295 378.808L171.238 384.244H179.961Z" fill="#333336"/>
<path d="M185.877 386.393L185.548 385.331L185.902 384.244H185.928C187.419 384.244 188.633 383.03 188.633 381.538V377.923H190.782V382.145C190.782 383.283 191.743 384.244 192.88 384.244C194.018 384.244 195.004 383.283 195.004 382.145V377.923H197.153V382.145C197.153 383.283 198.114 384.244 199.251 384.244C200.389 384.244 201.375 383.283 201.375 382.145V377.695L203.524 377.165V382.12C203.524 384.471 201.628 386.393 199.251 386.393C198.063 386.393 196.799 385.609 196.091 384.876C195.333 385.786 194.195 386.393 192.88 386.393C191.566 386.393 190.2 385.482 189.568 384.699C188.683 385.735 187.394 386.393 185.928 386.393H185.877ZM193.563 372.968H196.85V370.591L198.847 371.173V374.788H193.563V372.968Z" fill="#333336"/>
<path d="M209.895 390.008L215.356 386.393H212.904C210.553 386.393 208.227 384.168 208.227 381.538C208.227 378.909 210.401 376.659 213.081 376.659H217.961V387.227L211.109 391.803L209.895 390.008ZM213.081 384.244H215.812V378.808H213.081C211.589 378.808 210.376 380.021 210.376 381.513C210.376 383.005 211.589 384.244 213.081 384.244Z" fill="#333336"/>
<path d="M222.259 384.244H227.947V381.539C227.947 380.022 226.734 378.833 225.217 378.833H222.891V376.684H225.217C227.922 376.684 230.071 378.833 230.071 381.539V384.244H231.411L231.79 385.306L231.411 386.393H222.259V384.244Z" fill="#333336"/>
<path d="M231.031 385.306L231.411 384.244H233.105V377.19L235.254 376.634V381.589L239.83 376.684H244.28C246.959 376.684 249.134 378.833 249.134 381.539C249.134 382.55 248.83 383.46 248.299 384.244H250.246L250.625 385.306L250.246 386.393H231.411L231.031 385.306ZM244.28 384.244C245.771 384.244 246.985 383.03 246.985 381.539C246.985 380.047 245.771 378.833 244.28 378.833L240.614 378.808L235.557 384.244H244.28Z" fill="#333336"/>
<path d="M247.92 388.896H253.154V390.767H247.92V388.896ZM250.221 386.393L249.867 385.331L250.221 384.244H250.246C251.738 384.244 252.951 383.03 252.951 381.538V377.594L255.1 377.063V381.538C255.1 383.03 256.314 384.244 257.806 384.244L258.185 385.331L257.806 386.393C256.238 386.393 254.848 385.609 254.013 384.471C253.179 385.609 251.814 386.393 250.246 386.393H250.221Z" fill="#333336"/>
<path d="M257.427 385.331L257.806 384.244H259.828C261.32 384.244 262.559 383.03 262.559 381.538V377.923H264.683V382.145C264.683 383.283 265.643 384.244 266.806 384.244C267.969 384.244 268.905 383.283 268.905 382.145V377.923H271.079V382.145C271.079 383.283 272.015 384.244 273.178 384.244C274.341 384.244 275.301 383.283 275.301 382.145V377.695L277.425 377.165V382.12C277.425 384.471 275.529 386.393 273.178 386.393C271.964 386.393 270.725 385.634 269.992 384.876C269.259 385.786 268.096 386.393 266.806 386.393C265.517 386.393 264.126 385.482 263.494 384.699C262.609 385.71 261.32 386.393 259.828 386.393H257.806L257.427 385.331Z" fill="#333336"/>
<path d="M282.38 381.539C282.38 378.859 284.58 376.684 287.235 376.684H292.089V381.539C292.089 384.219 289.94 386.393 287.235 386.393C284.529 386.393 282.38 384.219 282.38 381.539ZM287.235 384.244C288.752 384.244 289.94 383.03 289.94 381.539V378.833H287.235C285.743 378.833 284.529 380.022 284.529 381.539C284.529 383.056 285.743 384.244 287.235 384.244Z" fill="#333336"/>
<path d="M295.704 390.008L301.165 386.393H298.713C296.362 386.393 294.036 384.168 294.036 381.538C294.036 378.909 296.21 376.659 298.89 376.659H303.769V387.227L296.918 391.803L295.704 390.008ZM298.89 384.244H301.62V378.808H298.89C297.398 378.808 296.185 380.021 296.185 381.513C296.185 383.005 297.398 384.244 298.89 384.244Z" fill="#333336"/>
<path d="M304.983 389.983L307.081 388.618V377.62L309.256 377.063V381.538C309.256 383.03 310.469 384.244 311.936 384.244L312.315 385.331L311.936 386.393C310.95 386.393 309.989 385.887 309.256 385.129V389.755L306.196 391.803L304.983 389.983Z" fill="#333336"/>
<path d="M311.531 385.331L311.91 384.244H326.827C328.319 384.244 329.532 383.03 329.532 381.539C329.532 380.047 328.319 378.833 326.827 378.833H313.2V376.659L322.63 370.819L323.818 372.538L317.093 376.684H326.827C329.532 376.684 331.706 378.833 331.706 381.539C331.706 384.244 329.532 386.393 326.827 386.393H311.91L311.531 385.331ZM321.164 368.619L321.669 369.453L316.638 372.563L316.132 371.729L321.164 368.619Z" fill="#333336"/>
</svg>
