<svg width="66" height="71" viewBox="0 0 66 71" fill="none" xmlns="http://www.w3.org/2000/svg">
<g filter="url(#filter0_dd_4616_7061)">
<path d="M11 7.88574C11 5.6766 12.7909 3.88574 15 3.88574H51C53.2091 3.88574 55 5.6766 55 7.88574V43.8857C55 46.0949 53.2091 47.8857 51 47.8857H15C12.7909 47.8857 11 46.0949 11 43.8857V7.88574Z" fill="#F5F5F7" shape-rendering="crispEdges"/>
<g clip-path="url(#clip0_4616_7061)">
<path d="M42 23.8857C42 30.8857 33 36.8857 33 36.8857C33 36.8857 24 30.8857 24 23.8857C24 21.4988 24.9482 19.2096 26.636 17.5218C28.3239 15.834 30.6131 14.8857 33 14.8857C35.3869 14.8857 37.6761 15.834 39.364 17.5218C41.0518 19.2096 42 21.4988 42 23.8857Z" stroke="#333336" stroke-width="2" stroke-linecap="round" stroke-linejoin="round"/>
<path d="M33 26.8857C34.6569 26.8857 36 25.5426 36 23.8857C36 22.2289 34.6569 20.8857 33 20.8857C31.3431 20.8857 30 22.2289 30 23.8857C30 25.5426 31.3431 26.8857 33 26.8857Z" stroke="#333336" stroke-width="2" stroke-linecap="round" stroke-linejoin="round"/>
</g>
</g>
<path d="M28.7402 62.8857C28.4785 62.8857 28.2539 62.8545 28.0664 62.792C27.8789 62.7256 27.7227 62.6455 27.5977 62.5518C27.5938 63.2041 27.4688 63.7822 27.2227 64.2861C26.9766 64.7939 26.5957 65.1904 26.0801 65.4756C25.5684 65.7607 24.9062 65.9033 24.0938 65.9033C23.25 65.9033 22.5742 65.749 22.0664 65.4404C21.5625 65.1318 21.1973 64.7197 20.9707 64.2041C20.748 63.6924 20.6367 63.1299 20.6367 62.5166C20.6367 62.1025 20.6797 61.6787 20.7656 61.2451C20.8516 60.8076 20.9688 60.3818 21.1172 59.9678L22.0488 60.3428C21.9355 60.7021 21.8398 61.0713 21.7617 61.4502C21.6836 61.8291 21.6445 62.1963 21.6445 62.5518C21.6445 62.9736 21.7188 63.3584 21.8672 63.7061C22.0195 64.0537 22.2734 64.3311 22.6289 64.5381C22.9844 64.7451 23.4727 64.8486 24.0938 64.8486C24.7461 64.8486 25.25 64.7412 25.6055 64.5264C25.9648 64.3154 26.2148 64.0361 26.3555 63.6885C26.5 63.3447 26.5723 62.9756 26.5723 62.5811C26.5723 62.1162 26.5098 61.6572 26.3848 61.2041C26.2598 60.751 26.1426 60.3799 26.0332 60.0908L27.0352 59.6865L27.3867 60.7939C27.4961 61.1338 27.6602 61.3896 27.8789 61.5615C28.0977 61.7334 28.3887 61.8193 28.752 61.8193C29.166 61.8193 29.4473 61.708 29.5957 61.4854C29.7441 61.2627 29.8184 60.9424 29.8184 60.5244C29.8184 60.4541 29.8164 60.3779 29.8125 60.2959C29.8086 60.2139 29.8027 60.1162 29.7949 60.0029C29.7871 59.8857 29.7754 59.7451 29.7598 59.5811L30.7383 59.458L30.832 60.6826C30.8516 60.999 30.9355 61.2686 31.084 61.4912C31.2324 61.71 31.4727 61.8193 31.8047 61.8193C32.0195 61.8193 32.1875 61.7646 32.3086 61.6553C32.4336 61.542 32.5215 61.3936 32.5723 61.21C32.627 61.0225 32.6543 60.8213 32.6543 60.6064C32.6543 60.4111 32.6406 60.2139 32.6133 60.0146C32.5859 59.8154 32.5547 59.6279 32.5195 59.4521C32.4844 59.2725 32.4512 59.1221 32.4199 59.001L33.4219 58.7314C33.4922 58.9932 33.5488 59.2725 33.5918 59.5693C33.6348 59.8623 33.6562 60.1553 33.6562 60.4482C33.6562 60.8701 33.5977 61.2666 33.4805 61.6377C33.3633 62.0088 33.1699 62.3096 32.9004 62.54C32.6348 62.7666 32.2715 62.8818 31.8105 62.8857C31.4355 62.8857 31.1328 62.8076 30.9023 62.6514C30.6719 62.4951 30.4844 62.2744 30.3398 61.9893C30.1211 62.3057 29.877 62.5342 29.6074 62.6748C29.3418 62.8154 29.0527 62.8857 28.7402 62.8857ZM33.5742 66.0381L33.2285 65.1064C33.8652 64.9697 34.373 64.7607 34.752 64.4795C35.1309 64.2021 35.4043 63.8682 35.5723 63.4775C35.7441 63.0869 35.8301 62.6553 35.8301 62.1826C35.8301 61.8506 35.793 61.5029 35.7188 61.1396C35.6484 60.7725 35.5488 60.3994 35.4199 60.0205L36.3926 59.6924C36.5293 60.083 36.6328 60.4736 36.7031 60.8643C36.7773 61.2549 36.8145 61.6357 36.8145 62.0068C36.8145 62.6592 36.6992 63.2627 36.4688 63.8174C36.2422 64.376 35.8887 64.8486 35.4082 65.2354C34.9316 65.626 34.3203 65.8936 33.5742 66.0381ZM39.3223 61.8311C39.8301 61.8311 40.25 61.7881 40.582 61.7021C40.9141 61.6123 41.1621 61.4814 41.3262 61.3096C41.4902 61.1377 41.5723 60.9229 41.5723 60.665C41.5723 60.4189 41.4902 60.165 41.3262 59.9033C41.1621 59.6416 40.9023 59.3682 40.5469 59.083C40.1914 58.7939 39.7246 58.4912 39.1465 58.1748L39.6094 57.249C40.1094 57.5068 40.5449 57.7705 40.916 58.04C41.291 58.3096 41.5996 58.5869 41.8418 58.8721C42.0879 59.1572 42.2715 59.4482 42.3926 59.7451C42.5137 60.0381 42.5742 60.3389 42.5742 60.6475C42.5742 61.1357 42.4629 61.5459 42.2402 61.8779C42.0176 62.21 41.6738 62.46 41.209 62.6279C40.7441 62.792 40.1445 62.874 39.4102 62.874C39.1562 62.874 38.9082 62.8623 38.666 62.8389C38.4277 62.8154 38.2031 62.7803 37.9922 62.7334V61.6729C38.2461 61.7236 38.4824 61.7627 38.7012 61.79C38.9238 61.8174 39.1309 61.8311 39.3223 61.8311ZM45.1289 54.085C45.1836 54.1123 45.2402 54.126 45.2988 54.126C45.3691 54.126 45.4473 54.0967 45.5332 54.0381C45.6191 53.9756 45.7363 53.8779 45.8848 53.7451L46.1836 53.4756L46.7168 53.9561L46.3887 54.2666C46.1816 54.4619 46 54.6064 45.8438 54.7002C45.6914 54.79 45.5371 54.835 45.3809 54.835C45.2324 54.835 45.0566 54.79 44.8535 54.7002L44.0977 54.3545C44.043 54.3311 43.9922 54.3115 43.9453 54.2959C43.8984 54.2803 43.8535 54.2725 43.8105 54.2725C43.7246 54.2725 43.627 54.3076 43.5176 54.3779C43.4082 54.4482 43.2617 54.5752 43.0781 54.7588L42.7441 55.0928L42.2109 54.6123L42.5508 54.2607C42.8047 53.999 43.0195 53.8154 43.1953 53.71C43.375 53.6006 43.5449 53.5459 43.7051 53.5459C43.8105 53.5459 43.916 53.5635 44.0215 53.5986C44.1309 53.6338 44.248 53.6807 44.373 53.7393L45.1289 54.085ZM45.041 55.5791V62.8799H44.0508V55.5791H45.041Z" fill="#333336"/>
<defs>
<filter id="filter0_dd_4616_7061" x="7" y="0.885742" width="52" height="52" filterUnits="userSpaceOnUse" color-interpolation-filters="sRGB">
<feFlood flood-opacity="0" result="BackgroundImageFix"/>
<feColorMatrix in="SourceAlpha" type="matrix" values="0 0 0 0 0 0 0 0 0 0 0 0 0 0 0 0 0 0 127 0" result="hardAlpha"/>
<feOffset dy="1"/>
<feGaussianBlur stdDeviation="2"/>
<feComposite in2="hardAlpha" operator="out"/>
<feColorMatrix type="matrix" values="0 0 0 0 0.0470588 0 0 0 0 0.0470588 0 0 0 0 0.0509804 0 0 0 0.05 0"/>
<feBlend mode="normal" in2="BackgroundImageFix" result="effect1_dropShadow_4616_7061"/>
<feColorMatrix in="SourceAlpha" type="matrix" values="0 0 0 0 0 0 0 0 0 0 0 0 0 0 0 0 0 0 127 0" result="hardAlpha"/>
<feOffset dy="1"/>
<feGaussianBlur stdDeviation="2"/>
<feComposite in2="hardAlpha" operator="out"/>
<feColorMatrix type="matrix" values="0 0 0 0 0.0470588 0 0 0 0 0.0470588 0 0 0 0 0.0509804 0 0 0 0.1 0"/>
<feBlend mode="normal" in2="effect1_dropShadow_4616_7061" result="effect2_dropShadow_4616_7061"/>
<feBlend mode="normal" in="SourceGraphic" in2="effect2_dropShadow_4616_7061" result="shape"/>
</filter>
<clipPath id="clip0_4616_7061">
<rect width="24" height="24" fill="white" transform="translate(21 13.8857)"/>
</clipPath>
</defs>
</svg>
