<svg width="66" height="71" viewBox="0 0 66 71" fill="none" xmlns="http://www.w3.org/2000/svg">
<g filter="url(#filter0_dd_4614_7066)">
<path d="M11 7.88574C11 5.6766 12.7909 3.88574 15 3.88574H51C53.2091 3.88574 55 5.6766 55 7.88574V43.8857C55 46.0949 53.2091 47.8857 51 47.8857H15C12.7909 47.8857 11 46.0949 11 43.8857V7.88574Z" fill="#F5F5F7" shape-rendering="crispEdges"/>
<path d="M43 19.8857C43 18.7857 42.1 17.8857 41 17.8857H25C23.9 17.8857 23 18.7857 23 19.8857M43 19.8857V31.8857C43 32.9857 42.1 33.8857 41 33.8857H25C23.9 33.8857 23 32.9857 23 31.8857V19.8857M43 19.8857L33 26.8857L23 19.8857" stroke="#333336" stroke-width="2" stroke-linecap="round" stroke-linejoin="round"/>
</g>
<path d="M23.5781 65.792C22.8516 65.792 22.2598 65.6611 21.8027 65.3994C21.3457 65.1416 21.0098 64.7803 20.7949 64.3154C20.5801 63.8506 20.4727 63.3115 20.4727 62.6982C20.4727 62.2842 20.5156 61.8604 20.6016 61.4268C20.6875 60.9893 20.8047 60.5635 20.9531 60.1494L21.8848 60.5244C21.7715 60.8838 21.6758 61.2529 21.5977 61.6318C21.5195 62.0107 21.4805 62.3779 21.4805 62.7334C21.4805 63.1553 21.5508 63.5146 21.6914 63.8115C21.832 64.1123 22.0547 64.3408 22.3594 64.4971C22.668 64.6572 23.0742 64.7373 23.5781 64.7373C24.043 64.7373 24.4316 64.6533 24.7441 64.4854C25.0566 64.3174 25.291 64.0537 25.4473 63.6943C25.6074 63.3389 25.6875 62.8779 25.6875 62.3115V54.8174H26.6777V60.4893C26.6777 60.9268 26.7578 61.2588 26.918 61.4854C27.082 61.708 27.4004 61.8193 27.873 61.8193H28.0488V62.8857H27.8848C27.541 62.8857 27.2949 62.8525 27.1465 62.7861C26.998 62.7158 26.8398 62.6006 26.6719 62.4404C26.6719 62.999 26.6055 63.4873 26.4727 63.9053C26.3398 64.3271 26.1426 64.6768 25.8809 64.9541C25.6191 65.2354 25.2949 65.4443 24.9082 65.5811C24.5254 65.7217 24.082 65.792 23.5781 65.792ZM27.8145 61.8193H28.6992V62.8857H27.8145V61.8193ZM30.3281 63.8174L31.1484 64.6318L30.3281 65.458L29.5137 64.6318L30.3281 63.8174ZM28.3828 63.8174L29.2031 64.6318L28.3828 65.458L27.5684 64.6318L28.3828 63.8174ZM30.4336 59.4229L31.4121 59.3057L31.5059 60.6768C31.5215 60.9268 31.5762 61.1377 31.6699 61.3096C31.7637 61.4775 31.8945 61.6045 32.0625 61.6904C32.2344 61.7764 32.4453 61.8193 32.6953 61.8193H32.8184V62.8857H32.6836C32.3945 62.8857 32.1445 62.8506 31.9336 62.7803C31.7227 62.71 31.543 62.6084 31.3945 62.4756C31.2461 62.3428 31.1191 62.1807 31.0137 61.9893C30.8027 62.2979 30.5254 62.5244 30.1816 62.6689C29.8379 62.8135 29.4785 62.8857 29.1035 62.8857H28.541V61.8193H29.1035C29.5996 61.8193 29.9531 61.708 30.1641 61.4854C30.3789 61.2627 30.4863 60.9209 30.4863 60.46C30.4863 60.2725 30.4805 60.0947 30.4688 59.9268C30.4609 59.7588 30.4492 59.5908 30.4336 59.4229ZM32.8418 62.8857H32.584V61.8193H32.8125C33.0742 61.8193 33.2949 61.7451 33.4746 61.5967C33.6543 61.4443 33.8145 61.249 33.9551 61.0107C34.0957 60.7725 34.2344 60.5205 34.3711 60.2549C34.5117 59.9854 34.668 59.7314 34.8398 59.4932C35.0117 59.2549 35.2188 59.0615 35.4609 58.9131C35.707 58.7607 36.0098 58.6846 36.3691 58.6846C36.7793 58.6846 37.127 58.7705 37.4121 58.9424C37.6973 59.1143 37.9277 59.3467 38.1035 59.6396C38.2793 59.9326 38.4062 60.2646 38.4844 60.6357C38.5391 60.8896 38.6172 61.1064 38.7188 61.2861C38.8203 61.4619 38.9414 61.5947 39.082 61.6846C39.2227 61.7744 39.377 61.8193 39.5449 61.8193H39.6973V62.8857H39.5391C39.2891 62.8857 39.0449 62.835 38.8066 62.7334C38.5684 62.6279 38.375 62.4619 38.2266 62.2354C38.0625 62.4736 37.8594 62.665 37.6172 62.8096C37.375 62.9502 37.0605 63.0205 36.6738 63.0205C36.4121 63.0205 36.166 62.9814 35.9355 62.9033C35.7051 62.8291 35.4785 62.7158 35.2559 62.5635C35.0332 62.4111 34.8027 62.2217 34.5645 61.9951C34.3965 62.1865 34.2344 62.3486 34.0781 62.4814C33.9219 62.6143 33.748 62.7158 33.5566 62.7861C33.3652 62.8525 33.127 62.8857 32.8418 62.8857ZM36.3926 59.7217C36.1973 59.7217 36.0195 59.7881 35.8594 59.9209C35.6992 60.0498 35.5547 60.2178 35.4258 60.4248C35.2969 60.6318 35.1816 60.8467 35.0801 61.0693C35.209 61.2021 35.3379 61.3213 35.4668 61.4268C35.5957 61.5322 35.7207 61.6221 35.8418 61.6963C36.002 61.7939 36.1504 61.8662 36.2871 61.9131C36.4277 61.96 36.5527 61.9834 36.6621 61.9834C36.9551 61.9834 37.1719 61.9092 37.3125 61.7607C37.457 61.6123 37.5293 61.3955 37.5293 61.1104C37.5293 60.7041 37.4277 60.3721 37.2246 60.1143C37.0254 59.8525 36.748 59.7217 36.3926 59.7217ZM39.4512 61.8193H39.9199V62.8857H39.4512V61.8193ZM41.5664 63.8174L42.3867 64.6318L41.5664 65.458L40.752 64.6318L41.5664 63.8174ZM39.6211 63.8174L40.4414 64.6318L39.6211 65.458L38.8066 64.6318L39.6211 63.8174ZM40.7344 62.8857H39.7793V61.8193H40.7227C41.1133 61.8193 41.377 61.7061 41.5137 61.4795C41.6543 61.2529 41.7246 60.9658 41.7246 60.6182C41.7246 60.3643 41.7012 60.0928 41.6543 59.8037C41.6074 59.5146 41.5566 59.2236 41.502 58.9307L42.5215 58.6729C42.5879 58.9854 42.6406 59.292 42.6797 59.5928C42.7188 59.8936 42.7383 60.1807 42.7383 60.4541C42.7383 60.9229 42.6738 61.3408 42.5449 61.708C42.416 62.0752 42.2051 62.3643 41.9121 62.5752C41.6191 62.7822 41.2266 62.8857 40.7344 62.8857ZM45.2051 54.8174V62.8799H44.2148V54.8174H45.2051Z" fill="#333336"/>
<defs>
<filter id="filter0_dd_4614_7066" x="7" y="0.885742" width="52" height="52" filterUnits="userSpaceOnUse" color-interpolation-filters="sRGB">
<feFlood flood-opacity="0" result="BackgroundImageFix"/>
<feColorMatrix in="SourceAlpha" type="matrix" values="0 0 0 0 0 0 0 0 0 0 0 0 0 0 0 0 0 0 127 0" result="hardAlpha"/>
<feOffset dy="1"/>
<feGaussianBlur stdDeviation="2"/>
<feComposite in2="hardAlpha" operator="out"/>
<feColorMatrix type="matrix" values="0 0 0 0 0.0470588 0 0 0 0 0.0470588 0 0 0 0 0.0509804 0 0 0 0.05 0"/>
<feBlend mode="normal" in2="BackgroundImageFix" result="effect1_dropShadow_4614_7066"/>
<feColorMatrix in="SourceAlpha" type="matrix" values="0 0 0 0 0 0 0 0 0 0 0 0 0 0 0 0 0 0 127 0" result="hardAlpha"/>
<feOffset dy="1"/>
<feGaussianBlur stdDeviation="2"/>
<feComposite in2="hardAlpha" operator="out"/>
<feColorMatrix type="matrix" values="0 0 0 0 0.0470588 0 0 0 0 0.0470588 0 0 0 0 0.0509804 0 0 0 0.1 0"/>
<feBlend mode="normal" in2="effect1_dropShadow_4614_7066" result="effect2_dropShadow_4614_7066"/>
<feBlend mode="normal" in="SourceGraphic" in2="effect2_dropShadow_4614_7066" result="shape"/>
</filter>
</defs>
</svg>
