<svg width="66" height="71" viewBox="0 0 66 71" fill="none" xmlns="http://www.w3.org/2000/svg">
<g filter="url(#filter0_dd_4616_7076)">
<path d="M11 7.88574C11 5.6766 12.7909 3.88574 15 3.88574H51C53.2091 3.88574 55 5.6766 55 7.88574V43.8857C55 46.0949 53.2091 47.8857 51 47.8857H15C12.7909 47.8857 11 46.0949 11 43.8857V7.88574Z" fill="#F5F5F7" shape-rendering="crispEdges"/>
<path d="M38.5 20.3857H38.51M28 15.8857H38C40.7614 15.8857 43 18.1243 43 20.8857V30.8857C43 33.6472 40.7614 35.8857 38 35.8857H28C25.2386 35.8857 23 33.6472 23 30.8857V20.8857C23 18.1243 25.2386 15.8857 28 15.8857ZM37 25.2557C37.1234 26.088 36.9813 26.938 36.5938 27.6848C36.2063 28.4316 35.5931 29.0372 34.8416 29.4154C34.0901 29.7937 33.2384 29.9253 32.4078 29.7917C31.5771 29.658 30.8098 29.2658 30.2148 28.6709C29.6199 28.076 29.2277 27.3086 29.0941 26.478C28.9604 25.6473 29.0921 24.7956 29.4703 24.0441C29.8486 23.2926 30.4542 22.6795 31.201 22.292C31.9478 21.9045 32.7978 21.7623 33.63 21.8857C34.4789 22.0116 35.2649 22.4072 35.8717 23.014C36.4785 23.6209 36.8741 24.4068 37 25.2557Z" stroke="#333336" stroke-width="2" stroke-linecap="round" stroke-linejoin="round"/>
</g>
<path d="M14.8066 61.1396C14.8066 60.8701 14.7578 60.6299 14.6602 60.4189C14.5625 60.2041 14.4277 60.0342 14.2559 59.9092C14.084 59.7842 13.8848 59.7217 13.6582 59.7217C13.4746 59.7217 13.3125 59.7666 13.1719 59.8564C13.0352 59.9424 12.9141 60.0615 12.8086 60.2139C12.707 60.3623 12.6152 60.5322 12.5332 60.7236C12.4551 60.915 12.3848 61.1143 12.3223 61.3213C12.6074 61.4463 12.8594 61.5537 13.0781 61.6436C13.2969 61.7334 13.4844 61.8037 13.6406 61.8545C13.8008 61.9014 13.9277 61.9248 14.0215 61.9248C14.2832 61.9248 14.4785 61.8545 14.6074 61.7139C14.7402 61.5693 14.8066 61.3779 14.8066 61.1396ZM11.3262 61.1338C11.4355 60.751 11.5605 60.4092 11.7012 60.1084C11.8418 59.8076 12.0039 59.5518 12.1875 59.3408C12.3711 59.126 12.582 58.9639 12.8203 58.8545C13.0586 58.7412 13.3301 58.6846 13.6348 58.6846C14.0488 58.6846 14.418 58.79 14.7422 59.001C15.0664 59.2119 15.3223 59.5029 15.5098 59.874C15.7012 60.2412 15.7969 60.665 15.7969 61.1455C15.7969 61.4971 15.7324 61.8115 15.6035 62.0889C15.4746 62.3623 15.2773 62.5791 15.0117 62.7393C14.75 62.8994 14.416 62.9795 14.0098 62.9795C13.7793 62.9795 13.5449 62.9424 13.3066 62.8682C13.0723 62.7939 12.8457 62.71 12.627 62.6162C12.4121 62.5186 12.2148 62.4326 12.0352 62.3584C11.8555 62.2842 11.7051 62.2471 11.584 62.2471C11.4199 62.2471 11.2871 62.2861 11.1855 62.3643C11.084 62.4424 11.0059 62.5713 10.9512 62.751C10.8965 62.9268 10.8594 63.165 10.8398 63.4658C10.8203 63.7705 10.8105 64.1475 10.8105 64.5967C10.8105 64.8623 10.8125 65.0986 10.8164 65.3057C10.8242 65.5166 10.834 65.7236 10.8457 65.9268C10.8613 66.1299 10.877 66.3604 10.8926 66.6182H9.88477C9.86523 66.2588 9.84961 65.9209 9.83789 65.6045C9.82617 65.292 9.82031 64.9756 9.82031 64.6553C9.82031 64.2178 9.83203 63.8018 9.85547 63.4072C9.88281 63.0127 9.94336 62.6572 10.0371 62.3408C10.1348 62.0205 10.2852 61.7568 10.4883 61.5498C10.6914 61.3389 10.9707 61.2002 11.3262 61.1338ZM18.2637 54.8174V62.8799H17.2734V54.8174H18.2637ZM22.9395 62.8857C22.6699 62.8857 22.4434 62.8506 22.2598 62.7803C22.0801 62.7061 21.9395 62.6279 21.8379 62.5459C21.7793 63.0576 21.6367 63.5518 21.4102 64.0283C21.1875 64.5088 20.8516 64.9268 20.4023 65.2822C19.9531 65.6377 19.3594 65.8877 18.6211 66.0322L18.2754 65.1064C18.9121 64.9697 19.4199 64.7607 19.7988 64.4795C20.1777 64.2021 20.4512 63.8682 20.6191 63.4775C20.791 63.0869 20.877 62.6553 20.877 62.1826C20.877 61.8506 20.8398 61.5029 20.7656 61.1396C20.6953 60.7725 20.5957 60.3994 20.4668 60.0205L21.4395 59.6924L21.7559 60.917C21.8418 61.2451 21.9785 61.4775 22.166 61.6143C22.3535 61.751 22.5898 61.8193 22.875 61.8193H23.0977V62.8857H22.9395ZM23.4668 55.79V55.1455L27.9199 53.3408V53.9854L23.4668 55.79ZM24.2754 57.2021C24.5488 57.3936 24.832 57.5928 25.125 57.7998C25.418 58.0068 25.7012 58.2236 25.9746 58.4502C26.248 58.6768 26.4941 58.917 26.7129 59.1709C26.9355 59.4209 27.1113 59.6846 27.2402 59.9619C27.3691 60.2393 27.4336 60.5303 27.4336 60.835C27.4336 61.3193 27.3223 61.7119 27.0996 62.0127C26.8809 62.3135 26.541 62.5342 26.0801 62.6748C25.6191 62.8154 25.0254 62.8857 24.2988 62.8857H22.8691V61.8193H24.293C24.8008 61.8193 25.209 61.792 25.5176 61.7373C25.8301 61.6787 26.0566 61.5771 26.1973 61.4326C26.3418 61.2842 26.4141 61.0771 26.4141 60.8115C26.4141 60.6045 26.3535 60.4014 26.2324 60.2021C26.1152 60.0029 25.9551 59.8076 25.752 59.6162C25.5527 59.4209 25.3301 59.2295 25.084 59.042C24.8379 58.8545 24.584 58.6689 24.3223 58.4854C24.0645 58.2979 23.8203 58.1123 23.5898 57.9287C23.4648 57.8271 23.3691 57.708 23.3027 57.5713C23.2363 57.4346 23.2031 57.2979 23.2031 57.1611C23.2031 57.001 23.2461 56.8506 23.332 56.71C23.4219 56.5654 23.5605 56.4561 23.748 56.3818L27.9609 54.6709V55.708L24.2754 57.2021ZM29.2148 54.8174H30.2051V60.4189C30.2051 60.9697 30.3066 61.3408 30.5098 61.5322C30.7129 61.7236 31.0195 61.8193 31.4297 61.8193H31.5762V62.8857H31.4297C30.6836 62.8857 30.127 62.6885 29.7598 62.2939C29.3965 61.8955 29.2148 61.2686 29.2148 60.4131V54.8174ZM31.3418 61.8193H32.0273V62.8857H31.3418V61.8193ZM34.2129 56.5459L35.0332 57.3604L34.2129 58.1865L33.3984 57.3604L34.2129 56.5459ZM32.2676 56.5459L33.0879 57.3604L32.2676 58.1865L31.4531 57.3604L32.2676 56.5459ZM33.7852 59.4229L34.7637 59.3057L34.8574 60.6768C34.873 60.9268 34.9277 61.1377 35.0215 61.3096C35.1152 61.4775 35.2461 61.6045 35.4141 61.6904C35.5859 61.7764 35.7969 61.8193 36.0469 61.8193H36.1699V62.8857H36.0352C35.7461 62.8857 35.4961 62.8506 35.2852 62.7803C35.0742 62.71 34.8945 62.6084 34.7461 62.4756C34.5977 62.3428 34.4707 62.1807 34.3652 61.9893C34.1543 62.2979 33.877 62.5244 33.5332 62.6689C33.1895 62.8135 32.8301 62.8857 32.4551 62.8857H31.8926V61.8193H32.4551C32.9512 61.8193 33.3047 61.708 33.5156 61.4854C33.7305 61.2627 33.8379 60.9209 33.8379 60.46C33.8379 60.2725 33.832 60.0947 33.8203 59.9268C33.8125 59.7588 33.8008 59.5908 33.7852 59.4229ZM43.0898 62.8857C42.7148 62.8857 42.4121 62.8076 42.1816 62.6514C41.9512 62.4951 41.7637 62.2744 41.6191 61.9893C41.4004 62.3057 41.1562 62.5342 40.8867 62.6748C40.6211 62.8154 40.332 62.8857 40.0195 62.8857C39.5703 62.8857 39.2227 62.8096 38.9766 62.6572C38.7344 62.501 38.541 62.2783 38.3965 61.9893C38.2129 62.2783 37.9785 62.501 37.6934 62.6572C37.4082 62.8096 37.002 62.8857 36.4746 62.8857H35.9355V61.8193H36.4863C36.8223 61.8193 37.0957 61.7803 37.3066 61.7021C37.5176 61.6201 37.6738 61.4854 37.7754 61.2979C37.877 61.1104 37.9277 60.8525 37.9277 60.5244C37.9277 60.4541 37.9258 60.3779 37.9219 60.2959C37.918 60.2139 37.9121 60.1162 37.9043 60.0029C37.8965 59.8857 37.8848 59.7451 37.8691 59.5811L38.8477 59.458L38.9414 60.6826C38.9648 61.0107 39.0645 61.2822 39.2402 61.4971C39.4199 61.7119 39.6836 61.8193 40.0312 61.8193C40.4453 61.8193 40.7266 61.708 40.875 61.4854C41.0234 61.2627 41.0977 60.9424 41.0977 60.5244C41.0977 60.4541 41.0957 60.3779 41.0918 60.2959C41.0879 60.2139 41.082 60.1162 41.0742 60.0029C41.0664 59.8857 41.0547 59.7451 41.0391 59.5811L42.0176 59.458L42.1113 60.6826C42.1309 60.999 42.2148 61.2686 42.3633 61.4912C42.5117 61.71 42.752 61.8193 43.084 61.8193C43.2793 61.8193 43.4395 61.7705 43.5645 61.6729C43.6934 61.5713 43.7891 61.4248 43.8516 61.2334C43.918 61.042 43.9512 60.8057 43.9512 60.5244C43.9512 60.3838 43.9453 60.2373 43.9336 60.085C43.9258 59.9326 43.9121 59.7314 43.8926 59.4814L44.8711 59.3643L44.9648 60.6826C44.9883 61.0576 45.0977 61.3408 45.293 61.5322C45.4922 61.7236 45.7695 61.8193 46.125 61.8193H46.3008V62.8857H46.1367C45.7266 62.8857 45.3848 62.8115 45.1113 62.6631C44.8379 62.5107 44.6504 62.2842 44.5488 61.9834C44.3848 62.2725 44.1953 62.4951 43.9805 62.6514C43.7695 62.8076 43.4727 62.8857 43.0898 62.8857ZM47.9648 59.4229L48.9434 59.3057L49.0371 60.6768C49.0527 60.9268 49.1074 61.1377 49.2012 61.3096C49.2949 61.4775 49.4258 61.6045 49.5938 61.6904C49.7656 61.7764 49.9766 61.8193 50.2266 61.8193H50.3496V62.8857H50.2148C49.9258 62.8857 49.6758 62.8506 49.4648 62.7803C49.2539 62.71 49.0742 62.6084 48.9258 62.4756C48.7773 62.3428 48.6504 62.1807 48.5449 61.9893C48.334 62.2979 48.0566 62.5244 47.7129 62.6689C47.3691 62.8135 47.0098 62.8857 46.6348 62.8857H46.0723V61.8193H46.6348C47.1309 61.8193 47.4844 61.708 47.6953 61.4854C47.9102 61.2627 48.0176 60.9209 48.0176 60.46C48.0176 60.2725 48.0117 60.0947 48 59.9268C47.9922 59.7588 47.9805 59.5908 47.9648 59.4229ZM48.0762 56.5049L48.9258 57.3545L48.0762 58.2041L47.2266 57.3545L48.0762 56.5049ZM50.1035 61.8193H50.5723V62.8857H50.1035V61.8193ZM52.2188 63.8174L53.0391 64.6318L52.2188 65.458L51.4043 64.6318L52.2188 63.8174ZM50.2734 63.8174L51.0938 64.6318L50.2734 65.458L49.459 64.6318L50.2734 63.8174ZM51.3867 62.8857H50.4316V61.8193H51.375C51.7656 61.8193 52.0293 61.7061 52.166 61.4795C52.3066 61.2529 52.377 60.9658 52.377 60.6182C52.377 60.3643 52.3535 60.0928 52.3066 59.8037C52.2598 59.5146 52.209 59.2236 52.1543 58.9307L53.1738 58.6729C53.2402 58.9854 53.293 59.292 53.332 59.5928C53.3711 59.8936 53.3906 60.1807 53.3906 60.4541C53.3906 60.9229 53.3262 61.3408 53.1973 61.708C53.0684 62.0752 52.8574 62.3643 52.5645 62.5752C52.2715 62.7822 51.8789 62.8857 51.3867 62.8857ZM55.8574 54.8174V62.8799H54.8672V54.8174H55.8574Z" fill="#333336"/>
<defs>
<filter id="filter0_dd_4616_7076" x="7" y="0.885742" width="52" height="52" filterUnits="userSpaceOnUse" color-interpolation-filters="sRGB">
<feFlood flood-opacity="0" result="BackgroundImageFix"/>
<feColorMatrix in="SourceAlpha" type="matrix" values="0 0 0 0 0 0 0 0 0 0 0 0 0 0 0 0 0 0 127 0" result="hardAlpha"/>
<feOffset dy="1"/>
<feGaussianBlur stdDeviation="2"/>
<feComposite in2="hardAlpha" operator="out"/>
<feColorMatrix type="matrix" values="0 0 0 0 0.0470588 0 0 0 0 0.0470588 0 0 0 0 0.0509804 0 0 0 0.05 0"/>
<feBlend mode="normal" in2="BackgroundImageFix" result="effect1_dropShadow_4616_7076"/>
<feColorMatrix in="SourceAlpha" type="matrix" values="0 0 0 0 0 0 0 0 0 0 0 0 0 0 0 0 0 0 127 0" result="hardAlpha"/>
<feOffset dy="1"/>
<feGaussianBlur stdDeviation="2"/>
<feComposite in2="hardAlpha" operator="out"/>
<feColorMatrix type="matrix" values="0 0 0 0 0.0470588 0 0 0 0 0.0470588 0 0 0 0 0.0509804 0 0 0 0.1 0"/>
<feBlend mode="normal" in2="effect1_dropShadow_4616_7076" result="effect2_dropShadow_4616_7076"/>
<feBlend mode="normal" in="SourceGraphic" in2="effect2_dropShadow_4616_7076" result="shape"/>
</filter>
</defs>
</svg>
