<svg width="122" height="121" viewBox="0 0 122 121" fill="none" xmlns="http://www.w3.org/2000/svg">
<path d="M37.9176 0.317383H37.5273C37.5273 0.317383 37.2852 0.317383 36.9752 0.317383C36.9277 0.317383 36.8788 0.317383 36.8288 0.317383C36.4347 0.317383 35.9805 0.317383 35.7712 0.317383C34.801 0.317383 34.0151 1.10386 34.0151 2.07347C34.0151 3.04298 34.801 3.82956 35.7712 3.82956C36.0326 3.82956 36.4607 3.82956 36.8288 3.82956C36.8789 3.82956 36.9279 3.82956 36.9752 3.82956C37.2881 3.82956 37.5273 3.82956 37.5273 3.82956H37.9176H38.1667V0.317383H37.9176Z" fill="white"/>
<path d="M40.2423 0.317383H38.1665V3.82956H40.2423H42.318V0.317383H40.2423Z" fill="white"/>
<path d="M44.7135 0.317383C44.3573 0.317383 43.6907 0.317383 43.2892 0.317383C43.0911 0.317383 42.9574 0.317383 42.9574 0.317383H42.8121H42.5672H42.3181V3.82956H42.5672H42.8121H42.9574C42.9574 3.82956 43.0921 3.82956 43.2892 3.82956C43.7154 3.82956 44.4336 3.82956 44.7135 3.82956C45.6833 3.82956 46.4696 3.04327 46.4696 2.07347C46.4696 1.10361 45.6833 0.317383 44.7135 0.317383Z" fill="white"/>
<path d="M58.6751 0.317383H58.2849C58.2849 0.317383 58.0428 0.317383 57.7327 0.317383C57.6853 0.317383 57.6363 0.317383 57.5864 0.317383C57.1923 0.317383 56.738 0.317383 56.5288 0.317383C55.5586 0.317383 54.7727 1.10386 54.7727 2.07347C54.7727 3.04298 55.5586 3.82956 56.5288 3.82956C56.7902 3.82956 57.2183 3.82956 57.5864 3.82956C57.6365 3.82956 57.6854 3.82956 57.7327 3.82956C58.0456 3.82956 58.2849 3.82956 58.2849 3.82956H58.6751H58.9242V0.317383H58.6751Z" fill="white"/>
<path d="M60.9998 0.317383H58.9241V3.82956H60.9998H63.0756V0.317383H60.9998Z" fill="white"/>
<path d="M65.4711 0.317383C65.1149 0.317383 64.4483 0.317383 64.0467 0.317383C63.8486 0.317383 63.715 0.317383 63.715 0.317383H63.5697H63.3248H63.0757V3.82956H63.3248H63.5697H63.715C63.715 3.82956 63.8497 3.82956 64.0467 3.82956C64.4729 3.82956 65.1912 3.82956 65.4711 3.82956C66.4409 3.82956 67.2272 3.04327 67.2272 2.07347C67.2272 1.10361 66.4409 0.317383 65.4711 0.317383Z" fill="white"/>
<path d="M77.6059 0.317383C78.5758 0.317383 79.362 1.10362 79.362 2.07347C79.362 3.04338 78.5758 3.82956 77.6059 3.82956C76.6361 3.82956 75.8499 3.04338 75.8499 2.07347C75.8499 1.10362 76.6361 0.317383 77.6059 0.317383Z" fill="white"/>
<path d="M37.9176 4.46875H37.5273C37.5273 4.46875 37.2852 4.46875 36.9752 4.46875C36.9277 4.46875 36.8788 4.46875 36.8288 4.46875C36.4347 4.46875 35.9805 4.46875 35.7712 4.46875C34.801 4.46875 34.0151 5.25523 34.0151 6.22484C34.0151 7.19434 34.801 7.98093 35.7712 7.98093C36.0326 7.98093 36.4607 7.98093 36.8288 7.98093C36.8789 7.98093 36.9279 7.98093 36.9752 7.98093C37.2881 7.98093 37.5273 7.98093 37.5273 7.98093H37.9176H38.1667V4.46875H37.9176Z" fill="white"/>
<path d="M40.2423 4.46875H38.1665V7.98093H40.2423H42.318V4.46875H40.2423Z" fill="white"/>
<path d="M44.3939 4.46875H42.3181V7.98093H44.3939H46.4696V4.46875H44.3939Z" fill="white"/>
<path d="M48.5455 4.46875H46.4697V7.98093H48.5455H50.6212V4.46875H48.5455Z" fill="white"/>
<path d="M52.6969 4.46875H50.6211V7.98093H52.6969H54.7726V4.46875H52.6969Z" fill="white"/>
<path d="M56.8485 4.46875H54.7727V7.98093H56.8485H58.9242V4.46875H56.8485Z" fill="white"/>
<path d="M60.9998 4.46875H58.9241V7.98093H60.9998H63.0756V4.46875H60.9998Z" fill="white"/>
<path d="M65.4711 4.46875C65.1149 4.46875 64.4483 4.46875 64.0467 4.46875C63.8486 4.46875 63.715 4.46875 63.715 4.46875H63.5697H63.3248H63.0757V7.98093H63.3248H63.5697H63.715C63.715 7.98093 63.8497 7.98093 64.0467 7.98093C64.4729 7.98093 65.1912 7.98093 65.4711 7.98093C66.4409 7.98093 67.2272 7.19463 67.2272 6.22484C67.2272 5.25497 66.4409 4.46875 65.4711 4.46875Z" fill="white"/>
<path d="M75.2811 4.46875H74.8908C74.8908 4.46875 74.6488 4.46875 74.3387 4.46875C74.2913 4.46875 74.2423 4.46875 74.1923 4.46875C73.7982 4.46875 73.344 4.46875 73.1348 4.46875C72.1645 4.46875 71.3787 5.25523 71.3787 6.22484C71.3787 7.19434 72.1645 7.98093 73.1348 7.98093C73.3961 7.98093 73.8242 7.98093 74.1923 7.98093C74.2424 7.98093 74.2914 7.98093 74.3387 7.98093C74.6516 7.98093 74.8908 7.98093 74.8908 7.98093H75.2811H75.5302V4.46875H75.2811Z" fill="white"/>
<path d="M77.606 4.46875H75.5303V7.98093H77.606H79.6818V4.46875H77.606Z" fill="white"/>
<path d="M81.7574 4.46875H79.6816V7.98093H81.7574H83.8332V4.46875H81.7574Z" fill="white"/>
<path d="M86.2287 4.46875C85.8724 4.46875 85.2058 4.46875 84.8043 4.46875C84.6062 4.46875 84.4726 4.46875 84.4726 4.46875H84.3273H84.0823H83.8333V7.98093H84.0823H84.3273H84.4726C84.4726 7.98093 84.6072 7.98093 84.8043 7.98093C85.2305 7.98093 85.9488 7.98093 86.2287 7.98093C87.1985 7.98093 87.9848 7.19463 87.9848 6.22484C87.9848 5.25497 87.1985 4.46875 86.2287 4.46875Z" fill="white"/>
<path d="M37.9176 8.62036H37.5273C37.5273 8.62036 37.2852 8.62036 36.9752 8.62036C36.9277 8.62036 36.8788 8.62036 36.8288 8.62036C36.4347 8.62036 35.9805 8.62036 35.7712 8.62036C34.801 8.62036 34.0151 9.40684 34.0151 10.3765C34.0151 11.346 34.801 12.1325 35.7712 12.1325C36.0326 12.1325 36.4607 12.1325 36.8288 12.1325C36.8789 12.1325 36.9279 12.1325 36.9752 12.1325C37.2881 12.1325 37.5273 12.1325 37.5273 12.1325H37.9176H38.1667V8.62036H37.9176Z" fill="white"/>
<path d="M40.2423 8.62036H38.1665V12.1325H40.2423H42.318V8.62036H40.2423Z" fill="white"/>
<path d="M44.3939 8.62036H42.3181V12.1325H44.3939H46.4696V8.62036H44.3939Z" fill="white"/>
<path d="M48.8652 8.62036C48.5089 8.62036 47.8423 8.62036 47.4408 8.62036C47.2427 8.62036 47.1091 8.62036 47.1091 8.62036H46.9638H46.7188H46.4697V12.1325H46.7188H46.9638H47.1091C47.1091 12.1325 47.2437 12.1325 47.4408 12.1325C47.867 12.1325 48.5853 12.1325 48.8652 12.1325C49.835 12.1325 50.6212 11.3462 50.6212 10.3765C50.6212 9.40658 49.835 8.62036 48.8652 8.62036Z" fill="white"/>
<path d="M58.6751 8.62036H58.2849C58.2849 8.62036 58.0428 8.62036 57.7327 8.62036C57.6853 8.62036 57.6363 8.62036 57.5864 8.62036C57.1923 8.62036 56.738 8.62036 56.5288 8.62036C55.5586 8.62036 54.7727 9.40684 54.7727 10.3765C54.7727 11.346 55.5586 12.1325 56.5288 12.1325C56.7902 12.1325 57.2183 12.1325 57.5864 12.1325C57.6365 12.1325 57.6854 12.1325 57.7327 12.1325C58.0456 12.1325 58.2849 12.1325 58.2849 12.1325H58.6751H58.9242V8.62036H58.6751Z" fill="white"/>
<path d="M61.3195 8.62036C60.9632 8.62036 60.2967 8.62036 59.8951 8.62036C59.697 8.62036 59.5634 8.62036 59.5634 8.62036H59.4181H59.1732H58.9241V12.1325H59.1732H59.4181H59.5634C59.5634 12.1325 59.698 12.1325 59.8951 12.1325C60.3213 12.1325 61.0396 12.1325 61.3195 12.1325C62.2893 12.1325 63.0756 11.3462 63.0756 10.3765C63.0756 9.40658 62.2893 8.62036 61.3195 8.62036Z" fill="white"/>
<path d="M85.9089 8.62036C86.8788 8.62036 87.665 9.4066 87.665 10.3765C87.665 11.3464 86.8788 12.1325 85.9089 12.1325C84.9391 12.1325 84.1528 11.3464 84.1528 10.3765C84.1528 9.4066 84.9391 8.62036 85.9089 8.62036Z" fill="white"/>
<path d="M42.0689 12.772H41.6787C41.6787 12.772 41.4366 12.772 41.1265 12.772C41.0791 12.772 41.0301 12.772 40.9802 12.772C40.5861 12.772 40.1318 12.772 39.9226 12.772C38.9524 12.772 38.1665 13.5585 38.1665 14.5281C38.1665 15.4976 38.9524 16.2842 39.9226 16.2842C40.184 16.2842 40.6121 16.2842 40.9802 16.2842C41.0303 16.2842 41.0792 16.2842 41.1265 16.2842C41.4394 16.2842 41.6787 16.2842 41.6787 16.2842H42.0689H42.318V12.772H42.0689Z" fill="white"/>
<path d="M44.3939 12.772H42.3181V16.2842H44.3939H46.4696V12.772H44.3939Z" fill="white"/>
<path d="M48.5455 12.772H46.4697V16.2842H48.5455H50.6212V12.772H48.5455Z" fill="white"/>
<path d="M53.0165 12.772C52.6603 12.772 51.9937 12.772 51.5921 12.772C51.394 12.772 51.2604 12.772 51.2604 12.772H51.1151H50.8702H50.6211V16.2842H50.8702H51.1151H51.2604C51.2604 16.2842 51.3951 16.2842 51.5921 16.2842C52.0183 16.2842 52.7366 16.2842 53.0165 16.2842C53.9863 16.2842 54.7726 15.4979 54.7726 14.5281C54.7726 13.5582 53.9863 12.772 53.0165 12.772Z" fill="white"/>
<path d="M62.8265 12.772H62.4363C62.4363 12.772 62.1942 12.772 61.8841 12.772C61.8367 12.772 61.7877 12.772 61.7377 12.772C61.3437 12.772 60.8894 12.772 60.6802 12.772C59.71 12.772 58.9241 13.5585 58.9241 14.5281C58.9241 15.4976 59.71 16.2842 60.6802 16.2842C60.9415 16.2842 61.3697 16.2842 61.7377 16.2842C61.7878 16.2842 61.8368 16.2842 61.8841 16.2842C62.197 16.2842 62.4363 16.2842 62.4363 16.2842H62.8265H63.0756V12.772H62.8265Z" fill="white"/>
<path d="M65.4711 12.772C65.1149 12.772 64.4483 12.772 64.0467 12.772C63.8486 12.772 63.715 12.772 63.715 12.772H63.5697H63.3248H63.0757V16.2842H63.3248H63.5697H63.715C63.715 16.2842 63.8497 16.2842 64.0467 16.2842C64.4729 16.2842 65.1912 16.2842 65.4711 16.2842C66.4409 16.2842 67.2272 15.4979 67.2272 14.5281C67.2272 13.5582 66.4409 12.772 65.4711 12.772Z" fill="white"/>
<path d="M73.4546 12.772C74.4245 12.772 75.2107 13.5582 75.2107 14.5281C75.2107 15.498 74.4245 16.2842 73.4546 16.2842C72.4847 16.2842 71.6985 15.498 71.6985 14.5281C71.6985 13.5582 72.4847 12.772 73.4546 12.772Z" fill="white"/>
<path d="M83.5841 12.772H83.1938C83.1938 12.772 82.9517 12.772 82.6417 12.772C82.5943 12.772 82.5453 12.772 82.4953 12.772C82.1012 12.772 81.647 12.772 81.4377 12.772C80.4675 12.772 79.6816 13.5585 79.6816 14.5281C79.6816 15.4976 80.4675 16.2842 81.4377 16.2842C81.6991 16.2842 82.1272 16.2842 82.4953 16.2842C82.5454 16.2842 82.5944 16.2842 82.6417 16.2842C82.9546 16.2842 83.1938 16.2842 83.1938 16.2842H83.5841H83.8332V12.772H83.5841Z" fill="white"/>
<path d="M86.2287 12.772C85.8724 12.772 85.2058 12.772 84.8043 12.772C84.6062 12.772 84.4726 12.772 84.4726 12.772H84.3273H84.0823H83.8333V16.2842H84.0823H84.3273H84.4726C84.4726 16.2842 84.6072 16.2842 84.8043 16.2842C85.2305 16.2842 85.9488 16.2842 86.2287 16.2842C87.1985 16.2842 87.9848 15.4979 87.9848 14.5281C87.9848 13.5582 87.1985 12.772 86.2287 12.772Z" fill="white"/>
<path d="M37.9176 16.9233H37.5273C37.5273 16.9233 37.2852 16.9233 36.9752 16.9233C36.9277 16.9233 36.8788 16.9233 36.8288 16.9233C36.4347 16.9233 35.9805 16.9233 35.7712 16.9233C34.801 16.9233 34.0151 17.7098 34.0151 18.6794C34.0151 19.6489 34.801 20.4355 35.7712 20.4355C36.0326 20.4355 36.4607 20.4355 36.8288 20.4355C36.8789 20.4355 36.9279 20.4355 36.9752 20.4355C37.2881 20.4355 37.5273 20.4355 37.5273 20.4355H37.9176H38.1667V16.9233H37.9176Z" fill="white"/>
<path d="M40.2423 16.9233H38.1665V20.4355H40.2423H42.318V16.9233H40.2423Z" fill="white"/>
<path d="M44.7135 16.9233C44.3573 16.9233 43.6907 16.9233 43.2892 16.9233C43.0911 16.9233 42.9574 16.9233 42.9574 16.9233H42.8121H42.5672H42.3181V20.4355H42.5672H42.8121H42.9574C42.9574 20.4355 43.0921 20.4355 43.2892 20.4355C43.7154 20.4355 44.4336 20.4355 44.7135 20.4355C45.6833 20.4355 46.4696 19.6492 46.4696 18.6794C46.4696 17.7096 45.6833 16.9233 44.7135 16.9233Z" fill="white"/>
<path d="M54.5235 16.9233H54.1333C54.1333 16.9233 53.8912 16.9233 53.5811 16.9233C53.5337 16.9233 53.4847 16.9233 53.4347 16.9233C53.0407 16.9233 52.5864 16.9233 52.3772 16.9233C51.407 16.9233 50.6211 17.7098 50.6211 18.6794C50.6211 19.6489 51.407 20.4355 52.3772 20.4355C52.6386 20.4355 53.0667 20.4355 53.4347 20.4355C53.4849 20.4355 53.5338 20.4355 53.5811 20.4355C53.894 20.4355 54.1333 20.4355 54.1333 20.4355H54.5235H54.7726V16.9233H54.5235Z" fill="white"/>
<path d="M57.1681 16.9233C56.8119 16.9233 56.1453 16.9233 55.7437 16.9233C55.5457 16.9233 55.412 16.9233 55.412 16.9233H55.2667H55.0218H54.7727V20.4355H55.0218H55.2667H55.412C55.412 20.4355 55.5467 20.4355 55.7437 20.4355C56.17 20.4355 56.8882 20.4355 57.1681 20.4355C58.1379 20.4355 58.9242 19.6492 58.9242 18.6794C58.9242 17.7096 58.1379 16.9233 57.1681 16.9233Z" fill="white"/>
<path d="M65.1514 16.9233C66.1213 16.9233 66.9074 17.7096 66.9074 18.6794C66.9074 19.6493 66.1213 20.4355 65.1514 20.4355C64.1815 20.4355 63.3953 19.6493 63.3953 18.6794C63.3953 17.7096 64.1815 16.9233 65.1514 16.9233Z" fill="white"/>
<path d="M75.2811 16.9233H74.8908C74.8908 16.9233 74.6488 16.9233 74.3387 16.9233C74.2913 16.9233 74.2423 16.9233 74.1923 16.9233C73.7982 16.9233 73.344 16.9233 73.1348 16.9233C72.1645 16.9233 71.3787 17.7098 71.3787 18.6794C71.3787 19.6489 72.1645 20.4355 73.1348 20.4355C73.3961 20.4355 73.8242 20.4355 74.1923 20.4355C74.2424 20.4355 74.2914 20.4355 74.3387 20.4355C74.6516 20.4355 74.8908 20.4355 74.8908 20.4355H75.2811H75.5302V16.9233H75.2811Z" fill="white"/>
<path d="M77.606 16.9233H75.5303V20.4355H77.606H79.6818V16.9233H77.606Z" fill="white"/>
<path d="M82.0771 16.9233C81.7208 16.9233 81.0542 16.9233 80.6527 16.9233C80.4546 16.9233 80.321 16.9233 80.321 16.9233H80.1757H79.9307H79.6816V20.4355H79.9307H80.1757H80.321C80.321 20.4355 80.4556 20.4355 80.6527 20.4355C81.0789 20.4355 81.7972 20.4355 82.0771 20.4355C83.0469 20.4355 83.8332 19.6492 83.8332 18.6794C83.8332 17.7096 83.0469 16.9233 82.0771 16.9233Z" fill="white"/>
<path d="M40.2424 21.075C41.2123 21.075 41.9985 21.8612 41.9985 22.831C41.9985 23.8009 41.2123 24.5871 40.2424 24.5871C39.2726 24.5871 38.4863 23.8009 38.4863 22.831C38.4863 21.8612 39.2726 21.075 40.2424 21.075Z" fill="white"/>
<path d="M58.6751 21.075H58.2849C58.2849 21.075 58.0428 21.075 57.7327 21.075C57.6853 21.075 57.6363 21.075 57.5864 21.075C57.1923 21.075 56.738 21.075 56.5288 21.075C55.5586 21.075 54.7727 21.8614 54.7727 22.831C54.7727 23.8005 55.5586 24.5871 56.5288 24.5871C56.7902 24.5871 57.2183 24.5871 57.5864 24.5871C57.6365 24.5871 57.6854 24.5871 57.7327 24.5871C58.0456 24.5871 58.2849 24.5871 58.2849 24.5871H58.6751H58.9242V21.075H58.6751Z" fill="white"/>
<path d="M61.3195 21.075C60.9632 21.075 60.2967 21.075 59.8951 21.075C59.697 21.075 59.5634 21.075 59.5634 21.075H59.4181H59.1732H58.9241V24.5871H59.1732H59.4181H59.5634C59.5634 24.5871 59.698 24.5871 59.8951 24.5871C60.3213 24.5871 61.0396 24.5871 61.3195 24.5871C62.2893 24.5871 63.0756 23.8008 63.0756 22.831C63.0756 21.8612 62.2893 21.075 61.3195 21.075Z" fill="white"/>
<path d="M73.4546 21.075C74.4245 21.075 75.2107 21.8612 75.2107 22.831C75.2107 23.8009 74.4245 24.5871 73.4546 24.5871C72.4847 24.5871 71.6985 23.8009 71.6985 22.831C71.6985 21.8612 72.4847 21.075 73.4546 21.075Z" fill="white"/>
<path d="M85.9089 21.075C86.8788 21.075 87.665 21.8612 87.665 22.831C87.665 23.8009 86.8788 24.5871 85.9089 24.5871C84.9391 24.5871 84.1528 23.8009 84.1528 22.831C84.1528 21.8612 84.9391 21.075 85.9089 21.075Z" fill="white"/>
<path d="M36.0908 25.2263C37.0607 25.2263 37.8469 26.0126 37.8469 26.9824C37.8469 27.9523 37.0607 28.7385 36.0908 28.7385C35.121 28.7385 34.3347 27.9523 34.3347 26.9824C34.3347 26.0126 35.121 25.2263 36.0908 25.2263Z" fill="white"/>
<path d="M44.3938 25.2263C45.3637 25.2263 46.1499 26.0126 46.1499 26.9824C46.1499 27.9523 45.3637 28.7385 44.3938 28.7385C43.4239 28.7385 42.6377 27.9523 42.6377 26.9824C42.6377 26.0126 43.4239 25.2263 44.3938 25.2263Z" fill="white"/>
<path d="M52.697 25.2263C53.6669 25.2263 54.4531 26.0126 54.4531 26.9824C54.4531 27.9523 53.6669 28.7385 52.697 28.7385C51.7272 28.7385 50.9409 27.9523 50.9409 26.9824C50.9409 26.0126 51.7272 25.2263 52.697 25.2263Z" fill="white"/>
<path d="M61 25.2263C61.9699 25.2263 62.7561 26.0126 62.7561 26.9824C62.7561 27.9523 61.9699 28.7385 61 28.7385C60.0301 28.7385 59.2439 27.9523 59.2439 26.9824C59.2439 26.0126 60.0301 25.2263 61 25.2263Z" fill="white"/>
<path d="M69.303 25.2263C70.2729 25.2263 71.0591 26.0126 71.0591 26.9824C71.0591 27.9523 70.2729 28.7385 69.303 28.7385C68.3331 28.7385 67.5469 27.9523 67.5469 26.9824C67.5469 26.0126 68.3331 25.2263 69.303 25.2263Z" fill="white"/>
<path d="M77.6059 25.2263C78.5758 25.2263 79.362 26.0126 79.362 26.9824C79.362 27.9523 78.5758 28.7385 77.6059 28.7385C76.6361 28.7385 75.8499 27.9523 75.8499 26.9824C75.8499 26.0126 76.6361 25.2263 77.6059 25.2263Z" fill="white"/>
<path d="M85.9089 25.2263C86.8788 25.2263 87.665 26.0126 87.665 26.9824C87.665 27.9523 86.8788 28.7385 85.9089 28.7385C84.9391 28.7385 84.1528 27.9523 84.1528 26.9824C84.1528 26.0126 84.9391 25.2263 85.9089 25.2263Z" fill="white"/>
<path d="M40.2424 29.3779C41.2123 29.3779 41.9985 30.1642 41.9985 31.134C41.9985 32.1039 41.2123 32.8901 40.2424 32.8901C39.2726 32.8901 38.4863 32.1039 38.4863 31.134C38.4863 30.1642 39.2726 29.3779 40.2424 29.3779Z" fill="white"/>
<path d="M52.697 29.3779C53.6669 29.3779 54.4531 30.1642 54.4531 31.134C54.4531 32.1039 53.6669 32.8901 52.697 32.8901C51.7272 32.8901 50.9409 32.1039 50.9409 31.134C50.9409 30.1642 51.7272 29.3779 52.697 29.3779Z" fill="white"/>
<path d="M61 29.3779C61.9699 29.3779 62.7561 30.1642 62.7561 31.134C62.7561 32.1039 61.9699 32.8901 61 32.8901C60.0301 32.8901 59.2439 32.1039 59.2439 31.134C59.2439 30.1642 60.0301 29.3779 61 29.3779Z" fill="white"/>
<path d="M2.87865 33.5295C3.84855 33.5295 4.63474 34.3158 4.63474 35.2856C4.63474 36.2555 3.84855 37.0417 2.87865 37.0417C1.9088 37.0417 1.12256 36.2555 1.12256 35.2856C1.12256 34.3158 1.9088 33.5295 2.87865 33.5295Z" fill="white"/>
<path d="M17.16 33.5295H16.7698C16.7698 33.5295 16.5277 33.5295 16.2176 33.5295C16.1702 33.5295 16.1212 33.5295 16.0712 33.5295C15.6771 33.5295 15.2229 33.5295 15.0137 33.5295C14.0435 33.5295 13.2576 34.316 13.2576 35.2856C13.2576 36.2551 14.0435 37.0417 15.0137 37.0417C15.275 37.0417 15.7032 37.0417 16.0712 37.0417C16.1213 37.0417 16.1703 37.0417 16.2176 37.0417C16.5305 37.0417 16.7698 37.0417 16.7698 37.0417H17.16H17.4091V33.5295H17.16Z" fill="white"/>
<path d="M19.4847 33.5295H17.4089V37.0417H19.4847H21.5605V33.5295H19.4847Z" fill="white"/>
<path d="M23.6363 33.5295H21.5605V37.0417H23.6363H25.7121V33.5295H23.6363Z" fill="white"/>
<path d="M27.7879 33.5295H25.7122V37.0417H27.7879H29.8637V33.5295H27.7879Z" fill="white"/>
<path d="M31.9393 33.5295H29.8635V37.0417H31.9393H34.015V33.5295H31.9393Z" fill="white"/>
<path d="M36.0909 33.5295H34.0151V37.0417H36.0909H38.1667V33.5295H36.0909Z" fill="white"/>
<path d="M40.5619 33.5295C40.2057 33.5295 39.5391 33.5295 39.1375 33.5295C38.9395 33.5295 38.8058 33.5295 38.8058 33.5295H38.6605H38.4156H38.1665V37.0417H38.4156H38.6605H38.8058C38.8058 37.0417 38.9405 37.0417 39.1375 37.0417C39.5638 37.0417 40.282 37.0417 40.5619 37.0417C41.5317 37.0417 42.318 36.2554 42.318 35.2856C42.318 34.3158 41.5317 33.5295 40.5619 33.5295Z" fill="white"/>
<path d="M54.5235 33.5295H54.1333C54.1333 33.5295 53.8912 33.5295 53.5811 33.5295C53.5337 33.5295 53.4847 33.5295 53.4347 33.5295C53.0407 33.5295 52.5864 33.5295 52.3772 33.5295C51.407 33.5295 50.6211 34.316 50.6211 35.2856C50.6211 36.2551 51.407 37.0417 52.3772 37.0417C52.6386 37.0417 53.0667 37.0417 53.4347 37.0417C53.4849 37.0417 53.5338 37.0417 53.5811 37.0417C53.894 37.0417 54.1333 37.0417 54.1333 37.0417H54.5235H54.7726V33.5295H54.5235Z" fill="white"/>
<path d="M56.8485 33.5295H54.7727V37.0417H56.8485H58.9242V33.5295H56.8485Z" fill="white"/>
<path d="M60.9998 33.5295H58.9241V37.0417H60.9998H63.0756V33.5295H60.9998Z" fill="white"/>
<path d="M65.1514 33.5295H63.0757V37.0417H65.1514H67.2272V33.5295H65.1514Z" fill="white"/>
<path d="M69.3031 33.5295H67.2273V37.0417H69.3031H71.3788V33.5295H69.3031Z" fill="white"/>
<path d="M73.7741 33.5295C73.4178 33.5295 72.7513 33.5295 72.3497 33.5295C72.1516 33.5295 72.018 33.5295 72.018 33.5295H71.8727H71.6278H71.3787V37.0417H71.6278H71.8727H72.018C72.018 37.0417 72.1526 37.0417 72.3497 37.0417C72.7759 37.0417 73.4942 37.0417 73.7741 37.0417C74.7439 37.0417 75.5302 36.2554 75.5302 35.2856C75.5302 34.3158 74.7439 33.5295 73.7741 33.5295Z" fill="white"/>
<path d="M90.0605 33.5295C91.0304 33.5295 91.8166 34.3158 91.8166 35.2856C91.8166 36.2555 91.0304 37.0417 90.0605 37.0417C89.0907 37.0417 88.3044 36.2555 88.3044 35.2856C88.3044 34.3158 89.0907 33.5295 90.0605 33.5295Z" fill="white"/>
<path d="M102.515 33.5295C103.485 33.5295 104.271 34.3158 104.271 35.2856C104.271 36.2555 103.485 37.0417 102.515 37.0417C101.545 37.0417 100.759 36.2555 100.759 35.2856C100.759 34.3158 101.545 33.5295 102.515 33.5295Z" fill="white"/>
<path d="M112.645 33.5295H112.255C112.255 33.5295 112.013 33.5295 111.702 33.5295C111.655 33.5295 111.606 33.5295 111.556 33.5295C111.162 33.5295 110.708 33.5295 110.499 33.5295C109.528 33.5295 108.742 34.316 108.742 35.2856C108.742 36.2551 109.528 37.0417 110.499 37.0417C110.76 37.0417 111.188 37.0417 111.556 37.0417C111.606 37.0417 111.655 37.0417 111.702 37.0417C112.015 37.0417 112.255 37.0417 112.255 37.0417H112.645H112.894V33.5295H112.645Z" fill="white"/>
<path d="M114.97 33.5295H112.894V37.0417H114.97H117.045V33.5295H114.97Z" fill="white"/>
<path d="M119.441 33.5295C119.085 33.5295 118.418 33.5295 118.016 33.5295C117.818 33.5295 117.685 33.5295 117.685 33.5295H117.539H117.295H117.045V37.0417H117.295H117.539H117.685C117.685 37.0417 117.819 37.0417 118.016 37.0417C118.443 37.0417 119.161 37.0417 119.441 37.0417C120.411 37.0417 121.197 36.2554 121.197 35.2856C121.197 34.3158 120.411 33.5295 119.441 33.5295Z" fill="white"/>
<path d="M2.87865 37.6809C3.84855 37.6809 4.63474 38.4671 4.63474 39.437C4.63474 40.4069 3.84855 41.1931 2.87865 41.1931C1.9088 41.1931 1.12256 40.4069 1.12256 39.437C1.12256 38.4671 1.9088 37.6809 2.87865 37.6809Z" fill="white"/>
<path d="M11.1819 37.6809C12.1518 37.6809 12.938 38.4671 12.938 39.437C12.938 40.4069 12.1518 41.1931 11.1819 41.1931C10.212 41.1931 9.42578 40.4069 9.42578 39.437C9.42578 38.4671 10.212 37.6809 11.1819 37.6809Z" fill="white"/>
<path d="M36.0908 37.6809C37.0607 37.6809 37.8469 38.4671 37.8469 39.437C37.8469 40.4069 37.0607 41.1931 36.0908 41.1931C35.121 41.1931 34.3347 40.4069 34.3347 39.437C34.3347 38.4671 35.121 37.6809 36.0908 37.6809Z" fill="white"/>
<path d="M52.697 37.6809C53.6669 37.6809 54.4531 38.4671 54.4531 39.437C54.4531 40.4069 53.6669 41.1931 52.697 41.1931C51.7272 41.1931 50.9409 40.4069 50.9409 39.437C50.9409 38.4671 51.7272 37.6809 52.697 37.6809Z" fill="white"/>
<path d="M61 37.6809C61.9699 37.6809 62.7561 38.4671 62.7561 39.437C62.7561 40.4069 61.9699 41.1931 61 41.1931C60.0301 41.1931 59.2439 40.4069 59.2439 39.437C59.2439 38.4671 60.0301 37.6809 61 37.6809Z" fill="white"/>
<path d="M73.4546 37.6809C74.4245 37.6809 75.2107 38.4671 75.2107 39.437C75.2107 40.4069 74.4245 41.1931 73.4546 41.1931C72.4847 41.1931 71.6985 40.4069 71.6985 39.437C71.6985 38.4671 72.4847 37.6809 73.4546 37.6809Z" fill="white"/>
<path d="M81.7576 37.6809C82.7275 37.6809 83.5136 38.4671 83.5136 39.437C83.5136 40.4069 82.7275 41.1931 81.7576 41.1931C80.7877 41.1931 80.0015 40.4069 80.0015 39.437C80.0015 38.4671 80.7877 37.6809 81.7576 37.6809Z" fill="white"/>
<path d="M90.0605 37.6809C91.0304 37.6809 91.8166 38.4671 91.8166 39.437C91.8166 40.4069 91.0304 41.1931 90.0605 41.1931C89.0907 41.1931 88.3044 40.4069 88.3044 39.437C88.3044 38.4671 89.0907 37.6809 90.0605 37.6809Z" fill="white"/>
<path d="M100.19 37.6809H99.8C99.8 37.6809 99.5579 37.6809 99.2479 37.6809C99.2005 37.6809 99.1515 37.6809 99.1015 37.6809C98.7074 37.6809 98.2532 37.6809 98.0439 37.6809C97.0737 37.6809 96.2878 38.4674 96.2878 39.437C96.2878 40.4065 97.0737 41.1931 98.0439 41.1931C98.3053 41.1931 98.7334 41.1931 99.1015 41.1931C99.1516 41.1931 99.2006 41.1931 99.2479 41.1931C99.5608 41.1931 99.8 41.1931 99.8 41.1931H100.19H100.439V37.6809H100.19Z" fill="white"/>
<path d="M102.835 37.6809C102.479 37.6809 101.812 37.6809 101.41 37.6809C101.212 37.6809 101.079 37.6809 101.079 37.6809H100.933H100.689H100.439V41.1931H100.689H100.933H101.079C101.079 41.1931 101.213 41.1931 101.41 41.1931C101.837 41.1931 102.555 41.1931 102.835 41.1931C103.805 41.1931 104.591 40.4068 104.591 39.437C104.591 38.4671 103.805 37.6809 102.835 37.6809Z" fill="white"/>
<path d="M112.645 37.6809H112.255C112.255 37.6809 112.013 37.6809 111.702 37.6809C111.655 37.6809 111.606 37.6809 111.556 37.6809C111.162 37.6809 110.708 37.6809 110.499 37.6809C109.528 37.6809 108.742 38.4674 108.742 39.437C108.742 40.4065 109.528 41.1931 110.499 41.1931C110.76 41.1931 111.188 41.1931 111.556 41.1931C111.606 41.1931 111.655 41.1931 111.702 41.1931C112.015 41.1931 112.255 41.1931 112.255 41.1931H112.645H112.894V37.6809H112.645Z" fill="white"/>
<path d="M115.289 37.6809C114.933 37.6809 114.266 37.6809 113.865 37.6809C113.667 37.6809 113.533 37.6809 113.533 37.6809H113.388H113.143H112.894V41.1931H113.143H113.388H113.533C113.533 41.1931 113.668 41.1931 113.865 41.1931C114.291 41.1931 115.009 41.1931 115.289 41.1931C116.259 41.1931 117.045 40.4068 117.045 39.437C117.045 38.4671 116.259 37.6809 115.289 37.6809Z" fill="white"/>
<path d="M8.85701 41.8325H8.46677C8.46677 41.8325 8.22468 41.8325 7.91462 41.8325C7.8672 41.8325 7.81821 41.8325 7.76824 41.8325C7.37417 41.8325 6.91993 41.8325 6.71068 41.8325C5.74047 41.8325 4.95459 42.619 4.95459 43.5886C4.95459 44.5581 5.74047 45.3447 6.71068 45.3447C6.97206 45.3447 7.40017 45.3447 7.76824 45.3447C7.81835 45.3447 7.86731 45.3447 7.91462 45.3447C8.22753 45.3447 8.46677 45.3447 8.46677 45.3447H8.85701H9.10611V41.8325H8.85701Z" fill="white"/>
<path d="M11.5014 41.8325C11.1451 41.8325 10.4785 41.8325 10.077 41.8325C9.87891 41.8325 9.74529 41.8325 9.74529 41.8325H9.59999H9.35505H9.10596V45.3447H9.35505H9.59999H9.74529C9.74529 45.3447 9.87993 45.3447 10.077 45.3447C10.5032 45.3447 11.2215 45.3447 11.5014 45.3447C12.4712 45.3447 13.2575 44.5584 13.2575 43.5886C13.2575 42.6187 12.4712 41.8325 11.5014 41.8325Z" fill="white"/>
<path d="M21.3114 41.8325H20.9211C20.9211 41.8325 20.679 41.8325 20.369 41.8325C20.3215 41.8325 20.2726 41.8325 20.2226 41.8325C19.8285 41.8325 19.3743 41.8325 19.165 41.8325C18.1948 41.8325 17.4089 42.619 17.4089 43.5886C17.4089 44.5581 18.1948 45.3447 19.165 45.3447C19.4264 45.3447 19.8545 45.3447 20.2226 45.3447C20.2727 45.3447 20.3217 45.3447 20.369 45.3447C20.6819 45.3447 20.9211 45.3447 20.9211 45.3447H21.3114H21.5605V41.8325H21.3114Z" fill="white"/>
<path d="M23.6363 41.8325H21.5605V45.3447H23.6363H25.7121V41.8325H23.6363Z" fill="white"/>
<path d="M28.1076 41.8325C27.7513 41.8325 27.0847 41.8325 26.6832 41.8325C26.4851 41.8325 26.3515 41.8325 26.3515 41.8325H26.2062H25.9612H25.7122V45.3447H25.9612H26.2062H26.3515C26.3515 45.3447 26.4861 45.3447 26.6832 45.3447C27.1094 45.3447 27.8277 45.3447 28.1076 45.3447C29.0774 45.3447 29.8637 44.5584 29.8637 43.5886C29.8637 42.6187 29.0774 41.8325 28.1076 41.8325Z" fill="white"/>
<path d="M42.0689 41.8325H41.6787C41.6787 41.8325 41.4366 41.8325 41.1265 41.8325C41.0791 41.8325 41.0301 41.8325 40.9802 41.8325C40.5861 41.8325 40.1318 41.8325 39.9226 41.8325C38.9524 41.8325 38.1665 42.619 38.1665 43.5886C38.1665 44.5581 38.9524 45.3447 39.9226 45.3447C40.184 45.3447 40.6121 45.3447 40.9802 45.3447C41.0303 45.3447 41.0792 45.3447 41.1265 45.3447C41.4394 45.3447 41.6787 45.3447 41.6787 45.3447H42.0689H42.318V41.8325H42.0689Z" fill="white"/>
<path d="M44.7135 41.8325C44.3573 41.8325 43.6907 41.8325 43.2892 41.8325C43.0911 41.8325 42.9574 41.8325 42.9574 41.8325H42.8121H42.5672H42.3181V45.3447H42.5672H42.8121H42.9574C42.9574 45.3447 43.0921 45.3447 43.2892 45.3447C43.7154 45.3447 44.4336 45.3447 44.7135 45.3447C45.6833 45.3447 46.4696 44.5584 46.4696 43.5886C46.4696 42.6187 45.6833 41.8325 44.7135 41.8325Z" fill="white"/>
<path d="M61 41.8325C61.9699 41.8325 62.7561 42.6188 62.7561 43.5886C62.7561 44.5585 61.9699 45.3447 61 45.3447C60.0301 45.3447 59.2439 44.5585 59.2439 43.5886C59.2439 42.6188 60.0301 41.8325 61 41.8325Z" fill="white"/>
<path d="M75.2811 41.8325H74.8908C74.8908 41.8325 74.6488 41.8325 74.3387 41.8325C74.2913 41.8325 74.2423 41.8325 74.1923 41.8325C73.7982 41.8325 73.344 41.8325 73.1348 41.8325C72.1645 41.8325 71.3787 42.619 71.3787 43.5886C71.3787 44.5581 72.1645 45.3447 73.1348 45.3447C73.3961 45.3447 73.8242 45.3447 74.1923 45.3447C74.2424 45.3447 74.2914 45.3447 74.3387 45.3447C74.6516 45.3447 74.8908 45.3447 74.8908 45.3447H75.2811H75.5302V41.8325H75.2811Z" fill="white"/>
<path d="M77.9257 41.8325C77.5694 41.8325 76.9029 41.8325 76.5013 41.8325C76.3032 41.8325 76.1696 41.8325 76.1696 41.8325H76.0243H75.7794H75.5303V45.3447H75.7794H76.0243H76.1696C76.1696 45.3447 76.3042 45.3447 76.5013 45.3447C76.9275 45.3447 77.6458 45.3447 77.9257 45.3447C78.8955 45.3447 79.6818 44.5584 79.6818 43.5886C79.6818 42.6187 78.8955 41.8325 77.9257 41.8325Z" fill="white"/>
<path d="M90.0605 41.8325C91.0304 41.8325 91.8166 42.6188 91.8166 43.5886C91.8166 44.5585 91.0304 45.3447 90.0605 45.3447C89.0907 45.3447 88.3044 44.5585 88.3044 43.5886C88.3044 42.6188 89.0907 41.8325 90.0605 41.8325Z" fill="white"/>
<path d="M98.3635 41.8325C99.3334 41.8325 100.12 42.6188 100.12 43.5886C100.12 44.5585 99.3334 45.3447 98.3635 45.3447C97.3937 45.3447 96.6074 44.5585 96.6074 43.5886C96.6074 42.6188 97.3937 41.8325 98.3635 41.8325Z" fill="white"/>
<path d="M110.818 41.8325C111.788 41.8325 112.574 42.6188 112.574 43.5886C112.574 44.5585 111.788 45.3447 110.818 45.3447C109.848 45.3447 109.062 44.5585 109.062 43.5886C109.062 42.6188 109.848 41.8325 110.818 41.8325Z" fill="white"/>
<path d="M17.16 45.9839H16.7698C16.7698 45.9839 16.5277 45.9839 16.2176 45.9839C16.1702 45.9839 16.1212 45.9839 16.0712 45.9839C15.6771 45.9839 15.2229 45.9839 15.0137 45.9839C14.0435 45.9839 13.2576 46.7704 13.2576 47.74C13.2576 48.7095 14.0435 49.4961 15.0137 49.4961C15.275 49.4961 15.7032 49.4961 16.0712 49.4961C16.1213 49.4961 16.1703 49.4961 16.2176 49.4961C16.5305 49.4961 16.7698 49.4961 16.7698 49.4961H17.16H17.4091V45.9839H17.16Z" fill="white"/>
<path d="M19.8044 45.9839C19.4481 45.9839 18.7815 45.9839 18.38 45.9839C18.1819 45.9839 18.0483 45.9839 18.0483 45.9839H17.903H17.658H17.4089V49.4961H17.658H17.903H18.0483C18.0483 49.4961 18.1829 49.4961 18.38 49.4961C18.8062 49.4961 19.5245 49.4961 19.8044 49.4961C20.7742 49.4961 21.5605 48.7098 21.5605 47.74C21.5605 46.7701 20.7742 45.9839 19.8044 45.9839Z" fill="white"/>
<path d="M37.9176 45.9839H37.5273C37.5273 45.9839 37.2852 45.9839 36.9752 45.9839C36.9277 45.9839 36.8788 45.9839 36.8288 45.9839C36.4347 45.9839 35.9805 45.9839 35.7712 45.9839C34.801 45.9839 34.0151 46.7704 34.0151 47.74C34.0151 48.7095 34.801 49.4961 35.7712 49.4961C36.0326 49.4961 36.4607 49.4961 36.8288 49.4961C36.8789 49.4961 36.9279 49.4961 36.9752 49.4961C37.2881 49.4961 37.5273 49.4961 37.5273 49.4961H37.9176H38.1667V45.9839H37.9176Z" fill="white"/>
<path d="M40.2423 45.9839H38.1665V49.4961H40.2423H42.318V45.9839H40.2423Z" fill="white"/>
<path d="M44.7135 45.9839C44.3573 45.9839 43.6907 45.9839 43.2892 45.9839C43.0911 45.9839 42.9574 45.9839 42.9574 45.9839H42.8121H42.5672H42.3181V49.4961H42.5672H42.8121H42.9574C42.9574 49.4961 43.0921 49.4961 43.2892 49.4961C43.7154 49.4961 44.4336 49.4961 44.7135 49.4961C45.6833 49.4961 46.4696 48.7098 46.4696 47.74C46.4696 46.7701 45.6833 45.9839 44.7135 45.9839Z" fill="white"/>
<path d="M62.8265 45.9839H62.4363C62.4363 45.9839 62.1942 45.9839 61.8841 45.9839C61.8367 45.9839 61.7877 45.9839 61.7377 45.9839C61.3437 45.9839 60.8894 45.9839 60.6802 45.9839C59.71 45.9839 58.9241 46.7704 58.9241 47.74C58.9241 48.7095 59.71 49.4961 60.6802 49.4961C60.9415 49.4961 61.3697 49.4961 61.7377 49.4961C61.7878 49.4961 61.8368 49.4961 61.8841 49.4961C62.197 49.4961 62.4363 49.4961 62.4363 49.4961H62.8265H63.0756V45.9839H62.8265Z" fill="white"/>
<path d="M65.4711 45.9839C65.1149 45.9839 64.4483 45.9839 64.0467 45.9839C63.8486 45.9839 63.715 45.9839 63.715 45.9839H63.5697H63.3248H63.0757V49.4961H63.3248H63.5697H63.715C63.715 49.4961 63.8497 49.4961 64.0467 49.4961C64.4729 49.4961 65.1912 49.4961 65.4711 49.4961C66.4409 49.4961 67.2272 48.7098 67.2272 47.74C67.2272 46.7701 66.4409 45.9839 65.4711 45.9839Z" fill="white"/>
<path d="M73.4546 45.9839C74.4245 45.9839 75.2107 46.7701 75.2107 47.74C75.2107 48.7099 74.4245 49.4961 73.4546 49.4961C72.4847 49.4961 71.6985 48.7099 71.6985 47.74C71.6985 46.7701 72.4847 45.9839 73.4546 45.9839Z" fill="white"/>
<path d="M87.7357 45.9839H87.3454C87.3454 45.9839 87.1033 45.9839 86.7933 45.9839C86.7459 45.9839 86.6969 45.9839 86.6469 45.9839C86.2528 45.9839 85.7986 45.9839 85.5893 45.9839C84.6191 45.9839 83.8333 46.7704 83.8333 47.74C83.8333 48.7095 84.6191 49.4961 85.5893 49.4961C85.8507 49.4961 86.2788 49.4961 86.6469 49.4961C86.697 49.4961 86.746 49.4961 86.7933 49.4961C87.1062 49.4961 87.3454 49.4961 87.3454 49.4961H87.7357H87.9848V45.9839H87.7357Z" fill="white"/>
<path d="M90.0606 45.9839H87.9849V49.4961H90.0606H92.1364V45.9839H90.0606Z" fill="white"/>
<path d="M94.5317 45.9839C94.1754 45.9839 93.5088 45.9839 93.1073 45.9839C92.9092 45.9839 92.7756 45.9839 92.7756 45.9839H92.6303H92.3853H92.1362V49.4961H92.3853H92.6303H92.7756C92.7756 49.4961 92.9102 49.4961 93.1073 49.4961C93.5335 49.4961 94.2518 49.4961 94.5317 49.4961C95.5015 49.4961 96.2877 48.7098 96.2877 47.74C96.2877 46.7701 95.5015 45.9839 94.5317 45.9839Z" fill="white"/>
<path d="M106.667 45.9839C107.637 45.9839 108.423 46.7701 108.423 47.74C108.423 48.7099 107.637 49.4961 106.667 49.4961C105.697 49.4961 104.911 48.7099 104.911 47.74C104.911 46.7701 105.697 45.9839 106.667 45.9839Z" fill="white"/>
<path d="M119.121 45.9839C120.091 45.9839 120.877 46.7701 120.877 47.74C120.877 48.7099 120.091 49.4961 119.121 49.4961C118.151 49.4961 117.365 48.7099 117.365 47.74C117.365 46.7701 118.151 45.9839 119.121 45.9839Z" fill="white"/>
<path d="M4.7054 50.1355H4.31516C4.31516 50.1355 4.07307 50.1355 3.76301 50.1355C3.71559 50.1355 3.6666 50.1355 3.61663 50.1355C3.22256 50.1355 2.76832 50.1355 2.55907 50.1355C1.58886 50.1355 0.802979 50.922 0.802979 51.8916C0.802979 52.8611 1.58886 53.6477 2.55907 53.6477C2.82045 53.6477 3.24856 53.6477 3.61663 53.6477C3.66674 53.6477 3.7157 53.6477 3.76301 53.6477C4.07592 53.6477 4.31516 53.6477 4.31516 53.6477H4.7054H4.95449V50.1355H4.7054Z" fill="white"/>
<path d="M7.03035 50.1355H4.95459V53.6477H7.03035H9.10611V50.1355H7.03035Z" fill="white"/>
<path d="M11.1817 50.1355H9.10596V53.6477H11.1817H13.2575V50.1355H11.1817Z" fill="white"/>
<path d="M15.653 50.1355C15.2967 50.1355 14.6302 50.1355 14.2286 50.1355C14.0305 50.1355 13.8969 50.1355 13.8969 50.1355H13.7516H13.5067H13.2576V53.6477H13.5067H13.7516H13.8969C13.8969 53.6477 14.0315 53.6477 14.2286 53.6477C14.6548 53.6477 15.3731 53.6477 15.653 53.6477C16.6228 53.6477 17.4091 52.8614 17.4091 51.8916C17.4091 50.9217 16.6228 50.1355 15.653 50.1355Z" fill="white"/>
<path d="M27.7878 50.1355C28.7577 50.1355 29.5439 50.9217 29.5439 51.8916C29.5439 52.8615 28.7577 53.6477 27.7878 53.6477C26.818 53.6477 26.0317 52.8615 26.0317 51.8916C26.0317 50.9217 26.818 50.1355 27.7878 50.1355Z" fill="white"/>
<path d="M44.3938 50.1355C45.3637 50.1355 46.1499 50.9217 46.1499 51.8916C46.1499 52.8615 45.3637 53.6477 44.3938 53.6477C43.4239 53.6477 42.6377 52.8615 42.6377 51.8916C42.6377 50.9217 43.4239 50.1355 44.3938 50.1355Z" fill="white"/>
<path d="M54.5235 50.1355H54.1333C54.1333 50.1355 53.8912 50.1355 53.5811 50.1355C53.5337 50.1355 53.4847 50.1355 53.4347 50.1355C53.0407 50.1355 52.5864 50.1355 52.3772 50.1355C51.407 50.1355 50.6211 50.922 50.6211 51.8916C50.6211 52.8611 51.407 53.6477 52.3772 53.6477C52.6386 53.6477 53.0667 53.6477 53.4347 53.6477C53.4849 53.6477 53.5338 53.6477 53.5811 53.6477C53.894 53.6477 54.1333 53.6477 54.1333 53.6477H54.5235H54.7726V50.1355H54.5235Z" fill="white"/>
<path d="M56.8485 50.1355H54.7727V53.6477H56.8485H58.9242V50.1355H56.8485Z" fill="white"/>
<path d="M61.3195 50.1355C60.9632 50.1355 60.2967 50.1355 59.8951 50.1355C59.697 50.1355 59.5634 50.1355 59.5634 50.1355H59.4181H59.1732H58.9241V53.6477H59.1732H59.4181H59.5634C59.5634 53.6477 59.698 53.6477 59.8951 53.6477C60.3213 53.6477 61.0396 53.6477 61.3195 53.6477C62.2893 53.6477 63.0756 52.8614 63.0756 51.8916C63.0756 50.9217 62.2893 50.1355 61.3195 50.1355Z" fill="white"/>
<path d="M77.6059 50.1355C78.5758 50.1355 79.362 50.9217 79.362 51.8916C79.362 52.8615 78.5758 53.6477 77.6059 53.6477C76.6361 53.6477 75.8499 52.8615 75.8499 51.8916C75.8499 50.9217 76.6361 50.1355 77.6059 50.1355Z" fill="white"/>
<path d="M85.9089 50.1355C86.8788 50.1355 87.665 50.9217 87.665 51.8916C87.665 52.8615 86.8788 53.6477 85.9089 53.6477C84.9391 53.6477 84.1528 52.8615 84.1528 51.8916C84.1528 50.9217 84.9391 50.1355 85.9089 50.1355Z" fill="white"/>
<path d="M96.0387 50.1355H95.6484C95.6484 50.1355 95.4063 50.1355 95.0963 50.1355C95.0488 50.1355 94.9999 50.1355 94.9499 50.1355C94.5558 50.1355 94.1016 50.1355 93.8923 50.1355C92.9221 50.1355 92.1362 50.922 92.1362 51.8916C92.1362 52.8611 92.9221 53.6477 93.8923 53.6477C94.1537 53.6477 94.5818 53.6477 94.9499 53.6477C95 53.6477 95.049 53.6477 95.0963 53.6477C95.4092 53.6477 95.6484 53.6477 95.6484 53.6477H96.0387H96.2877V50.1355H96.0387Z" fill="white"/>
<path d="M98.6833 50.1355C98.327 50.1355 97.6604 50.1355 97.2589 50.1355C97.0608 50.1355 96.9272 50.1355 96.9272 50.1355H96.7819H96.5369H96.2878V53.6477H96.5369H96.7819H96.9272C96.9272 53.6477 97.0618 53.6477 97.2589 53.6477C97.6851 53.6477 98.4034 53.6477 98.6833 53.6477C99.6531 53.6477 100.439 52.8614 100.439 51.8916C100.439 50.9217 99.6531 50.1355 98.6833 50.1355Z" fill="white"/>
<path d="M119.121 50.1355C120.091 50.1355 120.877 50.9217 120.877 51.8916C120.877 52.8615 120.091 53.6477 119.121 53.6477C118.151 53.6477 117.365 52.8615 117.365 51.8916C117.365 50.9217 118.151 50.1355 119.121 50.1355Z" fill="white"/>
<path d="M11.1819 54.2871C12.1518 54.2871 12.938 55.0733 12.938 56.0432C12.938 57.0131 12.1518 57.7993 11.1819 57.7993C10.212 57.7993 9.42578 57.0131 9.42578 56.0432C9.42578 55.0733 10.212 54.2871 11.1819 54.2871Z" fill="white"/>
<path d="M50.3722 54.2871H49.9819C49.9819 54.2871 49.7398 54.2871 49.4298 54.2871C49.3823 54.2871 49.3334 54.2871 49.2834 54.2871C48.8893 54.2871 48.4351 54.2871 48.2258 54.2871C47.2556 54.2871 46.4697 55.0736 46.4697 56.0432C46.4697 57.0127 47.2556 57.7993 48.2258 57.7993C48.4872 57.7993 48.9153 57.7993 49.2834 57.7993C49.3335 57.7993 49.3824 57.7993 49.4298 57.7993C49.7427 57.7993 49.9819 57.7993 49.9819 57.7993H50.3722H50.6212V54.2871H50.3722Z" fill="white"/>
<path d="M53.0165 54.2871C52.6603 54.2871 51.9937 54.2871 51.5921 54.2871C51.394 54.2871 51.2604 54.2871 51.2604 54.2871H51.1151H50.8702H50.6211V57.7993H50.8702H51.1151H51.2604C51.2604 57.7993 51.3951 57.7993 51.5921 57.7993C52.0183 57.7993 52.7366 57.7993 53.0165 57.7993C53.9863 57.7993 54.7726 57.013 54.7726 56.0432C54.7726 55.0733 53.9863 54.2871 53.0165 54.2871Z" fill="white"/>
<path d="M75.2811 54.2871H74.8908C74.8908 54.2871 74.6488 54.2871 74.3387 54.2871C74.2913 54.2871 74.2423 54.2871 74.1923 54.2871C73.7982 54.2871 73.344 54.2871 73.1348 54.2871C72.1645 54.2871 71.3787 55.0736 71.3787 56.0432C71.3787 57.0127 72.1645 57.7993 73.1348 57.7993C73.3961 57.7993 73.8242 57.7993 74.1923 57.7993C74.2424 57.7993 74.2914 57.7993 74.3387 57.7993C74.6516 57.7993 74.8908 57.7993 74.8908 57.7993H75.2811H75.5302V54.2871H75.2811Z" fill="white"/>
<path d="M77.9257 54.2871C77.5694 54.2871 76.9029 54.2871 76.5013 54.2871C76.3032 54.2871 76.1696 54.2871 76.1696 54.2871H76.0243H75.7794H75.5303V57.7993H75.7794H76.0243H76.1696C76.1696 57.7993 76.3042 57.7993 76.5013 57.7993C76.9275 57.7993 77.6458 57.7993 77.9257 57.7993C78.8955 57.7993 79.6818 57.013 79.6818 56.0432C79.6818 55.0733 78.8955 54.2871 77.9257 54.2871Z" fill="white"/>
<path d="M91.8873 54.2871H91.497C91.497 54.2871 91.255 54.2871 90.9449 54.2871C90.8975 54.2871 90.8485 54.2871 90.7985 54.2871C90.4044 54.2871 89.9502 54.2871 89.741 54.2871C88.7707 54.2871 87.9849 55.0736 87.9849 56.0432C87.9849 57.0127 88.7707 57.7993 89.741 57.7993C90.0023 57.7993 90.4304 57.7993 90.7985 57.7993C90.8486 57.7993 90.8976 57.7993 90.9449 57.7993C91.2578 57.7993 91.497 57.7993 91.497 57.7993H91.8873H92.1364V54.2871H91.8873Z" fill="white"/>
<path d="M94.5317 54.2871C94.1754 54.2871 93.5088 54.2871 93.1073 54.2871C92.9092 54.2871 92.7756 54.2871 92.7756 54.2871H92.6303H92.3853H92.1362V57.7993H92.3853H92.6303H92.7756C92.7756 57.7993 92.9102 57.7993 93.1073 57.7993C93.5335 57.7993 94.2518 57.7993 94.5317 57.7993C95.5015 57.7993 96.2877 57.013 96.2877 56.0432C96.2877 55.0733 95.5015 54.2871 94.5317 54.2871Z" fill="white"/>
<path d="M104.342 54.2871H103.952C103.952 54.2871 103.71 54.2871 103.399 54.2871C103.352 54.2871 103.303 54.2871 103.253 54.2871C102.859 54.2871 102.405 54.2871 102.196 54.2871C101.225 54.2871 100.439 55.0736 100.439 56.0432C100.439 57.0127 101.225 57.7993 102.196 57.7993C102.457 57.7993 102.885 57.7993 103.253 57.7993C103.303 57.7993 103.352 57.7993 103.399 57.7993C103.712 57.7993 103.952 57.7993 103.952 57.7993H104.342H104.591V54.2871H104.342Z" fill="white"/>
<path d="M106.667 54.2871H104.591V57.7993H106.667H108.742V54.2871H106.667Z" fill="white"/>
<path d="M110.818 54.2871H108.742V57.7993H110.818H112.894V54.2871H110.818Z" fill="white"/>
<path d="M114.97 54.2871H112.894V57.7993H114.97H117.045V54.2871H114.97Z" fill="white"/>
<path d="M119.441 54.2871C119.085 54.2871 118.418 54.2871 118.016 54.2871C117.818 54.2871 117.685 54.2871 117.685 54.2871H117.539H117.295H117.045V57.7993H117.295H117.539H117.685C117.685 57.7993 117.819 57.7993 118.016 57.7993C118.443 57.7993 119.161 57.7993 119.441 57.7993C120.411 57.7993 121.197 57.013 121.197 56.0432C121.197 55.0733 120.411 54.2871 119.441 54.2871Z" fill="white"/>
<path d="M7.03026 58.4385C8.00016 58.4385 8.78635 59.2247 8.78635 60.1946C8.78635 61.1645 8.00016 61.9507 7.03026 61.9507C6.06041 61.9507 5.27417 61.1645 5.27417 60.1946C5.27417 59.2247 6.06041 58.4385 7.03026 58.4385Z" fill="white"/>
<path d="M25.463 58.4385H25.0727C25.0727 58.4385 24.8306 58.4385 24.5206 58.4385C24.4732 58.4385 24.4242 58.4385 24.3742 58.4385C23.9801 58.4385 23.5259 58.4385 23.3166 58.4385C22.3464 58.4385 21.5605 59.225 21.5605 60.1946C21.5605 61.1641 22.3464 61.9507 23.3166 61.9507C23.578 61.9507 24.0061 61.9507 24.3742 61.9507C24.4243 61.9507 24.4733 61.9507 24.5206 61.9507C24.8335 61.9507 25.0727 61.9507 25.0727 61.9507H25.463H25.7121V58.4385H25.463Z" fill="white"/>
<path d="M27.7879 58.4385H25.7122V61.9507H27.7879H29.8637V58.4385H27.7879Z" fill="white"/>
<path d="M31.9393 58.4385H29.8635V61.9507H31.9393H34.015V58.4385H31.9393Z" fill="white"/>
<path d="M36.4106 58.4385C36.0543 58.4385 35.3877 58.4385 34.9862 58.4385C34.7881 58.4385 34.6545 58.4385 34.6545 58.4385H34.5092H34.2642H34.0151V61.9507H34.2642H34.5092H34.6545C34.6545 61.9507 34.7891 61.9507 34.9862 61.9507C35.4124 61.9507 36.1307 61.9507 36.4106 61.9507C37.3804 61.9507 38.1667 61.1644 38.1667 60.1946C38.1667 59.2247 37.3804 58.4385 36.4106 58.4385Z" fill="white"/>
<path d="M44.3938 58.4385C45.3637 58.4385 46.1499 59.2247 46.1499 60.1946C46.1499 61.1645 45.3637 61.9507 44.3938 61.9507C43.4239 61.9507 42.6377 61.1645 42.6377 60.1946C42.6377 59.2247 43.4239 58.4385 44.3938 58.4385Z" fill="white"/>
<path d="M62.8265 58.4385H62.4363C62.4363 58.4385 62.1942 58.4385 61.8841 58.4385C61.8367 58.4385 61.7877 58.4385 61.7377 58.4385C61.3437 58.4385 60.8894 58.4385 60.6802 58.4385C59.71 58.4385 58.9241 59.225 58.9241 60.1946C58.9241 61.1641 59.71 61.9507 60.6802 61.9507C60.9415 61.9507 61.3697 61.9507 61.7377 61.9507C61.7878 61.9507 61.8368 61.9507 61.8841 61.9507C62.197 61.9507 62.4363 61.9507 62.4363 61.9507H62.8265H63.0756V58.4385H62.8265Z" fill="white"/>
<path d="M65.4711 58.4385C65.1149 58.4385 64.4483 58.4385 64.0467 58.4385C63.8486 58.4385 63.715 58.4385 63.715 58.4385H63.5697H63.3248H63.0757V61.9507H63.3248H63.5697H63.715C63.715 61.9507 63.8497 61.9507 64.0467 61.9507C64.4729 61.9507 65.1912 61.9507 65.4711 61.9507C66.4409 61.9507 67.2272 61.1644 67.2272 60.1946C67.2272 59.2247 66.4409 58.4385 65.4711 58.4385Z" fill="white"/>
<path d="M73.4546 58.4385C74.4245 58.4385 75.2107 59.2247 75.2107 60.1946C75.2107 61.1645 74.4245 61.9507 73.4546 61.9507C72.4847 61.9507 71.6985 61.1645 71.6985 60.1946C71.6985 59.2247 72.4847 58.4385 73.4546 58.4385Z" fill="white"/>
<path d="M83.5841 58.4385H83.1938C83.1938 58.4385 82.9517 58.4385 82.6417 58.4385C82.5943 58.4385 82.5453 58.4385 82.4953 58.4385C82.1012 58.4385 81.647 58.4385 81.4377 58.4385C80.4675 58.4385 79.6816 59.225 79.6816 60.1946C79.6816 61.1641 80.4675 61.9507 81.4377 61.9507C81.6991 61.9507 82.1272 61.9507 82.4953 61.9507C82.5454 61.9507 82.5944 61.9507 82.6417 61.9507C82.9546 61.9507 83.1938 61.9507 83.1938 61.9507H83.5841H83.8332V58.4385H83.5841Z" fill="white"/>
<path d="M85.909 58.4385H83.8333V61.9507H85.909H87.9848V58.4385H85.909Z" fill="white"/>
<path d="M90.0606 58.4385H87.9849V61.9507H90.0606H92.1364V58.4385H90.0606Z" fill="white"/>
<path d="M94.212 58.4385H92.1362V61.9507H94.212H96.2877V58.4385H94.212Z" fill="white"/>
<path d="M98.6833 58.4385C98.327 58.4385 97.6604 58.4385 97.2589 58.4385C97.0608 58.4385 96.9272 58.4385 96.9272 58.4385H96.7819H96.5369H96.2878V61.9507H96.5369H96.7819H96.9272C96.9272 61.9507 97.0618 61.9507 97.2589 61.9507C97.6851 61.9507 98.4034 61.9507 98.6833 61.9507C99.6531 61.9507 100.439 61.1644 100.439 60.1946C100.439 59.2247 99.6531 58.4385 98.6833 58.4385Z" fill="white"/>
<path d="M110.818 58.4385C111.788 58.4385 112.574 59.2247 112.574 60.1946C112.574 61.1645 111.788 61.9507 110.818 61.9507C109.848 61.9507 109.062 61.1645 109.062 60.1946C109.062 59.2247 109.848 58.4385 110.818 58.4385Z" fill="white"/>
<path d="M119.121 58.4385C120.091 58.4385 120.877 59.2247 120.877 60.1946C120.877 61.1645 120.091 61.9507 119.121 61.9507C118.151 61.9507 117.365 61.1645 117.365 60.1946C117.365 59.2247 118.151 58.4385 119.121 58.4385Z" fill="white"/>
<path d="M4.7054 62.5901H4.31516C4.31516 62.5901 4.07307 62.5901 3.76301 62.5901C3.71559 62.5901 3.6666 62.5901 3.61663 62.5901C3.22256 62.5901 2.76832 62.5901 2.55907 62.5901C1.58886 62.5901 0.802979 63.3766 0.802979 64.3462C0.802979 65.3157 1.58886 66.1023 2.55907 66.1023C2.82045 66.1023 3.24856 66.1023 3.61663 66.1023C3.66674 66.1023 3.7157 66.1023 3.76301 66.1023C4.07592 66.1023 4.31516 66.1023 4.31516 66.1023H4.7054H4.95449V62.5901H4.7054Z" fill="white"/>
<path d="M7.35001 62.5901C6.99376 62.5901 6.32718 62.5901 5.92563 62.5901C5.72754 62.5901 5.59392 62.5901 5.59392 62.5901H5.44862H5.20368H4.95459V66.1023H5.20368H5.44862H5.59392C5.59392 66.1023 5.72857 66.1023 5.92563 66.1023C6.35184 66.1023 7.07012 66.1023 7.35001 66.1023C8.31982 66.1023 9.10611 65.316 9.10611 64.3462C9.10611 63.3763 8.31982 62.5901 7.35001 62.5901Z" fill="white"/>
<path d="M19.4849 62.5901C20.4548 62.5901 21.2409 63.3763 21.2409 64.3462C21.2409 65.3161 20.4548 66.1023 19.4849 66.1023C18.515 66.1023 17.7288 65.3161 17.7288 64.3462C17.7288 63.3763 18.515 62.5901 19.4849 62.5901Z" fill="white"/>
<path d="M31.9394 62.5901C32.9093 62.5901 33.6955 63.3763 33.6955 64.3462C33.6955 65.3161 32.9093 66.1023 31.9394 66.1023C30.9696 66.1023 30.1833 65.3161 30.1833 64.3462C30.1833 63.3763 30.9696 62.5901 31.9394 62.5901Z" fill="white"/>
<path d="M42.0689 62.5901H41.6787C41.6787 62.5901 41.4366 62.5901 41.1265 62.5901C41.0791 62.5901 41.0301 62.5901 40.9802 62.5901C40.5861 62.5901 40.1318 62.5901 39.9226 62.5901C38.9524 62.5901 38.1665 63.3766 38.1665 64.3462C38.1665 65.3157 38.9524 66.1023 39.9226 66.1023C40.184 66.1023 40.6121 66.1023 40.9802 66.1023C41.0303 66.1023 41.0792 66.1023 41.1265 66.1023C41.4394 66.1023 41.6787 66.1023 41.6787 66.1023H42.0689H42.318V62.5901H42.0689Z" fill="white"/>
<path d="M44.7135 62.5901C44.3573 62.5901 43.6907 62.5901 43.2892 62.5901C43.0911 62.5901 42.9574 62.5901 42.9574 62.5901H42.8121H42.5672H42.3181V66.1023H42.5672H42.8121H42.9574C42.9574 66.1023 43.0921 66.1023 43.2892 66.1023C43.7154 66.1023 44.4336 66.1023 44.7135 66.1023C45.6833 66.1023 46.4696 65.316 46.4696 64.3462C46.4696 63.3763 45.6833 62.5901 44.7135 62.5901Z" fill="white"/>
<path d="M58.6751 62.5901H58.2849C58.2849 62.5901 58.0428 62.5901 57.7327 62.5901C57.6853 62.5901 57.6363 62.5901 57.5864 62.5901C57.1923 62.5901 56.738 62.5901 56.5288 62.5901C55.5586 62.5901 54.7727 63.3766 54.7727 64.3462C54.7727 65.3157 55.5586 66.1023 56.5288 66.1023C56.7902 66.1023 57.2183 66.1023 57.5864 66.1023C57.6365 66.1023 57.6854 66.1023 57.7327 66.1023C58.0456 66.1023 58.2849 66.1023 58.2849 66.1023H58.6751H58.9242V62.5901H58.6751Z" fill="white"/>
<path d="M61.3195 62.5901C60.9632 62.5901 60.2967 62.5901 59.8951 62.5901C59.697 62.5901 59.5634 62.5901 59.5634 62.5901H59.4181H59.1732H58.9241V66.1023H59.1732H59.4181H59.5634C59.5634 66.1023 59.698 66.1023 59.8951 66.1023C60.3213 66.1023 61.0396 66.1023 61.3195 66.1023C62.2893 66.1023 63.0756 65.316 63.0756 64.3462C63.0756 63.3763 62.2893 62.5901 61.3195 62.5901Z" fill="white"/>
<path d="M69.303 62.5901C70.2729 62.5901 71.0591 63.3763 71.0591 64.3462C71.0591 65.3161 70.2729 66.1023 69.303 66.1023C68.3331 66.1023 67.5469 65.3161 67.5469 64.3462C67.5469 63.3763 68.3331 62.5901 69.303 62.5901Z" fill="white"/>
<path d="M77.6059 62.5901C78.5758 62.5901 79.362 63.3763 79.362 64.3462C79.362 65.3161 78.5758 66.1023 77.6059 66.1023C76.6361 66.1023 75.8499 65.3161 75.8499 64.3462C75.8499 63.3763 76.6361 62.5901 77.6059 62.5901Z" fill="white"/>
<path d="M100.19 62.5901H99.8C99.8 62.5901 99.5579 62.5901 99.2479 62.5901C99.2005 62.5901 99.1515 62.5901 99.1015 62.5901C98.7074 62.5901 98.2532 62.5901 98.0439 62.5901C97.0737 62.5901 96.2878 63.3766 96.2878 64.3462C96.2878 65.3157 97.0737 66.1023 98.0439 66.1023C98.3053 66.1023 98.7334 66.1023 99.1015 66.1023C99.1516 66.1023 99.2006 66.1023 99.2479 66.1023C99.5608 66.1023 99.8 66.1023 99.8 66.1023H100.19H100.439V62.5901H100.19Z" fill="white"/>
<path d="M102.835 62.5901C102.479 62.5901 101.812 62.5901 101.41 62.5901C101.212 62.5901 101.079 62.5901 101.079 62.5901H100.933H100.689H100.439V66.1023H100.689H100.933H101.079C101.079 66.1023 101.213 66.1023 101.41 66.1023C101.837 66.1023 102.555 66.1023 102.835 66.1023C103.805 66.1023 104.591 65.316 104.591 64.3462C104.591 63.3763 103.805 62.5901 102.835 62.5901Z" fill="white"/>
<path d="M110.818 62.5901C111.788 62.5901 112.574 63.3763 112.574 64.3462C112.574 65.3161 111.788 66.1023 110.818 66.1023C109.848 66.1023 109.062 65.3161 109.062 64.3462C109.062 63.3763 109.848 62.5901 110.818 62.5901Z" fill="white"/>
<path d="M119.121 62.5901C120.091 62.5901 120.877 63.3763 120.877 64.3462C120.877 65.3161 120.091 66.1023 119.121 66.1023C118.151 66.1023 117.365 65.3161 117.365 64.3462C117.365 63.3763 118.151 62.5901 119.121 62.5901Z" fill="white"/>
<path d="M19.4849 66.7417C20.4548 66.7417 21.2409 67.5279 21.2409 68.4978C21.2409 69.4677 20.4548 70.2539 19.4849 70.2539C18.515 70.2539 17.7288 69.4677 17.7288 68.4978C17.7288 67.5279 18.515 66.7417 19.4849 66.7417Z" fill="white"/>
<path d="M27.7878 66.7417C28.7577 66.7417 29.5439 67.5279 29.5439 68.4978C29.5439 69.4677 28.7577 70.2539 27.7878 70.2539C26.818 70.2539 26.0317 69.4677 26.0317 68.4978C26.0317 67.5279 26.818 66.7417 27.7878 66.7417Z" fill="white"/>
<path d="M52.697 66.7417C53.6669 66.7417 54.4531 67.5279 54.4531 68.4978C54.4531 69.4677 53.6669 70.2539 52.697 70.2539C51.7272 70.2539 50.9409 69.4677 50.9409 68.4978C50.9409 67.5279 51.7272 66.7417 52.697 66.7417Z" fill="white"/>
<path d="M65.1514 66.7417C66.1213 66.7417 66.9074 67.5279 66.9074 68.4978C66.9074 69.4677 66.1213 70.2539 65.1514 70.2539C64.1815 70.2539 63.3953 69.4677 63.3953 68.4978C63.3953 67.5279 64.1815 66.7417 65.1514 66.7417Z" fill="white"/>
<path d="M83.5841 66.7417H83.1938C83.1938 66.7417 82.9517 66.7417 82.6417 66.7417C82.5943 66.7417 82.5453 66.7417 82.4953 66.7417C82.1012 66.7417 81.647 66.7417 81.4377 66.7417C80.4675 66.7417 79.6816 67.5282 79.6816 68.4978C79.6816 69.4673 80.4675 70.2539 81.4377 70.2539C81.6991 70.2539 82.1272 70.2539 82.4953 70.2539C82.5454 70.2539 82.5944 70.2539 82.6417 70.2539C82.9546 70.2539 83.1938 70.2539 83.1938 70.2539H83.5841H83.8332V66.7417H83.5841Z" fill="white"/>
<path d="M86.2287 66.7417C85.8724 66.7417 85.2058 66.7417 84.8043 66.7417C84.6062 66.7417 84.4726 66.7417 84.4726 66.7417H84.3273H84.0823H83.8333V70.2539H84.0823H84.3273H84.4726C84.4726 70.2539 84.6072 70.2539 84.8043 70.2539C85.2305 70.2539 85.9488 70.2539 86.2287 70.2539C87.1985 70.2539 87.9848 69.4676 87.9848 68.4978C87.9848 67.5279 87.1985 66.7417 86.2287 66.7417Z" fill="white"/>
<path d="M106.667 66.7417C107.637 66.7417 108.423 67.5279 108.423 68.4978C108.423 69.4677 107.637 70.2539 106.667 70.2539C105.697 70.2539 104.911 69.4677 104.911 68.4978C104.911 67.5279 105.697 66.7417 106.667 66.7417Z" fill="white"/>
<path d="M2.87865 70.8931C3.84855 70.8931 4.63474 71.6793 4.63474 72.6492C4.63474 73.6191 3.84855 74.4052 2.87865 74.4052C1.9088 74.4052 1.12256 73.6191 1.12256 72.6492C1.12256 71.6793 1.9088 70.8931 2.87865 70.8931Z" fill="white"/>
<path d="M15.3332 70.8931C16.3031 70.8931 17.0893 71.6793 17.0893 72.6492C17.0893 73.6191 16.3031 74.4052 15.3332 74.4052C14.3634 74.4052 13.5771 73.6191 13.5771 72.6492C13.5771 71.6793 14.3634 70.8931 15.3332 70.8931Z" fill="white"/>
<path d="M37.9176 70.8931H37.5273C37.5273 70.8931 37.2852 70.8931 36.9752 70.8931C36.9277 70.8931 36.8788 70.8931 36.8288 70.8931C36.4347 70.8931 35.9805 70.8931 35.7712 70.8931C34.801 70.8931 34.0151 71.6795 34.0151 72.6492C34.0151 73.6187 34.801 74.4052 35.7712 74.4052C36.0326 74.4052 36.4607 74.4052 36.8288 74.4052C36.8789 74.4052 36.9279 74.4052 36.9752 74.4052C37.2881 74.4052 37.5273 74.4052 37.5273 74.4052H37.9176H38.1667V70.8931H37.9176Z" fill="white"/>
<path d="M40.5619 70.8931C40.2057 70.8931 39.5391 70.8931 39.1375 70.8931C38.9395 70.8931 38.8058 70.8931 38.8058 70.8931H38.6605H38.4156H38.1665V74.4052H38.4156H38.6605H38.8058C38.8058 74.4052 38.9405 74.4052 39.1375 74.4052C39.5638 74.4052 40.282 74.4052 40.5619 74.4052C41.5317 74.4052 42.318 73.619 42.318 72.6492C42.318 71.6793 41.5317 70.8931 40.5619 70.8931Z" fill="white"/>
<path d="M75.2811 70.8931H74.8908C74.8908 70.8931 74.6488 70.8931 74.3387 70.8931C74.2913 70.8931 74.2423 70.8931 74.1923 70.8931C73.7982 70.8931 73.344 70.8931 73.1348 70.8931C72.1645 70.8931 71.3787 71.6795 71.3787 72.6492C71.3787 73.6187 72.1645 74.4052 73.1348 74.4052C73.3961 74.4052 73.8242 74.4052 74.1923 74.4052C74.2424 74.4052 74.2914 74.4052 74.3387 74.4052C74.6516 74.4052 74.8908 74.4052 74.8908 74.4052H75.2811H75.5302V70.8931H75.2811Z" fill="white"/>
<path d="M77.606 70.8931H75.5303V74.4052H77.606H79.6818V70.8931H77.606Z" fill="white"/>
<path d="M82.0771 70.8931C81.7208 70.8931 81.0542 70.8931 80.6527 70.8931C80.4546 70.8931 80.321 70.8931 80.321 70.8931H80.1757H79.9307H79.6816V74.4052H79.9307H80.1757H80.321C80.321 74.4052 80.4556 74.4052 80.6527 74.4052C81.0789 74.4052 81.7972 74.4052 82.0771 74.4052C83.0469 74.4052 83.8332 73.619 83.8332 72.6492C83.8332 71.6793 83.0469 70.8931 82.0771 70.8931Z" fill="white"/>
<path d="M102.515 70.8931C103.485 70.8931 104.271 71.6793 104.271 72.6492C104.271 73.6191 103.485 74.4052 102.515 74.4052C101.545 74.4052 100.759 73.6191 100.759 72.6492C100.759 71.6793 101.545 70.8931 102.515 70.8931Z" fill="white"/>
<path d="M112.645 70.8931H112.255C112.255 70.8931 112.013 70.8931 111.702 70.8931C111.655 70.8931 111.606 70.8931 111.556 70.8931C111.162 70.8931 110.708 70.8931 110.499 70.8931C109.528 70.8931 108.742 71.6795 108.742 72.6492C108.742 73.6187 109.528 74.4052 110.499 74.4052C110.76 74.4052 111.188 74.4052 111.556 74.4052C111.606 74.4052 111.655 74.4052 111.702 74.4052C112.015 74.4052 112.255 74.4052 112.255 74.4052H112.645H112.894V70.8931H112.645Z" fill="white"/>
<path d="M115.289 70.8931C114.933 70.8931 114.266 70.8931 113.865 70.8931C113.667 70.8931 113.533 70.8931 113.533 70.8931H113.388H113.143H112.894V74.4052H113.143H113.388H113.533C113.533 74.4052 113.668 74.4052 113.865 74.4052C114.291 74.4052 115.009 74.4052 115.289 74.4052C116.259 74.4052 117.045 73.619 117.045 72.6492C117.045 71.6793 116.259 70.8931 115.289 70.8931Z" fill="white"/>
<path d="M4.7054 75.0447H4.31516C4.31516 75.0447 4.07307 75.0447 3.76301 75.0447C3.71559 75.0447 3.6666 75.0447 3.61663 75.0447C3.22256 75.0447 2.76832 75.0447 2.55907 75.0447C1.58886 75.0447 0.802979 75.8312 0.802979 76.8008C0.802979 77.7703 1.58886 78.5569 2.55907 78.5569C2.82045 78.5569 3.24856 78.5569 3.61663 78.5569C3.66674 78.5569 3.7157 78.5569 3.76301 78.5569C4.07592 78.5569 4.31516 78.5569 4.31516 78.5569H4.7054H4.95449V75.0447H4.7054Z" fill="white"/>
<path d="M7.03035 75.0447H4.95459V78.5569H7.03035H9.10611V75.0447H7.03035Z" fill="white"/>
<path d="M11.5014 75.0447C11.1451 75.0447 10.4785 75.0447 10.077 75.0447C9.87891 75.0447 9.74529 75.0447 9.74529 75.0447H9.59999H9.35505H9.10596V78.5569H9.35505H9.59999H9.74529C9.74529 78.5569 9.87993 78.5569 10.077 78.5569C10.5032 78.5569 11.2215 78.5569 11.5014 78.5569C12.4712 78.5569 13.2575 77.7706 13.2575 76.8008C13.2575 75.8309 12.4712 75.0447 11.5014 75.0447Z" fill="white"/>
<path d="M29.6146 75.0447H29.2243C29.2243 75.0447 28.9822 75.0447 28.6722 75.0447C28.6248 75.0447 28.5758 75.0447 28.5258 75.0447C28.1317 75.0447 27.6775 75.0447 27.4682 75.0447C26.498 75.0447 25.7122 75.8312 25.7122 76.8008C25.7122 77.7703 26.498 78.5569 27.4682 78.5569C27.7296 78.5569 28.1577 78.5569 28.5258 78.5569C28.5759 78.5569 28.6249 78.5569 28.6722 78.5569C28.9851 78.5569 29.2243 78.5569 29.2243 78.5569H29.6146H29.8637V75.0447H29.6146Z" fill="white"/>
<path d="M32.2589 75.0447C31.9027 75.0447 31.2361 75.0447 30.8346 75.0447C30.6365 75.0447 30.5029 75.0447 30.5029 75.0447H30.3576H30.1126H29.8635V78.5569H30.1126H30.3576H30.5029C30.5029 78.5569 30.6375 78.5569 30.8346 78.5569C31.2608 78.5569 31.9791 78.5569 32.2589 78.5569C33.2288 78.5569 34.015 77.7706 34.015 76.8008C34.015 75.8309 33.2288 75.0447 32.2589 75.0447Z" fill="white"/>
<path d="M42.0689 75.0447H41.6787C41.6787 75.0447 41.4366 75.0447 41.1265 75.0447C41.0791 75.0447 41.0301 75.0447 40.9802 75.0447C40.5861 75.0447 40.1318 75.0447 39.9226 75.0447C38.9524 75.0447 38.1665 75.8312 38.1665 76.8008C38.1665 77.7703 38.9524 78.5569 39.9226 78.5569C40.184 78.5569 40.6121 78.5569 40.9802 78.5569C41.0303 78.5569 41.0792 78.5569 41.1265 78.5569C41.4394 78.5569 41.6787 78.5569 41.6787 78.5569H42.0689H42.318V75.0447H42.0689Z" fill="white"/>
<path d="M44.7135 75.0447C44.3573 75.0447 43.6907 75.0447 43.2892 75.0447C43.0911 75.0447 42.9574 75.0447 42.9574 75.0447H42.8121H42.5672H42.3181V78.5569H42.5672H42.8121H42.9574C42.9574 78.5569 43.0921 78.5569 43.2892 78.5569C43.7154 78.5569 44.4336 78.5569 44.7135 78.5569C45.6833 78.5569 46.4696 77.7706 46.4696 76.8008C46.4696 75.8309 45.6833 75.0447 44.7135 75.0447Z" fill="white"/>
<path d="M58.6751 75.0447H58.2849C58.2849 75.0447 58.0428 75.0447 57.7327 75.0447C57.6853 75.0447 57.6363 75.0447 57.5864 75.0447C57.1923 75.0447 56.738 75.0447 56.5288 75.0447C55.5586 75.0447 54.7727 75.8312 54.7727 76.8008C54.7727 77.7703 55.5586 78.5569 56.5288 78.5569C56.7902 78.5569 57.2183 78.5569 57.5864 78.5569C57.6365 78.5569 57.6854 78.5569 57.7327 78.5569C58.0456 78.5569 58.2849 78.5569 58.2849 78.5569H58.6751H58.9242V75.0447H58.6751Z" fill="white"/>
<path d="M61.3195 75.0447C60.9632 75.0447 60.2967 75.0447 59.8951 75.0447C59.697 75.0447 59.5634 75.0447 59.5634 75.0447H59.4181H59.1732H58.9241V78.5569H59.1732H59.4181H59.5634C59.5634 78.5569 59.698 78.5569 59.8951 78.5569C60.3213 78.5569 61.0396 78.5569 61.3195 78.5569C62.2893 78.5569 63.0756 77.7706 63.0756 76.8008C63.0756 75.8309 62.2893 75.0447 61.3195 75.0447Z" fill="white"/>
<path d="M69.303 75.0447C70.2729 75.0447 71.0591 75.8309 71.0591 76.8008C71.0591 77.7707 70.2729 78.5569 69.303 78.5569C68.3331 78.5569 67.5469 77.7707 67.5469 76.8008C67.5469 75.8309 68.3331 75.0447 69.303 75.0447Z" fill="white"/>
<path d="M79.4327 75.0447H79.0425C79.0425 75.0447 78.8004 75.0447 78.4903 75.0447C78.4429 75.0447 78.3939 75.0447 78.3439 75.0447C77.9499 75.0447 77.4956 75.0447 77.2864 75.0447C76.3162 75.0447 75.5303 75.8312 75.5303 76.8008C75.5303 77.7703 76.3162 78.5569 77.2864 78.5569C77.5477 78.5569 77.9759 78.5569 78.3439 78.5569C78.394 78.5569 78.443 78.5569 78.4903 78.5569C78.8032 78.5569 79.0425 78.5569 79.0425 78.5569H79.4327H79.6818V75.0447H79.4327Z" fill="white"/>
<path d="M82.0771 75.0447C81.7208 75.0447 81.0542 75.0447 80.6527 75.0447C80.4546 75.0447 80.321 75.0447 80.321 75.0447H80.1757H79.9307H79.6816V78.5569H79.9307H80.1757H80.321C80.321 78.5569 80.4556 78.5569 80.6527 78.5569C81.0789 78.5569 81.7972 78.5569 82.0771 78.5569C83.0469 78.5569 83.8332 77.7706 83.8332 76.8008C83.8332 75.8309 83.0469 75.0447 82.0771 75.0447Z" fill="white"/>
<path d="M91.8873 75.0447H91.497C91.497 75.0447 91.255 75.0447 90.9449 75.0447C90.8975 75.0447 90.8485 75.0447 90.7985 75.0447C90.4044 75.0447 89.9502 75.0447 89.741 75.0447C88.7707 75.0447 87.9849 75.8312 87.9849 76.8008C87.9849 77.7703 88.7707 78.5569 89.741 78.5569C90.0023 78.5569 90.4304 78.5569 90.7985 78.5569C90.8486 78.5569 90.8976 78.5569 90.9449 78.5569C91.2578 78.5569 91.497 78.5569 91.497 78.5569H91.8873H92.1364V75.0447H91.8873Z" fill="white"/>
<path d="M94.5317 75.0447C94.1754 75.0447 93.5088 75.0447 93.1073 75.0447C92.9092 75.0447 92.7756 75.0447 92.7756 75.0447H92.6303H92.3853H92.1362V78.5569H92.3853H92.6303H92.7756C92.7756 78.5569 92.9102 78.5569 93.1073 78.5569C93.5335 78.5569 94.2518 78.5569 94.5317 78.5569C95.5015 78.5569 96.2877 77.7706 96.2877 76.8008C96.2877 75.8309 95.5015 75.0447 94.5317 75.0447Z" fill="white"/>
<path d="M106.667 75.0447C107.637 75.0447 108.423 75.8309 108.423 76.8008C108.423 77.7707 107.637 78.5569 106.667 78.5569C105.697 78.5569 104.911 77.7707 104.911 76.8008C104.911 75.8309 105.697 75.0447 106.667 75.0447Z" fill="white"/>
<path d="M119.121 75.0447C120.091 75.0447 120.877 75.8309 120.877 76.8008C120.877 77.7707 120.091 78.5569 119.121 78.5569C118.151 78.5569 117.365 77.7707 117.365 76.8008C117.365 75.8309 118.151 75.0447 119.121 75.0447Z" fill="white"/>
<path d="M4.7054 79.196H4.31516C4.31516 79.196 4.07307 79.196 3.76301 79.196C3.71559 79.196 3.6666 79.196 3.61663 79.196C3.22256 79.196 2.76832 79.196 2.55907 79.196C1.58886 79.196 0.802979 79.9825 0.802979 80.9521C0.802979 81.9216 1.58886 82.7082 2.55907 82.7082C2.82045 82.7082 3.24856 82.7082 3.61663 82.7082C3.66674 82.7082 3.7157 82.7082 3.76301 82.7082C4.07592 82.7082 4.31516 82.7082 4.31516 82.7082H4.7054H4.95449V79.196H4.7054Z" fill="white"/>
<path d="M7.35001 79.196C6.99376 79.196 6.32718 79.196 5.92563 79.196C5.72754 79.196 5.59392 79.196 5.59392 79.196H5.44862H5.20368H4.95459V82.7082H5.20368H5.44862H5.59392C5.59392 82.7082 5.72857 82.7082 5.92563 82.7082C6.35184 82.7082 7.07012 82.7082 7.35001 82.7082C8.31982 82.7082 9.10611 81.9219 9.10611 80.9521C9.10611 79.9823 8.31982 79.196 7.35001 79.196Z" fill="white"/>
<path d="M21.3114 79.196H20.9211C20.9211 79.196 20.679 79.196 20.369 79.196C20.3215 79.196 20.2726 79.196 20.2226 79.196C19.8285 79.196 19.3743 79.196 19.165 79.196C18.1948 79.196 17.4089 79.9825 17.4089 80.9521C17.4089 81.9216 18.1948 82.7082 19.165 82.7082C19.4264 82.7082 19.8545 82.7082 20.2226 82.7082C20.2727 82.7082 20.3217 82.7082 20.369 82.7082C20.6819 82.7082 20.9211 82.7082 20.9211 82.7082H21.3114H21.5605V79.196H21.3114Z" fill="white"/>
<path d="M23.956 79.196C23.5997 79.196 22.9331 79.196 22.5316 79.196C22.3335 79.196 22.1999 79.196 22.1999 79.196H22.0546H21.8096H21.5605V82.7082H21.8096H22.0546H22.1999C22.1999 82.7082 22.3345 82.7082 22.5316 82.7082C22.9578 82.7082 23.6761 82.7082 23.956 82.7082C24.9258 82.7082 25.7121 81.9219 25.7121 80.9521C25.7121 79.9823 24.9258 79.196 23.956 79.196Z" fill="white"/>
<path d="M33.766 79.196H33.3757C33.3757 79.196 33.1336 79.196 32.8236 79.196C32.7761 79.196 32.7271 79.196 32.6772 79.196C32.2831 79.196 31.8289 79.196 31.6196 79.196C30.6494 79.196 29.8635 79.9825 29.8635 80.9521C29.8635 81.9216 30.6494 82.7082 31.6196 82.7082C31.881 82.7082 32.3091 82.7082 32.6772 82.7082C32.7273 82.7082 32.7762 82.7082 32.8236 82.7082C33.1365 82.7082 33.3757 82.7082 33.3757 82.7082H33.766H34.015V79.196H33.766Z" fill="white"/>
<path d="M36.0909 79.196H34.0151V82.7082H36.0909H38.1667V79.196H36.0909Z" fill="white"/>
<path d="M40.2423 79.196H38.1665V82.7082H40.2423H42.318V79.196H40.2423Z" fill="white"/>
<path d="M44.3939 79.196H42.3181V82.7082H44.3939H46.4696V79.196H44.3939Z" fill="white"/>
<path d="M48.8652 79.196C48.5089 79.196 47.8423 79.196 47.4408 79.196C47.2427 79.196 47.1091 79.196 47.1091 79.196H46.9638H46.7188H46.4697V82.7082H46.7188H46.9638H47.1091C47.1091 82.7082 47.2437 82.7082 47.4408 82.7082C47.867 82.7082 48.5853 82.7082 48.8652 82.7082C49.835 82.7082 50.6212 81.9219 50.6212 80.9521C50.6212 79.9823 49.835 79.196 48.8652 79.196Z" fill="white"/>
<path d="M56.8484 79.196C57.8183 79.196 58.6045 79.9823 58.6045 80.9521C58.6045 81.922 57.8183 82.7082 56.8484 82.7082C55.8785 82.7082 55.0923 81.922 55.0923 80.9521C55.0923 79.9823 55.8785 79.196 56.8484 79.196Z" fill="white"/>
<path d="M66.9781 79.196H66.5879C66.5879 79.196 66.3458 79.196 66.0357 79.196C65.9883 79.196 65.9393 79.196 65.8893 79.196C65.4953 79.196 65.041 79.196 64.8318 79.196C63.8616 79.196 63.0757 79.9825 63.0757 80.9521C63.0757 81.9216 63.8616 82.7082 64.8318 82.7082C65.0932 82.7082 65.5213 82.7082 65.8893 82.7082C65.9394 82.7082 65.9884 82.7082 66.0357 82.7082C66.3486 82.7082 66.5879 82.7082 66.5879 82.7082H66.9781H67.2272V79.196H66.9781Z" fill="white"/>
<path d="M69.6227 79.196C69.2665 79.196 68.5999 79.196 68.1983 79.196C68.0002 79.196 67.8666 79.196 67.8666 79.196H67.7213H67.4764H67.2273V82.7082H67.4764H67.7213H67.8666C67.8666 82.7082 68.0013 82.7082 68.1983 82.7082C68.6245 82.7082 69.3428 82.7082 69.6227 82.7082C70.5925 82.7082 71.3788 81.9219 71.3788 80.9521C71.3788 79.9823 70.5925 79.196 69.6227 79.196Z" fill="white"/>
<path d="M81.7576 79.196C82.7275 79.196 83.5136 79.9823 83.5136 80.9521C83.5136 81.922 82.7275 82.7082 81.7576 82.7082C80.7877 82.7082 80.0015 81.922 80.0015 80.9521C80.0015 79.9823 80.7877 79.196 81.7576 79.196Z" fill="white"/>
<path d="M91.8873 79.196H91.497C91.497 79.196 91.255 79.196 90.9449 79.196C90.8975 79.196 90.8485 79.196 90.7985 79.196C90.4044 79.196 89.9502 79.196 89.741 79.196C88.7707 79.196 87.9849 79.9825 87.9849 80.9521C87.9849 81.9216 88.7707 82.7082 89.741 82.7082C90.0023 82.7082 90.4304 82.7082 90.7985 82.7082C90.8486 82.7082 90.8976 82.7082 90.9449 82.7082C91.2578 82.7082 91.497 82.7082 91.497 82.7082H91.8873H92.1364V79.196H91.8873Z" fill="white"/>
<path d="M94.212 79.196H92.1362V82.7082H94.212H96.2877V79.196H94.212Z" fill="white"/>
<path d="M98.3636 79.196H96.2878V82.7082H98.3636H100.439V79.196H98.3636Z" fill="white"/>
<path d="M102.515 79.196H100.439V82.7082H102.515H104.591V79.196H102.515Z" fill="white"/>
<path d="M106.667 79.196H104.591V82.7082H106.667H108.742V79.196H106.667Z" fill="white"/>
<path d="M111.138 79.196C110.782 79.196 110.115 79.196 109.713 79.196C109.515 79.196 109.382 79.196 109.382 79.196H109.236H108.992H108.742V82.7082H108.992H109.236H109.382C109.382 82.7082 109.516 82.7082 109.713 82.7082C110.14 82.7082 110.858 82.7082 111.138 82.7082C112.108 82.7082 112.894 81.9219 112.894 80.9521C112.894 79.9823 112.108 79.196 111.138 79.196Z" fill="white"/>
<path d="M4.7054 83.3477H4.31516C4.31516 83.3477 4.07307 83.3477 3.76301 83.3477C3.71559 83.3477 3.6666 83.3477 3.61663 83.3477C3.22256 83.3477 2.76832 83.3477 2.55907 83.3477C1.58886 83.3477 0.802979 84.1341 0.802979 85.1037C0.802979 86.0733 1.58886 86.8598 2.55907 86.8598C2.82045 86.8598 3.24856 86.8598 3.61663 86.8598C3.66674 86.8598 3.7157 86.8598 3.76301 86.8598C4.07592 86.8598 4.31516 86.8598 4.31516 86.8598H4.7054H4.95449V83.3477H4.7054Z" fill="white"/>
<path d="M7.03035 83.3477H4.95459V86.8598H7.03035H9.10611V83.3477H7.03035Z" fill="white"/>
<path d="M11.5014 83.3477C11.1451 83.3477 10.4785 83.3477 10.077 83.3477C9.87891 83.3477 9.74529 83.3477 9.74529 83.3477H9.59999H9.35505H9.10596V86.8598H9.35505H9.59999H9.74529C9.74529 86.8598 9.87993 86.8598 10.077 86.8598C10.5032 86.8598 11.2215 86.8598 11.5014 86.8598C12.4712 86.8598 13.2575 86.0735 13.2575 85.1037C13.2575 84.1339 12.4712 83.3477 11.5014 83.3477Z" fill="white"/>
<path d="M25.463 83.3477H25.0727C25.0727 83.3477 24.8306 83.3477 24.5206 83.3477C24.4732 83.3477 24.4242 83.3477 24.3742 83.3477C23.9801 83.3477 23.5259 83.3477 23.3166 83.3477C22.3464 83.3477 21.5605 84.1341 21.5605 85.1037C21.5605 86.0733 22.3464 86.8598 23.3166 86.8598C23.578 86.8598 24.0061 86.8598 24.3742 86.8598C24.4243 86.8598 24.4733 86.8598 24.5206 86.8598C24.8335 86.8598 25.0727 86.8598 25.0727 86.8598H25.463H25.7121V83.3477H25.463Z" fill="white"/>
<path d="M28.1076 83.3477C27.7513 83.3477 27.0847 83.3477 26.6832 83.3477C26.4851 83.3477 26.3515 83.3477 26.3515 83.3477H26.2062H25.9612H25.7122V86.8598H25.9612H26.2062H26.3515C26.3515 86.8598 26.4861 86.8598 26.6832 86.8598C27.1094 86.8598 27.8277 86.8598 28.1076 86.8598C29.0774 86.8598 29.8637 86.0735 29.8637 85.1037C29.8637 84.1339 29.0774 83.3477 28.1076 83.3477Z" fill="white"/>
<path d="M42.0689 83.3477H41.6787C41.6787 83.3477 41.4366 83.3477 41.1265 83.3477C41.0791 83.3477 41.0301 83.3477 40.9802 83.3477C40.5861 83.3477 40.1318 83.3477 39.9226 83.3477C38.9524 83.3477 38.1665 84.1341 38.1665 85.1037C38.1665 86.0733 38.9524 86.8598 39.9226 86.8598C40.184 86.8598 40.6121 86.8598 40.9802 86.8598C41.0303 86.8598 41.0792 86.8598 41.1265 86.8598C41.4394 86.8598 41.6787 86.8598 41.6787 86.8598H42.0689H42.318V83.3477H42.0689Z" fill="white"/>
<path d="M44.7135 83.3477C44.3573 83.3477 43.6907 83.3477 43.2892 83.3477C43.0911 83.3477 42.9574 83.3477 42.9574 83.3477H42.8121H42.5672H42.3181V86.8598H42.5672H42.8121H42.9574C42.9574 86.8598 43.0921 86.8598 43.2892 86.8598C43.7154 86.8598 44.4336 86.8598 44.7135 86.8598C45.6833 86.8598 46.4696 86.0735 46.4696 85.1037C46.4696 84.1339 45.6833 83.3477 44.7135 83.3477Z" fill="white"/>
<path d="M54.5235 83.3477H54.1333C54.1333 83.3477 53.8912 83.3477 53.5811 83.3477C53.5337 83.3477 53.4847 83.3477 53.4347 83.3477C53.0407 83.3477 52.5864 83.3477 52.3772 83.3477C51.407 83.3477 50.6211 84.1341 50.6211 85.1037C50.6211 86.0733 51.407 86.8598 52.3772 86.8598C52.6386 86.8598 53.0667 86.8598 53.4347 86.8598C53.4849 86.8598 53.5338 86.8598 53.5811 86.8598C53.894 86.8598 54.1333 86.8598 54.1333 86.8598H54.5235H54.7726V83.3477H54.5235Z" fill="white"/>
<path d="M57.1681 83.3477C56.8119 83.3477 56.1453 83.3477 55.7437 83.3477C55.5457 83.3477 55.412 83.3477 55.412 83.3477H55.2667H55.0218H54.7727V86.8598H55.0218H55.2667H55.412C55.412 86.8598 55.5467 86.8598 55.7437 86.8598C56.17 86.8598 56.8882 86.8598 57.1681 86.8598C58.1379 86.8598 58.9242 86.0735 58.9242 85.1037C58.9242 84.1339 58.1379 83.3477 57.1681 83.3477Z" fill="white"/>
<path d="M73.4546 83.3477C74.4245 83.3477 75.2107 84.1339 75.2107 85.1037C75.2107 86.0736 74.4245 86.8598 73.4546 86.8598C72.4847 86.8598 71.6985 86.0736 71.6985 85.1037C71.6985 84.1339 72.4847 83.3477 73.4546 83.3477Z" fill="white"/>
<path d="M83.5841 83.3477H83.1938C83.1938 83.3477 82.9517 83.3477 82.6417 83.3477C82.5943 83.3477 82.5453 83.3477 82.4953 83.3477C82.1012 83.3477 81.647 83.3477 81.4377 83.3477C80.4675 83.3477 79.6816 84.1341 79.6816 85.1037C79.6816 86.0733 80.4675 86.8598 81.4377 86.8598C81.6991 86.8598 82.1272 86.8598 82.4953 86.8598C82.5454 86.8598 82.5944 86.8598 82.6417 86.8598C82.9546 86.8598 83.1938 86.8598 83.1938 86.8598H83.5841H83.8332V83.3477H83.5841Z" fill="white"/>
<path d="M85.909 83.3477H83.8333V86.8598H85.909H87.9848V83.3477H85.909Z" fill="white"/>
<path d="M90.0606 83.3477H87.9849V86.8598H90.0606H92.1364V83.3477H90.0606Z" fill="white"/>
<path d="M94.212 83.3477H92.1362V86.8598H94.212H96.2877V83.3477H94.212Z" fill="white"/>
<path d="M98.3636 83.3477H96.2878V86.8598H98.3636H100.439V83.3477H98.3636Z" fill="white"/>
<path d="M102.515 83.3477H100.439V86.8598H102.515H104.591V83.3477H102.515Z" fill="white"/>
<path d="M106.667 83.3477H104.591V86.8598H106.667H108.742V83.3477H106.667Z" fill="white"/>
<path d="M110.818 83.3477H108.742V86.8598H110.818H112.894V83.3477H110.818Z" fill="white"/>
<path d="M115.289 83.3477C114.933 83.3477 114.266 83.3477 113.865 83.3477C113.667 83.3477 113.533 83.3477 113.533 83.3477H113.388H113.143H112.894V86.8598H113.143H113.388H113.533C113.533 86.8598 113.668 86.8598 113.865 86.8598C114.291 86.8598 115.009 86.8598 115.289 86.8598C116.259 86.8598 117.045 86.0735 117.045 85.1037C117.045 84.1339 116.259 83.3477 115.289 83.3477Z" fill="white"/>
<path d="M36.0908 87.4993C37.0607 87.4993 37.8469 88.2855 37.8469 89.2554C37.8469 90.2253 37.0607 91.0114 36.0908 91.0114C35.121 91.0114 34.3347 90.2253 34.3347 89.2554C34.3347 88.2855 35.121 87.4993 36.0908 87.4993Z" fill="white"/>
<path d="M48.5454 87.4993C49.5153 87.4993 50.3015 88.2855 50.3015 89.2554C50.3015 90.2253 49.5153 91.0114 48.5454 91.0114C47.5755 91.0114 46.7893 90.2253 46.7893 89.2554C46.7893 88.2855 47.5755 87.4993 48.5454 87.4993Z" fill="white"/>
<path d="M56.8484 87.4993C57.8183 87.4993 58.6045 88.2855 58.6045 89.2554C58.6045 90.2253 57.8183 91.0114 56.8484 91.0114C55.8785 91.0114 55.0923 90.2253 55.0923 89.2554C55.0923 88.2855 55.8785 87.4993 56.8484 87.4993Z" fill="white"/>
<path d="M71.1297 87.4993H70.7395C70.7395 87.4993 70.4974 87.4993 70.1873 87.4993C70.1399 87.4993 70.0909 87.4993 70.0409 87.4993C69.6469 87.4993 69.1926 87.4993 68.9834 87.4993C68.0132 87.4993 67.2273 88.2857 67.2273 89.2554C67.2273 90.2249 68.0132 91.0114 68.9834 91.0114C69.2448 91.0114 69.6729 91.0114 70.0409 91.0114C70.0911 91.0114 70.14 91.0114 70.1873 91.0114C70.5002 91.0114 70.7395 91.0114 70.7395 91.0114H71.1297H71.3788V87.4993H71.1297Z" fill="white"/>
<path d="M73.4544 87.4993H71.3787V91.0114H73.4544H75.5302V87.4993H73.4544Z" fill="white"/>
<path d="M77.9257 87.4993C77.5694 87.4993 76.9029 87.4993 76.5013 87.4993C76.3032 87.4993 76.1696 87.4993 76.1696 87.4993H76.0243H75.7794H75.5303V91.0114H75.7794H76.0243H76.1696C76.1696 91.0114 76.3042 91.0114 76.5013 91.0114C76.9275 91.0114 77.6458 91.0114 77.9257 91.0114C78.8955 91.0114 79.6818 90.2252 79.6818 89.2554C79.6818 88.2855 78.8955 87.4993 77.9257 87.4993Z" fill="white"/>
<path d="M85.9089 87.4993C86.8788 87.4993 87.665 88.2855 87.665 89.2554C87.665 90.2253 86.8788 91.0114 85.9089 91.0114C84.9391 91.0114 84.1528 90.2253 84.1528 89.2554C84.1528 88.2855 84.9391 87.4993 85.9089 87.4993Z" fill="white"/>
<path d="M104.342 87.4993H103.952C103.952 87.4993 103.71 87.4993 103.399 87.4993C103.352 87.4993 103.303 87.4993 103.253 87.4993C102.859 87.4993 102.405 87.4993 102.196 87.4993C101.225 87.4993 100.439 88.2857 100.439 89.2554C100.439 90.2249 101.225 91.0114 102.196 91.0114C102.457 91.0114 102.885 91.0114 103.253 91.0114C103.303 91.0114 103.352 91.0114 103.399 91.0114C103.712 91.0114 103.952 91.0114 103.952 91.0114H104.342H104.591V87.4993H104.342Z" fill="white"/>
<path d="M106.986 87.4993C106.63 87.4993 105.963 87.4993 105.562 87.4993C105.364 87.4993 105.23 87.4993 105.23 87.4993H105.085H104.84H104.591V91.0114H104.84H105.085H105.23C105.23 91.0114 105.365 91.0114 105.562 91.0114C105.988 91.0114 106.706 91.0114 106.986 91.0114C107.956 91.0114 108.742 90.2252 108.742 89.2554C108.742 88.2855 107.956 87.4993 106.986 87.4993Z" fill="white"/>
<path d="M36.0908 91.6506C37.0607 91.6506 37.8469 92.4369 37.8469 93.4067C37.8469 94.3766 37.0607 95.1628 36.0908 95.1628C35.121 95.1628 34.3347 94.3766 34.3347 93.4067C34.3347 92.4369 35.121 91.6506 36.0908 91.6506Z" fill="white"/>
<path d="M56.8484 91.6506C57.8183 91.6506 58.6045 92.4369 58.6045 93.4067C58.6045 94.3766 57.8183 95.1628 56.8484 95.1628C55.8785 95.1628 55.0923 94.3766 55.0923 93.4067C55.0923 92.4369 55.8785 91.6506 56.8484 91.6506Z" fill="white"/>
<path d="M66.9781 91.6506H66.5879C66.5879 91.6506 66.3458 91.6506 66.0357 91.6506C65.9883 91.6506 65.9393 91.6506 65.8893 91.6506C65.4953 91.6506 65.041 91.6506 64.8318 91.6506C63.8616 91.6506 63.0757 92.4371 63.0757 93.4067C63.0757 94.3762 63.8616 95.1628 64.8318 95.1628C65.0932 95.1628 65.5213 95.1628 65.8893 95.1628C65.9394 95.1628 65.9884 95.1628 66.0357 95.1628C66.3486 95.1628 66.5879 95.1628 66.5879 95.1628H66.9781H67.2272V91.6506H66.9781Z" fill="white"/>
<path d="M69.6227 91.6506C69.2665 91.6506 68.5999 91.6506 68.1983 91.6506C68.0002 91.6506 67.8666 91.6506 67.8666 91.6506H67.7213H67.4764H67.2273V95.1628H67.4764H67.7213H67.8666C67.8666 95.1628 68.0013 95.1628 68.1983 95.1628C68.6245 95.1628 69.3428 95.1628 69.6227 95.1628C70.5925 95.1628 71.3788 94.3765 71.3788 93.4067C71.3788 92.4369 70.5925 91.6506 69.6227 91.6506Z" fill="white"/>
<path d="M83.5841 91.6506H83.1938C83.1938 91.6506 82.9517 91.6506 82.6417 91.6506C82.5943 91.6506 82.5453 91.6506 82.4953 91.6506C82.1012 91.6506 81.647 91.6506 81.4377 91.6506C80.4675 91.6506 79.6816 92.4371 79.6816 93.4067C79.6816 94.3762 80.4675 95.1628 81.4377 95.1628C81.6991 95.1628 82.1272 95.1628 82.4953 95.1628C82.5454 95.1628 82.5944 95.1628 82.6417 95.1628C82.9546 95.1628 83.1938 95.1628 83.1938 95.1628H83.5841H83.8332V91.6506H83.5841Z" fill="white"/>
<path d="M86.2287 91.6506C85.8724 91.6506 85.2058 91.6506 84.8043 91.6506C84.6062 91.6506 84.4726 91.6506 84.4726 91.6506H84.3273H84.0823H83.8333V95.1628H84.0823H84.3273H84.4726C84.4726 95.1628 84.6072 95.1628 84.8043 95.1628C85.2305 95.1628 85.9488 95.1628 86.2287 95.1628C87.1985 95.1628 87.9848 94.3765 87.9848 93.4067C87.9848 92.4369 87.1985 91.6506 86.2287 91.6506Z" fill="white"/>
<path d="M94.2121 91.6506C95.182 91.6506 95.9682 92.4369 95.9682 93.4067C95.9682 94.3766 95.182 95.1628 94.2121 95.1628C93.2423 95.1628 92.4561 94.3766 92.4561 93.4067C92.4561 92.4369 93.2423 91.6506 94.2121 91.6506Z" fill="white"/>
<path d="M104.342 91.6506H103.952C103.952 91.6506 103.71 91.6506 103.399 91.6506C103.352 91.6506 103.303 91.6506 103.253 91.6506C102.859 91.6506 102.405 91.6506 102.196 91.6506C101.225 91.6506 100.439 92.4371 100.439 93.4067C100.439 94.3762 101.225 95.1628 102.196 95.1628C102.457 95.1628 102.885 95.1628 103.253 95.1628C103.303 95.1628 103.352 95.1628 103.399 95.1628C103.712 95.1628 103.952 95.1628 103.952 95.1628H104.342H104.591V91.6506H104.342Z" fill="white"/>
<path d="M106.986 91.6506C106.63 91.6506 105.963 91.6506 105.562 91.6506C105.364 91.6506 105.23 91.6506 105.23 91.6506H105.085H104.84H104.591V95.1628H104.84H105.085H105.23C105.23 95.1628 105.365 95.1628 105.562 95.1628C105.988 95.1628 106.706 95.1628 106.986 95.1628C107.956 95.1628 108.742 94.3765 108.742 93.4067C108.742 92.4369 107.956 91.6506 106.986 91.6506Z" fill="white"/>
<path d="M37.9176 95.8022H37.5273C37.5273 95.8022 37.2852 95.8022 36.9752 95.8022C36.9277 95.8022 36.8788 95.8022 36.8288 95.8022C36.4347 95.8022 35.9805 95.8022 35.7712 95.8022C34.801 95.8022 34.0151 96.5887 34.0151 97.5583C34.0151 98.5278 34.801 99.3144 35.7712 99.3144C36.0326 99.3144 36.4607 99.3144 36.8288 99.3144C36.8789 99.3144 36.9279 99.3144 36.9752 99.3144C37.2881 99.3144 37.5273 99.3144 37.5273 99.3144H37.9176H38.1667V95.8022H37.9176Z" fill="white"/>
<path d="M40.2423 95.8022H38.1665V99.3144H40.2423H42.318V95.8022H40.2423Z" fill="white"/>
<path d="M44.7135 95.8022C44.3573 95.8022 43.6907 95.8022 43.2892 95.8022C43.0911 95.8022 42.9574 95.8022 42.9574 95.8022H42.8121H42.5672H42.3181V99.3144H42.5672H42.8121H42.9574C42.9574 99.3144 43.0921 99.3144 43.2892 99.3144C43.7154 99.3144 44.4336 99.3144 44.7135 99.3144C45.6833 99.3144 46.4696 98.5281 46.4696 97.5583C46.4696 96.5885 45.6833 95.8022 44.7135 95.8022Z" fill="white"/>
<path d="M54.5235 95.8022H54.1333C54.1333 95.8022 53.8912 95.8022 53.5811 95.8022C53.5337 95.8022 53.4847 95.8022 53.4347 95.8022C53.0407 95.8022 52.5864 95.8022 52.3772 95.8022C51.407 95.8022 50.6211 96.5887 50.6211 97.5583C50.6211 98.5278 51.407 99.3144 52.3772 99.3144C52.6386 99.3144 53.0667 99.3144 53.4347 99.3144C53.4849 99.3144 53.5338 99.3144 53.5811 99.3144C53.894 99.3144 54.1333 99.3144 54.1333 99.3144H54.5235H54.7726V95.8022H54.5235Z" fill="white"/>
<path d="M57.1681 95.8022C56.8119 95.8022 56.1453 95.8022 55.7437 95.8022C55.5457 95.8022 55.412 95.8022 55.412 95.8022H55.2667H55.0218H54.7727V99.3144H55.0218H55.2667H55.412C55.412 99.3144 55.5467 99.3144 55.7437 99.3144C56.17 99.3144 56.8882 99.3144 57.1681 99.3144C58.1379 99.3144 58.9242 98.5281 58.9242 97.5583C58.9242 96.5885 58.1379 95.8022 57.1681 95.8022Z" fill="white"/>
<path d="M71.1297 95.8022H70.7395C70.7395 95.8022 70.4974 95.8022 70.1873 95.8022C70.1399 95.8022 70.0909 95.8022 70.0409 95.8022C69.6469 95.8022 69.1926 95.8022 68.9834 95.8022C68.0132 95.8022 67.2273 96.5887 67.2273 97.5583C67.2273 98.5278 68.0132 99.3144 68.9834 99.3144C69.2448 99.3144 69.6729 99.3144 70.0409 99.3144C70.0911 99.3144 70.14 99.3144 70.1873 99.3144C70.5002 99.3144 70.7395 99.3144 70.7395 99.3144H71.1297H71.3788V95.8022H71.1297Z" fill="white"/>
<path d="M73.7741 95.8022C73.4178 95.8022 72.7513 95.8022 72.3497 95.8022C72.1516 95.8022 72.018 95.8022 72.018 95.8022H71.8727H71.6278H71.3787V99.3144H71.6278H71.8727H72.018C72.018 99.3144 72.1526 99.3144 72.3497 99.3144C72.7759 99.3144 73.4942 99.3144 73.7741 99.3144C74.7439 99.3144 75.5302 98.5281 75.5302 97.5583C75.5302 96.5885 74.7439 95.8022 73.7741 95.8022Z" fill="white"/>
<path d="M83.5841 95.8022H83.1938C83.1938 95.8022 82.9517 95.8022 82.6417 95.8022C82.5943 95.8022 82.5453 95.8022 82.4953 95.8022C82.1012 95.8022 81.647 95.8022 81.4377 95.8022C80.4675 95.8022 79.6816 96.5887 79.6816 97.5583C79.6816 98.5278 80.4675 99.3144 81.4377 99.3144C81.6991 99.3144 82.1272 99.3144 82.4953 99.3144C82.5454 99.3144 82.5944 99.3144 82.6417 99.3144C82.9546 99.3144 83.1938 99.3144 83.1938 99.3144H83.5841H83.8332V95.8022H83.5841Z" fill="white"/>
<path d="M86.2287 95.8022C85.8724 95.8022 85.2058 95.8022 84.8043 95.8022C84.6062 95.8022 84.4726 95.8022 84.4726 95.8022H84.3273H84.0823H83.8333V99.3144H84.0823H84.3273H84.4726C84.4726 99.3144 84.6072 99.3144 84.8043 99.3144C85.2305 99.3144 85.9488 99.3144 86.2287 99.3144C87.1985 99.3144 87.9848 98.5281 87.9848 97.5583C87.9848 96.5885 87.1985 95.8022 86.2287 95.8022Z" fill="white"/>
<path d="M102.515 95.8022C103.485 95.8022 104.271 96.5885 104.271 97.5583C104.271 98.5282 103.485 99.3144 102.515 99.3144C101.545 99.3144 100.759 98.5282 100.759 97.5583C100.759 96.5885 101.545 95.8022 102.515 95.8022Z" fill="white"/>
<path d="M116.796 95.8022H116.406C116.406 95.8022 116.164 95.8022 115.854 95.8022C115.806 95.8022 115.757 95.8022 115.707 95.8022C115.313 95.8022 114.859 95.8022 114.65 95.8022C113.68 95.8022 112.894 96.5887 112.894 97.5583C112.894 98.5278 113.68 99.3144 114.65 99.3144C114.911 99.3144 115.339 99.3144 115.707 99.3144C115.758 99.3144 115.807 99.3144 115.854 99.3144C116.167 99.3144 116.406 99.3144 116.406 99.3144H116.796H117.045V95.8022H116.796Z" fill="white"/>
<path d="M119.441 95.8022C119.085 95.8022 118.418 95.8022 118.016 95.8022C117.818 95.8022 117.685 95.8022 117.685 95.8022H117.539H117.295H117.045V99.3144H117.295H117.539H117.685C117.685 99.3144 117.819 99.3144 118.016 99.3144C118.443 99.3144 119.161 99.3144 119.441 99.3144C120.411 99.3144 121.197 98.5281 121.197 97.5583C121.197 96.5885 120.411 95.8022 119.441 95.8022Z" fill="white"/>
<path d="M36.0908 99.9536C37.0607 99.9536 37.8469 100.74 37.8469 101.71C37.8469 102.68 37.0607 103.466 36.0908 103.466C35.121 103.466 34.3347 102.68 34.3347 101.71C34.3347 100.74 35.121 99.9536 36.0908 99.9536Z" fill="white"/>
<path d="M50.3722 99.9536H49.9819C49.9819 99.9536 49.7398 99.9536 49.4298 99.9536C49.3823 99.9536 49.3334 99.9536 49.2834 99.9536C48.8893 99.9536 48.4351 99.9536 48.2258 99.9536C47.2556 99.9536 46.4697 100.74 46.4697 101.71C46.4697 102.679 47.2556 103.466 48.2258 103.466C48.4872 103.466 48.9153 103.466 49.2834 103.466C49.3335 103.466 49.3824 103.466 49.4298 103.466C49.7427 103.466 49.9819 103.466 49.9819 103.466H50.3722H50.6212V99.9536H50.3722Z" fill="white"/>
<path d="M52.6969 99.9536H50.6211V103.466H52.6969H54.7726V99.9536H52.6969Z" fill="white"/>
<path d="M57.1681 99.9536C56.8119 99.9536 56.1453 99.9536 55.7437 99.9536C55.5457 99.9536 55.412 99.9536 55.412 99.9536H55.2667H55.0218H54.7727V103.466H55.0218H55.2667H55.412C55.412 103.466 55.5467 103.466 55.7437 103.466C56.17 103.466 56.8882 103.466 57.1681 103.466C58.1379 103.466 58.9242 102.679 58.9242 101.71C58.9242 100.74 58.1379 99.9536 57.1681 99.9536Z" fill="white"/>
<path d="M66.9781 99.9536H66.5879C66.5879 99.9536 66.3458 99.9536 66.0357 99.9536C65.9883 99.9536 65.9393 99.9536 65.8893 99.9536C65.4953 99.9536 65.041 99.9536 64.8318 99.9536C63.8616 99.9536 63.0757 100.74 63.0757 101.71C63.0757 102.679 63.8616 103.466 64.8318 103.466C65.0932 103.466 65.5213 103.466 65.8893 103.466C65.9394 103.466 65.9884 103.466 66.0357 103.466C66.3486 103.466 66.5879 103.466 66.5879 103.466H66.9781H67.2272V99.9536H66.9781Z" fill="white"/>
<path d="M69.6227 99.9536C69.2665 99.9536 68.5999 99.9536 68.1983 99.9536C68.0002 99.9536 67.8666 99.9536 67.8666 99.9536H67.7213H67.4764H67.2273V103.466H67.4764H67.7213H67.8666C67.8666 103.466 68.0013 103.466 68.1983 103.466C68.6245 103.466 69.3428 103.466 69.6227 103.466C70.5925 103.466 71.3788 102.679 71.3788 101.71C71.3788 100.74 70.5925 99.9536 69.6227 99.9536Z" fill="white"/>
<path d="M83.5841 99.9536H83.1938C83.1938 99.9536 82.9517 99.9536 82.6417 99.9536C82.5943 99.9536 82.5453 99.9536 82.4953 99.9536C82.1012 99.9536 81.647 99.9536 81.4377 99.9536C80.4675 99.9536 79.6816 100.74 79.6816 101.71C79.6816 102.679 80.4675 103.466 81.4377 103.466C81.6991 103.466 82.1272 103.466 82.4953 103.466C82.5454 103.466 82.5944 103.466 82.6417 103.466C82.9546 103.466 83.1938 103.466 83.1938 103.466H83.5841H83.8332V99.9536H83.5841Z" fill="white"/>
<path d="M85.909 99.9536H83.8333V103.466H85.909H87.9848V99.9536H85.909Z" fill="white"/>
<path d="M90.0606 99.9536H87.9849V103.466H90.0606H92.1364V99.9536H90.0606Z" fill="white"/>
<path d="M94.212 99.9536H92.1362V103.466H94.212H96.2877V99.9536H94.212Z" fill="white"/>
<path d="M98.3636 99.9536H96.2878V103.466H98.3636H100.439V99.9536H98.3636Z" fill="white"/>
<path d="M102.515 99.9536H100.439V103.466H102.515H104.591V99.9536H102.515Z" fill="white"/>
<path d="M106.986 99.9536C106.63 99.9536 105.963 99.9536 105.562 99.9536C105.364 99.9536 105.23 99.9536 105.23 99.9536H105.085H104.84H104.591V103.466H104.84H105.085H105.23C105.23 103.466 105.365 103.466 105.562 103.466C105.988 103.466 106.706 103.466 106.986 103.466C107.956 103.466 108.742 102.679 108.742 101.71C108.742 100.74 107.956 99.9536 106.986 99.9536Z" fill="white"/>
<path d="M36.0908 104.105C37.0607 104.105 37.8469 104.891 37.8469 105.861C37.8469 106.831 37.0607 107.617 36.0908 107.617C35.121 107.617 34.3347 106.831 34.3347 105.861C34.3347 104.891 35.121 104.105 36.0908 104.105Z" fill="white"/>
<path d="M54.5235 104.105H54.1333C54.1333 104.105 53.8912 104.105 53.5811 104.105C53.5337 104.105 53.4847 104.105 53.4347 104.105C53.0407 104.105 52.5864 104.105 52.3772 104.105C51.407 104.105 50.6211 104.892 50.6211 105.861C50.6211 106.831 51.407 107.617 52.3772 107.617C52.6386 107.617 53.0667 107.617 53.4347 107.617C53.4849 107.617 53.5338 107.617 53.5811 107.617C53.894 107.617 54.1333 107.617 54.1333 107.617H54.5235H54.7726V104.105H54.5235Z" fill="white"/>
<path d="M56.8485 104.105H54.7727V107.617H56.8485H58.9242V104.105H56.8485Z" fill="white"/>
<path d="M61.3195 104.105C60.9632 104.105 60.2967 104.105 59.8951 104.105C59.697 104.105 59.5634 104.105 59.5634 104.105H59.4181H59.1732H58.9241V107.617H59.1732H59.4181H59.5634C59.5634 107.617 59.698 107.617 59.8951 107.617C60.3213 107.617 61.0396 107.617 61.3195 107.617C62.2893 107.617 63.0756 106.831 63.0756 105.861C63.0756 104.891 62.2893 104.105 61.3195 104.105Z" fill="white"/>
<path d="M71.1297 104.105H70.7395C70.7395 104.105 70.4974 104.105 70.1873 104.105C70.1399 104.105 70.0909 104.105 70.0409 104.105C69.6469 104.105 69.1926 104.105 68.9834 104.105C68.0132 104.105 67.2273 104.892 67.2273 105.861C67.2273 106.831 68.0132 107.617 68.9834 107.617C69.2448 107.617 69.6729 107.617 70.0409 107.617C70.0911 107.617 70.14 107.617 70.1873 107.617C70.5002 107.617 70.7395 107.617 70.7395 107.617H71.1297H71.3788V104.105H71.1297Z" fill="white"/>
<path d="M73.4544 104.105H71.3787V107.617H73.4544H75.5302V104.105H73.4544Z" fill="white"/>
<path d="M77.606 104.105H75.5303V107.617H77.606H79.6818V104.105H77.606Z" fill="white"/>
<path d="M81.7574 104.105H79.6816V107.617H81.7574H83.8332V104.105H81.7574Z" fill="white"/>
<path d="M85.909 104.105H83.8333V107.617H85.909H87.9848V104.105H85.909Z" fill="white"/>
<path d="M90.3803 104.105C90.024 104.105 89.3575 104.105 88.9559 104.105C88.7578 104.105 88.6242 104.105 88.6242 104.105H88.4789H88.234H87.9849V107.617H88.234H88.4789H88.6242C88.6242 107.617 88.7588 107.617 88.9559 107.617C89.3821 107.617 90.1004 107.617 90.3803 107.617C91.3501 107.617 92.1364 106.831 92.1364 105.861C92.1364 104.891 91.3501 104.105 90.3803 104.105Z" fill="white"/>
<path d="M98.3635 104.105C99.3334 104.105 100.12 104.891 100.12 105.861C100.12 106.831 99.3334 107.617 98.3635 107.617C97.3937 107.617 96.6074 106.831 96.6074 105.861C96.6074 104.891 97.3937 104.105 98.3635 104.105Z" fill="white"/>
<path d="M114.97 104.105C115.94 104.105 116.726 104.891 116.726 105.861C116.726 106.831 115.94 107.617 114.97 107.617C114 107.617 113.214 106.831 113.214 105.861C113.214 104.891 114 104.105 114.97 104.105Z" fill="white"/>
<path d="M44.3938 108.257C45.3637 108.257 46.1499 109.043 46.1499 110.013C46.1499 110.983 45.3637 111.769 44.3938 111.769C43.4239 111.769 42.6377 110.983 42.6377 110.013C42.6377 109.043 43.4239 108.257 44.3938 108.257Z" fill="white"/>
<path d="M56.8484 108.257C57.8183 108.257 58.6045 109.043 58.6045 110.013C58.6045 110.983 57.8183 111.769 56.8484 111.769C55.8785 111.769 55.0923 110.983 55.0923 110.013C55.0923 109.043 55.8785 108.257 56.8484 108.257Z" fill="white"/>
<path d="M69.303 108.257C70.2729 108.257 71.0591 109.043 71.0591 110.013C71.0591 110.983 70.2729 111.769 69.303 111.769C68.3331 111.769 67.5469 110.983 67.5469 110.013C67.5469 109.043 68.3331 108.257 69.303 108.257Z" fill="white"/>
<path d="M90.0605 108.257C91.0304 108.257 91.8166 109.043 91.8166 110.013C91.8166 110.983 91.0304 111.769 90.0605 111.769C89.0907 111.769 88.3044 110.983 88.3044 110.013C88.3044 109.043 89.0907 108.257 90.0605 108.257Z" fill="white"/>
<path d="M100.19 108.257H99.8C99.8 108.257 99.5579 108.257 99.2479 108.257C99.2005 108.257 99.1515 108.257 99.1015 108.257C98.7074 108.257 98.2532 108.257 98.0439 108.257C97.0737 108.257 96.2878 109.043 96.2878 110.013C96.2878 110.982 97.0737 111.769 98.0439 111.769C98.3053 111.769 98.7334 111.769 99.1015 111.769C99.1516 111.769 99.2006 111.769 99.2479 111.769C99.5608 111.769 99.8 111.769 99.8 111.769H100.19H100.439V108.257H100.19Z" fill="white"/>
<path d="M102.835 108.257C102.479 108.257 101.812 108.257 101.41 108.257C101.212 108.257 101.079 108.257 101.079 108.257H100.933H100.689H100.439V111.769H100.689H100.933H101.079C101.079 111.769 101.213 111.769 101.41 111.769C101.837 111.769 102.555 111.769 102.835 111.769C103.805 111.769 104.591 110.983 104.591 110.013C104.591 109.043 103.805 108.257 102.835 108.257Z" fill="white"/>
<path d="M112.645 108.257H112.255C112.255 108.257 112.013 108.257 111.702 108.257C111.655 108.257 111.606 108.257 111.556 108.257C111.162 108.257 110.708 108.257 110.499 108.257C109.528 108.257 108.742 109.043 108.742 110.013C108.742 110.982 109.528 111.769 110.499 111.769C110.76 111.769 111.188 111.769 111.556 111.769C111.606 111.769 111.655 111.769 111.702 111.769C112.015 111.769 112.255 111.769 112.255 111.769H112.645H112.894V108.257H112.645Z" fill="white"/>
<path d="M114.97 108.257H112.894V111.769H114.97H117.045V108.257H114.97Z" fill="white"/>
<path d="M119.441 108.257C119.085 108.257 118.418 108.257 118.016 108.257C117.818 108.257 117.685 108.257 117.685 108.257H117.539H117.295H117.045V111.769H117.295H117.539H117.685C117.685 111.769 117.819 111.769 118.016 111.769C118.443 111.769 119.161 111.769 119.441 111.769C120.411 111.769 121.197 110.983 121.197 110.013C121.197 109.043 120.411 108.257 119.441 108.257Z" fill="white"/>
<path d="M48.5454 112.408C49.5153 112.408 50.3015 113.194 50.3015 114.164C50.3015 115.134 49.5153 115.92 48.5454 115.92C47.5755 115.92 46.7893 115.134 46.7893 114.164C46.7893 113.194 47.5755 112.408 48.5454 112.408Z" fill="white"/>
<path d="M56.8484 112.408C57.8183 112.408 58.6045 113.194 58.6045 114.164C58.6045 115.134 57.8183 115.92 56.8484 115.92C55.8785 115.92 55.0923 115.134 55.0923 114.164C55.0923 113.194 55.8785 112.408 56.8484 112.408Z" fill="white"/>
<path d="M65.1514 112.408C66.1213 112.408 66.9074 113.194 66.9074 114.164C66.9074 115.134 66.1213 115.92 65.1514 115.92C64.1815 115.92 63.3953 115.134 63.3953 114.164C63.3953 113.194 64.1815 112.408 65.1514 112.408Z" fill="white"/>
<path d="M90.0605 112.408C91.0304 112.408 91.8166 113.194 91.8166 114.164C91.8166 115.134 91.0304 115.92 90.0605 115.92C89.0907 115.92 88.3044 115.134 88.3044 114.164C88.3044 113.194 89.0907 112.408 90.0605 112.408Z" fill="white"/>
<path d="M98.3635 112.408C99.3334 112.408 100.12 113.194 100.12 114.164C100.12 115.134 99.3334 115.92 98.3635 115.92C97.3937 115.92 96.6074 115.134 96.6074 114.164C96.6074 113.194 97.3937 112.408 98.3635 112.408Z" fill="white"/>
<path d="M108.493 112.408H108.103C108.103 112.408 107.861 112.408 107.551 112.408C107.503 112.408 107.454 112.408 107.404 112.408C107.01 112.408 106.556 112.408 106.347 112.408C105.377 112.408 104.591 113.195 104.591 114.164C104.591 115.134 105.377 115.92 106.347 115.92C106.608 115.92 107.036 115.92 107.404 115.92C107.455 115.92 107.504 115.92 107.551 115.92C107.864 115.92 108.103 115.92 108.103 115.92H108.493H108.742V112.408H108.493Z" fill="white"/>
<path d="M111.138 112.408C110.782 112.408 110.115 112.408 109.713 112.408C109.515 112.408 109.382 112.408 109.382 112.408H109.236H108.992H108.742V115.92H108.992H109.236H109.382C109.382 115.92 109.516 115.92 109.713 115.92C110.14 115.92 110.858 115.92 111.138 115.92C112.108 115.92 112.894 115.134 112.894 114.164C112.894 113.194 112.108 112.408 111.138 112.408Z" fill="white"/>
<path d="M119.121 112.408C120.091 112.408 120.877 113.194 120.877 114.164C120.877 115.134 120.091 115.92 119.121 115.92C118.151 115.92 117.365 115.134 117.365 114.164C117.365 113.194 118.151 112.408 119.121 112.408Z" fill="white"/>
<path d="M36.0908 116.56C37.0607 116.56 37.8469 117.346 37.8469 118.316C37.8469 119.286 37.0607 120.072 36.0908 120.072C35.121 120.072 34.3347 119.286 34.3347 118.316C34.3347 117.346 35.121 116.56 36.0908 116.56Z" fill="white"/>
<path d="M50.3722 116.56H49.9819C49.9819 116.56 49.7398 116.56 49.4298 116.56C49.3823 116.56 49.3334 116.56 49.2834 116.56C48.8893 116.56 48.4351 116.56 48.2258 116.56C47.2556 116.56 46.4697 117.346 46.4697 118.316C46.4697 119.285 47.2556 120.072 48.2258 120.072C48.4872 120.072 48.9153 120.072 49.2834 120.072C49.3335 120.072 49.3824 120.072 49.4298 120.072C49.7427 120.072 49.9819 120.072 49.9819 120.072H50.3722H50.6212V116.56H50.3722Z" fill="white"/>
<path d="M53.0165 116.56C52.6603 116.56 51.9937 116.56 51.5921 116.56C51.394 116.56 51.2604 116.56 51.2604 116.56H51.1151H50.8702H50.6211V120.072H50.8702H51.1151H51.2604C51.2604 120.072 51.3951 120.072 51.5921 120.072C52.0183 120.072 52.7366 120.072 53.0165 120.072C53.9863 120.072 54.7726 119.286 54.7726 118.316C54.7726 117.346 53.9863 116.56 53.0165 116.56Z" fill="white"/>
<path d="M75.2811 116.56H74.8908C74.8908 116.56 74.6488 116.56 74.3387 116.56C74.2913 116.56 74.2423 116.56 74.1923 116.56C73.7982 116.56 73.344 116.56 73.1348 116.56C72.1645 116.56 71.3787 117.346 71.3787 118.316C71.3787 119.285 72.1645 120.072 73.1348 120.072C73.3961 120.072 73.8242 120.072 74.1923 120.072C74.2424 120.072 74.2914 120.072 74.3387 120.072C74.6516 120.072 74.8908 120.072 74.8908 120.072H75.2811H75.5302V116.56H75.2811Z" fill="white"/>
<path d="M77.606 116.56H75.5303V120.072H77.606H79.6818V116.56H77.606Z" fill="white"/>
<path d="M81.7574 116.56H79.6816V120.072H81.7574H83.8332V116.56H81.7574Z" fill="white"/>
<path d="M86.2287 116.56C85.8724 116.56 85.2058 116.56 84.8043 116.56C84.6062 116.56 84.4726 116.56 84.4726 116.56H84.3273H84.0823H83.8333V120.072H84.0823H84.3273H84.4726C84.4726 120.072 84.6072 120.072 84.8043 120.072C85.2305 120.072 85.9488 120.072 86.2287 120.072C87.1985 120.072 87.9848 119.286 87.9848 118.316C87.9848 117.346 87.1985 116.56 86.2287 116.56Z" fill="white"/>
<path d="M94.2121 116.56C95.182 116.56 95.9682 117.346 95.9682 118.316C95.9682 119.286 95.182 120.072 94.2121 120.072C93.2423 120.072 92.4561 119.286 92.4561 118.316C92.4561 117.346 93.2423 116.56 94.2121 116.56Z" fill="white"/>
<path d="M104.342 116.56H103.952C103.952 116.56 103.71 116.56 103.399 116.56C103.352 116.56 103.303 116.56 103.253 116.56C102.859 116.56 102.405 116.56 102.196 116.56C101.225 116.56 100.439 117.346 100.439 118.316C100.439 119.285 101.225 120.072 102.196 120.072C102.457 120.072 102.885 120.072 103.253 120.072C103.303 120.072 103.352 120.072 103.399 120.072C103.712 120.072 103.952 120.072 103.952 120.072H104.342H104.591V116.56H104.342Z" fill="white"/>
<path d="M106.986 116.56C106.63 116.56 105.963 116.56 105.562 116.56C105.364 116.56 105.23 116.56 105.23 116.56H105.085H104.84H104.591V120.072H104.84H105.085H105.23C105.23 120.072 105.365 120.072 105.562 120.072C105.988 120.072 106.706 120.072 106.986 120.072C107.956 120.072 108.742 119.286 108.742 118.316C108.742 117.346 107.956 116.56 106.986 116.56Z" fill="white"/>
<path d="M19.942 0H10.7246C6.23237 0 2.42659 2.96796 1.20983 7.02453C1.08399 7.44416 0.98577 7.87542 0.917477 8.31627C0.84221 8.80275 0.802979 9.30085 0.802979 9.80795V19.2442C0.802979 24.655 5.25506 29.0551 10.7246 29.0551L15.3333 29.056L19.942 29.0548C25.4112 29.0548 29.8636 24.6547 29.8636 19.2439V9.80795C29.8636 4.39978 25.4115 0 19.942 0ZM25.5045 19.2442C25.5045 22.2502 23.0093 24.696 19.9408 24.696L15.3333 24.6969L10.7257 24.6957C7.65721 24.6957 5.16207 22.25 5.16207 19.2442V9.80795C5.16207 8.86901 5.4056 7.98498 5.83424 7.21255C6.2469 6.46947 6.83073 5.83043 7.53371 5.34657C8.43749 4.72438 9.53802 4.35909 10.7243 4.35909H19.942C23.0093 4.35909 25.5045 6.80338 25.5045 9.80795V19.2442Z" fill="white"/>
<path d="M111.275 0H102.058C97.5656 0 93.7598 2.96796 92.5431 7.02453C92.4172 7.44416 92.319 7.87542 92.2507 8.31627C92.1755 8.80275 92.1362 9.30085 92.1362 9.80795V19.2442C92.1362 24.655 96.5883 29.0551 102.058 29.0551L106.667 29.056L111.275 29.0548C116.744 29.0548 121.197 24.6547 121.197 19.2439V9.80795C121.197 4.39978 116.745 0 111.275 0ZM116.838 19.2442C116.838 22.2502 114.343 24.696 111.274 24.696L106.667 24.6969L102.059 24.6957C98.9905 24.6957 96.4953 22.25 96.4953 19.2442V9.80795C96.4953 8.86901 96.7388 7.98498 97.1675 7.21255C97.5802 6.46947 98.164 5.83043 98.867 5.34657C99.7707 4.72438 100.871 4.35909 102.058 4.35909H111.275C114.343 4.35909 116.838 6.80338 116.838 9.80795V19.2442Z" fill="white"/>
<path d="M19.942 91.3333H10.7246C6.23237 91.3333 2.42659 94.3012 1.20983 98.3578C1.08399 98.7774 0.98577 99.2087 0.917477 99.6495C0.84221 100.136 0.802979 100.634 0.802979 101.141V110.577C0.802979 115.988 5.25506 120.388 10.7246 120.388L15.3333 120.389L19.942 120.388C25.4112 120.388 29.8636 115.988 29.8636 110.577V101.141C29.8636 95.733 25.4115 91.3333 19.942 91.3333ZM25.5045 110.577C25.5045 113.584 23.0093 116.029 19.9408 116.029L15.3333 116.03L10.7257 116.029C7.65721 116.029 5.16207 113.583 5.16207 110.577V101.141C5.16207 100.202 5.4056 99.3182 5.83424 98.5458C6.2469 97.8027 6.83073 97.1637 7.53371 96.6798C8.43749 96.0576 9.53802 95.6923 10.7243 95.6923H19.942C23.0093 95.6923 25.5045 98.1366 25.5045 101.141V110.577Z" fill="white"/>
<path d="M12.5124 20.7553C10.633 20.7553 9.10425 19.2568 9.10425 17.4165V11.6379C9.10425 11.063 9.2537 10.5219 9.51537 10.0485C9.76808 9.59294 10.1258 9.20137 10.5566 8.90595C11.1099 8.52509 11.7845 8.30078 12.5106 8.30078H18.1558C20.0335 8.30078 21.5623 9.79757 21.5623 11.6377V17.4164C21.5623 19.2565 20.0336 20.7552 18.1558 20.7552H15.3333L12.5124 20.7553Z" fill="white"/>
<path d="M103.846 20.7553C101.966 20.7553 100.438 19.2568 100.438 17.4165V11.6379C100.438 11.063 100.587 10.5219 100.849 10.0485C101.101 9.59294 101.459 9.20137 101.89 8.90595C102.443 8.52509 103.118 8.30078 103.844 8.30078H109.489C111.367 8.30078 112.896 9.79757 112.896 11.6377V17.4164C112.896 19.2565 111.367 20.7552 109.489 20.7552H106.667L103.846 20.7553Z" fill="white"/>
<path d="M12.5124 112.089C10.633 112.089 9.10425 110.59 9.10425 108.75V102.971C9.10425 102.396 9.2537 101.855 9.51537 101.382C9.76808 100.926 10.1258 100.535 10.5566 100.239C11.1099 99.8583 11.7845 99.634 12.5106 99.634H18.1558C20.0335 99.634 21.5623 101.131 21.5623 102.971V108.75C21.5623 110.59 20.0336 112.088 18.1558 112.088H15.3333L12.5124 112.089Z" fill="white"/>
</svg>
